<svg width="24" height="24" viewBox="0 0 168 168" fill="none" xmlns="http://www.w3.org/2000/svg">
  <path d="M118.543 0C135.854 0 144.51 0.000158921 151.122 3.36914C156.938 6.33265 161.667 11.0617 164.631 16.8779C168 23.49 168 32.1458 168 49.457V118.543C168 135.854 168 144.51 164.631 151.122C161.667 156.938 156.938 161.667 151.122 164.631C144.51 168 135.854 168 118.543 168H49.457C32.1454 168 23.4891 168 16.877 164.631C11.0609 161.667 6.33259 156.938 3.36914 151.122C0.000178642 144.51 0 135.854 0 118.543V49.457C0 32.1457 0.000192889 23.4901 3.36914 16.8779C6.33259 11.0618 11.0609 6.33267 16.877 3.36914C23.4891 7.42912e-05 32.1454 0 49.457 0H118.543ZM71.4336 92.874C70.5243 92.8741 69.6233 93.0531 68.7832 93.4023C67.9432 93.7517 67.1792 94.2648 66.5361 94.9102L53.3115 108.188L49.7979 104.66C47.2149 102.068 42.794 103.349 41.9912 106.929L36.9814 129.214C36.8056 129.98 36.8272 130.78 37.0449 131.535C37.2618 132.288 37.666 132.973 38.2188 133.525L38.2148 133.532C38.7665 134.091 39.4507 134.498 40.2031 134.717C40.9559 134.935 41.7519 134.957 42.5156 134.78L64.7139 129.749C68.2768 128.943 69.5564 124.507 66.9736 121.914L63.459 118.387L76.6855 105.11C77.9838 103.806 78.7137 102.037 78.7139 100.193C78.7139 98.3496 77.9838 96.5804 76.6855 95.2764L76.5088 95.0986L76.5146 95.0938L76.332 94.9102C75.689 94.2647 74.925 93.7518 74.085 93.4023C73.2447 93.0529 72.3431 92.8741 71.4336 92.874ZM119.144 84.5078C116.055 82.5471 112.03 84.7777 112.029 88.4463V93.4336H83.6885C84.6353 95.2504 85.1747 97.3163 85.1748 99.5088C85.1746 102.679 84.0551 105.587 82.1914 107.855H112.027L112.025 112.843C112.026 116.511 116.055 118.741 119.144 116.78L138.385 104.584C139.824 103.667 140.544 102.153 140.544 100.641C140.542 99.1307 139.822 97.6206 138.38 96.707L119.144 84.5078ZM72.1182 31.2197C71.3349 31.2162 70.5622 31.4127 69.876 31.792C69.1892 32.1721 68.609 32.724 68.1934 33.3916L56.042 52.7061H56.0381C54.0859 55.807 56.3091 59.8489 59.9629 59.8496H64.9326V88.542C66.9942 87.1787 69.4611 86.3829 72.1143 86.3828C74.769 86.3828 77.2375 87.1792 79.2998 88.5439V59.8496H84.2695C87.9238 59.8496 90.1429 55.8078 88.1934 52.7041L76.0391 33.3916C75.1264 31.9457 73.6227 31.2213 72.1182 31.2197Z" fill="#1F1E1E"/>
</svg>
