<svg width="24" height="24" viewBox="0 0 24 24" fill="none" xmlns="http://www.w3.org/2000/svg">
  <path d="M20.625 10.5h-5.25a.375.375 0 0 0-.375.375v6a2.625 2.625 0 0 0 2.625 2.625h.75A2.625 2.625 0 0 0 21 16.875v-6a.375.375 0 0 0-.375-.375Z" fill="#5059C9" />
  <circle cx="18" cy="7.5" r="2.25" fill="#5059C9" />
  <path d="M14.25 10.5H7.125a.375.375 0 0 0-.375.375v7.5A3.375 3.375 0 0 0 10.125 21.75h.75a3.375 3.375 0 0 0 3.375-3.375v-7.5a.375.375 0 0 0 0-.375Z" fill="#7B83EB" />
  <circle cx="10.5" cy="6" r="3" fill="#7B83EB" />
  <path opacity="0.1" d="M10.875 10.5H6.75v8.25a3.37 3.37 0 0 0 2.503 3.254A3.375 3.375 0 0 0 14.25 18.75v-4.125A4.125 4.125 0 0 0 10.875 10.5Z" fill="black" />
</svg>
