<svg width="24" height="24" viewBox="0 0 24 24" fill="none" xmlns="http://www.w3.org/2000/svg">
  <path d="M24 5.457v13.909c0 .904-.732 1.636-1.636 1.636h-3.819V11.73L12 16.64l-6.545-4.91v9.272H1.636A1.636 1.636 0 0 1 0 19.366V5.457c0-.489.22-.952.6-1.26l.436-.328L12 12.184l10.964-8.315.436.328c.38.308.6.771.6 1.26Z" fill="#4285F4" />
  <path d="M1.636 21.002h3.819V11.73L0 7.637v11.73c0 .903.732 1.635 1.636 1.635Z" fill="#34A853" />
  <path d="M18.545 21.002h3.819A1.636 1.636 0 0 0 24 19.366V7.637l-5.455 4.093v9.272Z" fill="#FBBC04" />
  <path d="M1.636 5.457v2.18L12 16.64l10.964-8.227V5.457L12 12.184 1.036 3.87l.6-.448Z" fill="#EA4335" />
</svg>
