<svg width="24" height="24" viewBox="0 0 24 24" fill="none" xmlns="http://www.w3.org/2000/svg">
  <path d="M24 7.387v10.478c0 .23-.08.424-.238.582a.793.793 0 0 1-.582.238H9.6a.793.793 0 0 1-.582-.238.793.793 0 0 1-.238-.582v-1.23h12.308V8.156L12 14.34 1.23 7.387H24Z" fill="#0078D4" />
  <path d="M7.826 7.055l.96-2.207.108-.246H23.18c.234 0 .43.076.59.228.16.152.23.344.23.578v1.477L12 13.078 7.826 7.055Z" fill="#0078D4" />
  <path d="M1.846 18.685V7.387L12 13.078v5.607a.793.793 0 0 1-.238.582.793.793 0 0 1-.582.238H2.665a.793.793 0 0 1-.582-.238.829.829 0 0 1-.237-.582Z" fill="#0078D4" />
  <path d="M0 6.462v11.569a1.98 1.98 0 0 0 .574 1.395c.383.383.856.574 1.42.574h7.488V7.387L8.78 6.88V5.648L7.826 7.055 0 6.462Z" fill="#0559C9" />
  <path opacity="0.5" d="M12.923 7.387v11.298H2.665a.793.793 0 0 1-.582-.238.829.829 0 0 1-.237-.582V7.387h11.077Z" fill="url(#outlook_grad)" />
  <rect x="0.923" y="6" width="10.154" height="10.154" rx="1.1" fill="#0364B8" />
  <path d="M6 8.4c1.644 0 2.954 1.414 2.954 3.1S7.644 14.6 6 14.6 3.046 13.186 3.046 11.5 4.356 8.4 6 8.4Zm0 1.2c-.965 0-1.754.88-1.754 1.9s.79 1.9 1.754 1.9 1.754-.88 1.754-1.9-.79-1.9-1.754-1.9Z" fill="white" />
  <defs>
    <linearGradient id="outlook_grad" x1="6.793" y1="7.387" x2="6.793" y2="18.685" gradientUnits="userSpaceOnUse">
      <stop stop-color="#000" stop-opacity="0.3" />
      <stop offset="1" stop-color="#000" stop-opacity="0" />
    </linearGradient>
  </defs>
</svg>
