<svg xmlns:xlink="http://www.w3.org/1999/xlink" xmlns="http://www.w3.org/2000/svg" viewBox="0 0 298 199" overflow="visible" id="svg-901547855_12653" width="298"  height="199" ><g><path d="M 0 0 L 91.692 0 L 91.692 199 L 0 199 Z" fill="#000000" stroke="#E5E7EB" stroke-miterlimit="10" stroke-dasharray="" fill-opacity="0"></path><path d="M 5.158 7.434 L 86.535 7.434 L 86.535 62.33 L 5.158 62.33 Z" fill="#F3F4F6"></path><g><defs><linearGradient id="svg-901547855_12653_idscTO9r1CLn_4g-71119187" x1="0" x2="1" y1="0.4975124378109453" y2="0.5024875621890547"><stop offset="0" stop-color="rgb(209,213,219)" stop-opacity="1"></stop><stop offset="1" stop-color="rgb(243,244,246)" stop-opacity="1"></stop></linearGradient><linearGradient id="svg-901547855_12653_idscTO9r1CLn_4g-71119187" x1="0" x2="1" y1="0.4975124378109453" y2="0.5024875621890547"><stop offset="0" stop-color="rgb(209,213,219)" stop-opacity="1"></stop><stop offset="1" stop-color="rgb(243,244,246)" stop-opacity="1"></stop></linearGradient><linearGradient id="svg-901547855_12653_idscTO9r1CLn_5g-71119187" x1="0" x2="1" y1="0.4975124378109453" y2="0.5024875621890547"><stop offset="0" stop-color="rgb(209,213,219)" stop-opacity="1"></stop><stop offset="1" stop-color="rgb(243,244,246)" stop-opacity="1"></stop></linearGradient><linearGradient id="svg-901547855_12653_idscTO9r1CLn_6g-71119187" x1="0" x2="1" y1="0.4975124378109453" y2="0.5024875621890547"><stop offset="0" stop-color="rgb(209,213,219)" stop-opacity="1"></stop><stop offset="1" stop-color="rgb(243,244,246)" stop-opacity="1"></stop></linearGradient><linearGradient id="svg-901547855_12653_idscTO9r1CLn_8g-71119187" x1="0" x2="1" y1="0.4975124378109453" y2="0.5024875621890547"><stop offset="0" stop-color="rgb(209,213,219)" stop-opacity="1"></stop><stop offset="1" stop-color="rgb(243,244,246)" stop-opacity="1"></stop></linearGradient><linearGradient id="svg-901547855_12653_idscTO9r1CLn_9g-71119187" x1="0" x2="1" y1="0.4975124378109453" y2="0.5024875621890547"><stop offset="0" stop-color="rgb(209,213,219)" stop-opacity="1"></stop><stop offset="1" stop-color="rgb(243,244,246)" stop-opacity="1"></stop></linearGradient><linearGradient id="svg-901547855_12653_idscTO9r1CLn_10g-71119187" x1="0" x2="1" y1="0.4975124378109453" y2="0.5024875621890547"><stop offset="0" stop-color="rgb(209,213,219)" stop-opacity="1"></stop><stop offset="1" stop-color="rgb(243,244,246)" stop-opacity="1"></stop></linearGradient><linearGradient id="svg-901547855_12653_idscTO9r1CLn_13g-71119187" x1="0" x2="1" y1="0.4975124378109453" y2="0.5024875621890547"><stop offset="0" stop-color="rgb(209,213,219)" stop-opacity="1"></stop><stop offset="1" stop-color="rgb(243,244,246)" stop-opacity="1"></stop></linearGradient><linearGradient id="svg-901547855_12653_idscTO9r1CLn_14g-71119187" x1="0" x2="1" y1="0.4975124378109453" y2="0.5024875621890547"><stop offset="0" stop-color="rgb(209,213,219)" stop-opacity="1"></stop><stop offset="1" stop-color="rgb(243,244,246)" stop-opacity="1"></stop></linearGradient><linearGradient id="svg-901547855_12653_idscTO9r1CLn_15g-71119187" x1="0" x2="1" y1="0.4975124378109453" y2="0.5024875621890547"><stop offset="0" stop-color="rgb(209,213,219)" stop-opacity="1"></stop><stop offset="1" stop-color="rgb(243,244,246)" stop-opacity="1"></stop></linearGradient><linearGradient id="svg-901547855_12653_idscTO9r1CLn_17g-71119187" x1="0" x2="1" y1="0.4975124378109453" y2="0.5024875621890547"><stop offset="0" stop-color="rgb(209,213,219)" stop-opacity="1"></stop><stop offset="1" stop-color="rgb(243,244,246)" stop-opacity="1"></stop></linearGradient><linearGradient id="svg-901547855_12653_idscTO9r1CLn_18g-71119187" x1="0" x2="1" y1="0.4975124378109453" y2="0.5024875621890547"><stop offset="0" stop-color="rgb(209,213,219)" stop-opacity="1"></stop><stop offset="1" stop-color="rgb(243,244,246)" stop-opacity="1"></stop></linearGradient><linearGradient id="svg-901547855_12653_idscTO9r1CLn_19g-71119187" x1="0" x2="1" y1="0.4975124378109453" y2="0.5024875621890547"><stop offset="0" stop-color="rgb(209,213,219)" stop-opacity="1"></stop><stop offset="1" stop-color="rgb(243,244,246)" stop-opacity="1"></stop></linearGradient><linearGradient id="svg-901547855_12653_idscTO9r1CLn_22g-71119187" x1="0" x2="1" y1="0.4975124378109453" y2="0.5024875621890547"><stop offset="0" stop-color="rgb(209,213,219)" stop-opacity="1"></stop><stop offset="1" stop-color="rgb(243,244,246)" stop-opacity="1"></stop></linearGradient><linearGradient id="svg-901547855_12653_idscTO9r1CLn_23g-71119187" x1="0" x2="1" y1="0.4975124378109453" y2="0.5024875621890547"><stop offset="0" stop-color="rgb(209,213,219)" stop-opacity="1"></stop><stop offset="1" stop-color="rgb(243,244,246)" stop-opacity="1"></stop></linearGradient><linearGradient id="svg-901547855_12653_idscTO9r1CLn_24g-71119187" x1="0" x2="1" y1="0.4975124378109453" y2="0.5024875621890547"><stop offset="0" stop-color="rgb(209,213,219)" stop-opacity="1"></stop><stop offset="1" stop-color="rgb(243,244,246)" stop-opacity="1"></stop></linearGradient><linearGradient id="svg-901547855_12653_idscTO9r1CLn_26g-71119187" x1="0" x2="1" y1="0.4975124378109453" y2="0.5024875621890547"><stop offset="0" stop-color="rgb(209,213,219)" stop-opacity="1"></stop><stop offset="1" stop-color="rgb(243,244,246)" stop-opacity="1"></stop></linearGradient><linearGradient id="svg-901547855_12653_idscTO9r1CLn_27g-71119187" x1="0" x2="1" y1="0.4975124378109453" y2="0.5024875621890547"><stop offset="0" stop-color="rgb(209,213,219)" stop-opacity="1"></stop><stop offset="1" stop-color="rgb(243,244,246)" stop-opacity="1"></stop></linearGradient><linearGradient id="svg-901547855_12653_idscTO9r1CLn_28g-71119187" x1="0" x2="1" y1="0.4975124378109453" y2="0.5024875621890547"><stop offset="0" stop-color="rgb(209,213,219)" stop-opacity="1"></stop><stop offset="1" stop-color="rgb(243,244,246)" stop-opacity="1"></stop></linearGradient><linearGradient id="svg-901547855_12653_idscTO9r1CLn_34g-59019264" x1="0.4970311903416252" x2="0.5029688096583748" y1="0" y2="1"><stop offset="0" stop-color="rgb(229,231,235)" stop-opacity="1"></stop><stop offset="1" stop-color="rgb(156,163,175)" stop-opacity="1"></stop></linearGradient></defs><path d="M 5.158 65.761 L 86.535 65.761 L 86.535 79.486 L 5.158 79.486 Z" fill="url(&quot;#svg-901547855_12653_idscTO9r1CLn_4g-71119187&quot;)"></path></g><g><defs><linearGradient id="svg-901547855_12653_idscTO9r1CLn_5g-71119187" x1="0" x2="1" y1="0.4975124378109453" y2="0.5024875621890547"><stop offset="0" stop-color="rgb(209,213,219)" stop-opacity="1"></stop><stop offset="1" stop-color="rgb(243,244,246)" stop-opacity="1"></stop></linearGradient></defs><path d="M 5.158 108.078 L 86.535 108.078 L 86.535 121.802 L 5.158 121.802 Z" fill="url(&quot;#svg-901547855_12653_idscTO9r1CLn_5g-71119187&quot;)"></path></g><g><defs><linearGradient id="svg-901547855_12653_idscTO9r1CLn_6g-71119187" x1="0" x2="1" y1="0.4975124378109453" y2="0.5024875621890547"><stop offset="0" stop-color="rgb(209,213,219)" stop-opacity="1"></stop><stop offset="1" stop-color="rgb(243,244,246)" stop-opacity="1"></stop></linearGradient></defs><path d="M 5.158 150.394 L 86.535 150.394 L 86.535 164.118 L 5.158 164.118 Z" fill="url(&quot;#svg-901547855_12653_idscTO9r1CLn_6g-71119187&quot;)"></path></g><path d="M 5.158 100.072 L 86.535 100.072 L 86.535 104.647 L 5.158 104.647 Z M 5.158 142.388 L 86.535 142.388 L 86.535 146.963 L 5.158 146.963 Z" fill="#F3F4F6"></path><g><defs><linearGradient id="svg-901547855_12653_idscTO9r1CLn_8g-71119187" x1="0" x2="1" y1="0.4975124378109453" y2="0.5024875621890547"><stop offset="0" stop-color="rgb(209,213,219)" stop-opacity="1"></stop><stop offset="1" stop-color="rgb(243,244,246)" stop-opacity="1"></stop></linearGradient></defs><path d="M 5.158 82.917 L 86.535 82.917 L 86.535 96.641 L 5.158 96.641 Z" fill="url(&quot;#svg-901547855_12653_idscTO9r1CLn_8g-71119187&quot;)"></path></g><g><defs><linearGradient id="svg-901547855_12653_idscTO9r1CLn_9g-71119187" x1="0" x2="1" y1="0.4975124378109453" y2="0.5024875621890547"><stop offset="0" stop-color="rgb(209,213,219)" stop-opacity="1"></stop><stop offset="1" stop-color="rgb(243,244,246)" stop-opacity="1"></stop></linearGradient></defs><path d="M 5.158 125.233 L 86.535 125.233 L 86.535 138.957 L 5.158 138.957 Z" fill="url(&quot;#svg-901547855_12653_idscTO9r1CLn_9g-71119187&quot;)"></path></g><g><defs><linearGradient id="svg-901547855_12653_idscTO9r1CLn_10g-71119187" x1="0" x2="1" y1="0.4975124378109453" y2="0.5024875621890547"><stop offset="0" stop-color="rgb(209,213,219)" stop-opacity="1"></stop><stop offset="1" stop-color="rgb(243,244,246)" stop-opacity="1"></stop></linearGradient></defs><path d="M 5.158 167.549 L 86.535 167.549 L 86.535 181.273 L 5.158 181.273 Z" fill="url(&quot;#svg-901547855_12653_idscTO9r1CLn_10g-71119187&quot;)"></path></g><path d="M 103.154 0 L 194.846 0 L 194.846 199 L 103.154 199 Z" fill="#000000" stroke="#E5E7EB" stroke-miterlimit="10" stroke-dasharray="" fill-opacity="0"></path><path d="M 108.312 7.434 L 189.688 7.434 L 189.688 62.33 L 108.312 62.33 Z" fill="#F3F4F6"></path><g><defs><linearGradient id="svg-901547855_12653_idscTO9r1CLn_13g-71119187" x1="0" x2="1" y1="0.4975124378109453" y2="0.5024875621890547"><stop offset="0" stop-color="rgb(209,213,219)" stop-opacity="1"></stop><stop offset="1" stop-color="rgb(243,244,246)" stop-opacity="1"></stop></linearGradient></defs><path d="M 108.312 65.761 L 189.688 65.761 L 189.688 79.486 L 108.312 79.486 Z" fill="url(&quot;#svg-901547855_12653_idscTO9r1CLn_13g-71119187&quot;)"></path></g><g><defs><linearGradient id="svg-901547855_12653_idscTO9r1CLn_14g-71119187" x1="0" x2="1" y1="0.4975124378109453" y2="0.5024875621890547"><stop offset="0" stop-color="rgb(209,213,219)" stop-opacity="1"></stop><stop offset="1" stop-color="rgb(243,244,246)" stop-opacity="1"></stop></linearGradient></defs><path d="M 108.312 108.078 L 189.688 108.078 L 189.688 121.802 L 108.312 121.802 Z" fill="url(&quot;#svg-901547855_12653_idscTO9r1CLn_14g-71119187&quot;)"></path></g><g><defs><linearGradient id="svg-901547855_12653_idscTO9r1CLn_15g-71119187" x1="0" x2="1" y1="0.4975124378109453" y2="0.5024875621890547"><stop offset="0" stop-color="rgb(209,213,219)" stop-opacity="1"></stop><stop offset="1" stop-color="rgb(243,244,246)" stop-opacity="1"></stop></linearGradient></defs><path d="M 108.312 150.394 L 189.688 150.394 L 189.688 164.118 L 108.312 164.118 Z" fill="url(&quot;#svg-901547855_12653_idscTO9r1CLn_15g-71119187&quot;)"></path></g><path d="M 108.312 100.072 L 189.688 100.072 L 189.688 104.647 L 108.312 104.647 Z M 108.312 142.388 L 189.688 142.388 L 189.688 146.963 L 108.312 146.963 Z" fill="#F3F4F6"></path><g><defs><linearGradient id="svg-901547855_12653_idscTO9r1CLn_17g-71119187" x1="0" x2="1" y1="0.4975124378109453" y2="0.5024875621890547"><stop offset="0" stop-color="rgb(209,213,219)" stop-opacity="1"></stop><stop offset="1" stop-color="rgb(243,244,246)" stop-opacity="1"></stop></linearGradient></defs><path d="M 108.312 82.917 L 189.688 82.917 L 189.688 96.641 L 108.312 96.641 Z" fill="url(&quot;#svg-901547855_12653_idscTO9r1CLn_17g-71119187&quot;)"></path></g><g><defs><linearGradient id="svg-901547855_12653_idscTO9r1CLn_18g-71119187" x1="0" x2="1" y1="0.4975124378109453" y2="0.5024875621890547"><stop offset="0" stop-color="rgb(209,213,219)" stop-opacity="1"></stop><stop offset="1" stop-color="rgb(243,244,246)" stop-opacity="1"></stop></linearGradient></defs><path d="M 108.312 125.233 L 189.688 125.233 L 189.688 138.957 L 108.312 138.957 Z" fill="url(&quot;#svg-901547855_12653_idscTO9r1CLn_18g-71119187&quot;)"></path></g><g><defs><linearGradient id="svg-901547855_12653_idscTO9r1CLn_19g-71119187" x1="0" x2="1" y1="0.4975124378109453" y2="0.5024875621890547"><stop offset="0" stop-color="rgb(209,213,219)" stop-opacity="1"></stop><stop offset="1" stop-color="rgb(243,244,246)" stop-opacity="1"></stop></linearGradient></defs><path d="M 108.312 167.549 L 189.688 167.549 L 189.688 181.273 L 108.312 181.273 Z" fill="url(&quot;#svg-901547855_12653_idscTO9r1CLn_19g-71119187&quot;)"></path></g><path d="M 206.308 0 L 298 0 L 298 199 L 206.308 199 Z" fill="#000000" stroke="#E5E7EB" stroke-miterlimit="10" stroke-dasharray="" fill-opacity="0"></path><path d="M 211.465 7.434 L 292.842 7.434 L 292.842 62.33 L 211.465 62.33 Z" fill="#F3F4F6"></path><g><defs><linearGradient id="svg-901547855_12653_idscTO9r1CLn_22g-71119187" x1="0" x2="1" y1="0.4975124378109453" y2="0.5024875621890547"><stop offset="0" stop-color="rgb(209,213,219)" stop-opacity="1"></stop><stop offset="1" stop-color="rgb(243,244,246)" stop-opacity="1"></stop></linearGradient></defs><path d="M 211.465 65.761 L 292.842 65.761 L 292.842 79.486 L 211.465 79.486 Z" fill="url(&quot;#svg-901547855_12653_idscTO9r1CLn_22g-71119187&quot;)"></path></g><g><defs><linearGradient id="svg-901547855_12653_idscTO9r1CLn_23g-71119187" x1="0" x2="1" y1="0.4975124378109453" y2="0.5024875621890547"><stop offset="0" stop-color="rgb(209,213,219)" stop-opacity="1"></stop><stop offset="1" stop-color="rgb(243,244,246)" stop-opacity="1"></stop></linearGradient></defs><path d="M 211.465 108.078 L 292.842 108.078 L 292.842 121.802 L 211.465 121.802 Z" fill="url(&quot;#svg-901547855_12653_idscTO9r1CLn_23g-71119187&quot;)"></path></g><g><defs><linearGradient id="svg-901547855_12653_idscTO9r1CLn_24g-71119187" x1="0" x2="1" y1="0.4975124378109453" y2="0.5024875621890547"><stop offset="0" stop-color="rgb(209,213,219)" stop-opacity="1"></stop><stop offset="1" stop-color="rgb(243,244,246)" stop-opacity="1"></stop></linearGradient></defs><path d="M 211.465 150.394 L 292.842 150.394 L 292.842 164.118 L 211.465 164.118 Z" fill="url(&quot;#svg-901547855_12653_idscTO9r1CLn_24g-71119187&quot;)"></path></g><path d="M 211.465 100.072 L 292.842 100.072 L 292.842 104.647 L 211.465 104.647 Z M 211.465 142.388 L 292.842 142.388 L 292.842 146.963 L 211.465 146.963 Z" fill="#F3F4F6"></path><g><defs><linearGradient id="svg-901547855_12653_idscTO9r1CLn_26g-71119187" x1="0" x2="1" y1="0.4975124378109453" y2="0.5024875621890547"><stop offset="0" stop-color="rgb(209,213,219)" stop-opacity="1"></stop><stop offset="1" stop-color="rgb(243,244,246)" stop-opacity="1"></stop></linearGradient></defs><path d="M 211.465 82.917 L 292.842 82.917 L 292.842 96.641 L 211.465 96.641 Z" fill="url(&quot;#svg-901547855_12653_idscTO9r1CLn_26g-71119187&quot;)"></path></g><g><defs><linearGradient id="svg-901547855_12653_idscTO9r1CLn_27g-71119187" x1="0" x2="1" y1="0.4975124378109453" y2="0.5024875621890547"><stop offset="0" stop-color="rgb(209,213,219)" stop-opacity="1"></stop><stop offset="1" stop-color="rgb(243,244,246)" stop-opacity="1"></stop></linearGradient></defs><path d="M 211.465 125.233 L 292.842 125.233 L 292.842 138.957 L 211.465 138.957 Z" fill="url(&quot;#svg-901547855_12653_idscTO9r1CLn_27g-71119187&quot;)"></path></g><g><defs><linearGradient id="svg-901547855_12653_idscTO9r1CLn_28g-71119187" x1="0" x2="1" y1="0.4975124378109453" y2="0.5024875621890547"><stop offset="0" stop-color="rgb(209,213,219)" stop-opacity="1"></stop><stop offset="1" stop-color="rgb(243,244,246)" stop-opacity="1"></stop></linearGradient></defs><path d="M 211.465 167.549 L 292.842 167.549 L 292.842 181.273 L 211.465 181.273 Z" fill="url(&quot;#svg-901547855_12653_idscTO9r1CLn_28g-71119187&quot;)"></path></g><path d="M 149.573 133.81 C 128.367 133.81 111.177 116.657 111.177 95.497 L 111.177 95.497 C 111.177 74.337 128.367 57.184 149.573 57.184 L 149.573 57.184 C 170.779 57.184 187.969 74.337 187.969 95.497 L 187.969 95.497 C 187.969 116.657 170.779 133.81 149.573 133.81 Z" fill="#FFFFFF"></path><path d="M 149.573 133.81 C 128.367 133.81 111.177 116.657 111.177 95.497 L 111.177 95.497 C 111.177 74.337 128.367 57.184 149.573 57.184 L 149.573 57.184 C 170.779 57.184 187.969 74.337 187.969 95.497 L 187.969 95.497 C 187.969 116.657 170.779 133.81 149.573 133.81 Z" fill="#000000" stroke="#D1D5DB" stroke-miterlimit="10" stroke-dasharray="" fill-opacity="0"></path><path d="M 149.573 129.236 C 130.899 129.236 115.762 114.13 115.762 95.497 L 115.762 95.497 C 115.762 76.864 130.899 61.759 149.573 61.759 L 149.573 61.759 C 168.247 61.759 183.385 76.864 183.385 95.497 L 183.385 95.497 C 183.385 114.13 168.247 129.236 149.573 129.236 Z" fill="#FFFFFF"></path><path d="M 149.573 129.236 C 130.899 129.236 115.762 114.13 115.762 95.497 L 115.762 95.497 C 115.762 76.864 130.899 61.759 149.573 61.759 L 149.573 61.759 C 168.247 61.759 183.385 76.864 183.385 95.497 L 183.385 95.497 C 183.385 114.13 168.247 129.236 149.573 129.236 Z" fill="#000000" stroke="#D1D5DB" stroke-miterlimit="10" stroke-dasharray="4,4" fill-opacity="0"></path><g transform="translate(128.942 73.195)"><g><defs><linearGradient id="svg-901547855_12653_idscTO9r1CLn_34g-59019264" x1="0.4970311903416252" x2="0.5029688096583748" y1="0" y2="1"><stop offset="0" stop-color="rgb(229,231,235)" stop-opacity="1"></stop><stop offset="1" stop-color="rgb(156,163,175)" stop-opacity="1"></stop></linearGradient></defs><path d="M 0.162 8.395 C 0.281 6.864 1.494 5.709 3.013 5.481 C 5.202 5.149 8.356 4.6 10.727 3.883 C 13.516 3.04 17.391 1.312 19.499 0.334 C 20.459 -0.111 21.567 -0.111 22.527 0.334 C 24.635 1.312 28.51 3.04 31.298 3.883 C 33.67 4.599 36.824 5.149 39.012 5.481 C 40.532 5.709 41.744 6.864 41.864 8.395 C 42.465 16.116 42.441 39.043 21.972 45.6 C 21.348 45.796 20.678 45.796 20.053 45.6 C -0.416 39.043 -0.44 16.116 0.162 8.395 Z" fill="url(&quot;#svg-901547855_12653_idscTO9r1CLn_34g-59019264&quot;)"></path></g><path d="M 0.162 8.395 C 0.281 6.864 1.494 5.709 3.013 5.481 C 5.202 5.149 8.356 4.6 10.727 3.883 C 13.516 3.04 17.391 1.312 19.499 0.334 C 20.459 -0.111 21.567 -0.111 22.527 0.334 C 24.635 1.312 28.51 3.04 31.298 3.883 C 33.67 4.599 36.824 5.149 39.012 5.481 C 40.532 5.709 41.744 6.864 41.864 8.395 C 42.465 16.116 42.441 39.043 21.972 45.6 C 21.348 45.796 20.678 45.796 20.053 45.6 C -0.416 39.043 -0.44 16.116 0.162 8.395 Z" fill="#000000" stroke="#D1D5DB" stroke-miterlimit="10" stroke-dasharray="" fill-opacity="0"></path></g><path d="M 154.977 80.63 C 155.895 81.011 156.817 81.367 157.616 81.617 C 158.671 81.947 159.941 82.228 161.132 82.455 L 153.996 111.575 C 153.08 112.056 152.129 112.467 151.151 112.806 C 150.514 113.024 149.821 113.024 149.183 112.806 C 148.537 112.582 147.902 112.326 147.281 112.04 L 154.977 80.629 Z M 164.184 83.467 C 164.828 84.004 165.257 84.767 165.309 85.653 C 165.605 90.698 165.335 101.985 157.985 108.767 L 164.184 83.468 Z" fill="#FFFFFF"></path><path d="M 134.747 85.741 C 134.836 84.208 136.046 83.042 137.564 82.788 C 139.072 82.535 140.966 82.166 142.44 81.704 C 144.269 81.132 146.744 80.015 148.327 79.264 C 149.316 78.797 150.462 78.797 151.45 79.264 C 153.034 80.015 155.508 81.132 157.337 81.704 C 158.811 82.166 160.705 82.535 162.213 82.788 C 163.731 83.042 164.941 84.207 165.032 85.741 C 165.401 92.031 164.892 108.029 150.872 112.894 C 150.235 113.113 149.542 113.113 148.905 112.894 C 134.885 108.029 134.377 92.031 134.747 85.741 Z" fill="#000000" stroke="#D1D5DB" stroke-miterlimit="10" stroke-dasharray="" fill-opacity="0"></path></g></svg>