<svg width="290" height="352" viewBox="0 0 290 352" fill="none" xmlns="http://www.w3.org/2000/svg">
<g filter="url(#filter0_d_786_837)">
<rect x="2" y="1" width="286" height="348" fill="white"/>
<rect x="2.5" y="1.5" width="285" height="347" stroke="#E5E7EB"/>
<rect x="9.5" y="10.5" width="270" height="329" stroke="#E5E7EB"/>
<rect x="20" y="33" width="152" height="17" fill="#E5E7EB"/>
<rect x="20" y="63" width="241" height="17" fill="#E5E7EB"/>
<rect x="20" y="93" width="241" height="17" fill="#E5E7EB"/>
<rect x="20" y="243" width="241" height="17" fill="#E5E7EB"/>
<rect x="19" y="266" width="241" height="61" fill="#E5E7EB"/>
<rect x="20" y="158" width="156" height="17" fill="#E5E7EB"/>
<rect x="20" y="209" width="156" height="22" fill="#E5E7EB"/>
<rect x="20" y="181" width="156" height="8" fill="#E5E7EB"/>
<rect x="20" y="195" width="156" height="8" fill="#E5E7EB"/>
<rect x="188" y="158" width="73" height="73" fill="#E5E7EB"/>
<rect x="20" y="123" width="72" height="17" fill="#E5E7EB"/>
<rect x="104" y="123" width="72" height="17" fill="#E5E7EB"/>
<rect x="188" y="123" width="72" height="17" fill="#E5E7EB"/>
<rect x="179" y="33" width="82" height="17" fill="#E5E7EB"/>
<mask id="path-18-inside-1_786_837" fill="white">
<path d="M2 158H288V349H2V158Z"/>
</mask>
<path d="M2 158H288V349H2V158Z" fill="url(#paint0_linear_786_837)"/>
<path d="M2 158V161H288V158V155H2V158Z" fill="#034199" mask="url(#path-18-inside-1_786_837)"/>
</g>
<defs>
<filter id="filter0_d_786_837" x="0" y="0" width="290" height="352" filterUnits="userSpaceOnUse" color-interpolation-filters="sRGB">
<feFlood flood-opacity="0" result="BackgroundImageFix"/>
<feColorMatrix in="SourceAlpha" type="matrix" values="0 0 0 0 0 0 0 0 0 0 0 0 0 0 0 0 0 0 127 0" result="hardAlpha"/>
<feOffset dy="1"/>
<feGaussianBlur stdDeviation="1"/>
<feComposite in2="hardAlpha" operator="out"/>
<feColorMatrix type="matrix" values="0 0 0 0 0 0 0 0 0 0 0 0 0 0 0 0 0 0 0.05 0"/>
<feBlend mode="normal" in2="BackgroundImageFix" result="effect1_dropShadow_786_837"/>
<feBlend mode="normal" in="SourceGraphic" in2="effect1_dropShadow_786_837" result="shape"/>
</filter>
<linearGradient id="paint0_linear_786_837" x1="145" y1="64" x2="145" y2="275.5" gradientUnits="userSpaceOnUse">
<stop stop-color="#C1DAFF"/>
<stop offset="1" stop-color="#E6F0FF" stop-opacity="0"/>
</linearGradient>
</defs>
</svg>
