<svg xmlns:xlink="http://www.w3.org/1999/xlink" xmlns="http://www.w3.org/2000/svg" viewBox="0 0 360 274" overflow="visible" id="svg94567095_25228" width="360"  height="274" ><g><g transform="translate(0 214)"><path d="M 30 60 C 13.431 60 0 46.569 0 30 L 0 30 C 0 13.431 13.431 0 30 0 L 30 0 C 46.569 0 60 13.431 60 30 L 60 30 C 60 46.569 46.569 60 30 60 Z" fill="#FFFFFF"></path><path d="M 30 59.5 C 13.708 59.5 0.5 46.292 0.5 30 L 0.5 30 C 0.5 13.708 13.708 0.5 30 0.5 L 30 0.5 C 46.292 0.5 59.5 13.708 59.5 30 L 59.5 30 C 59.5 46.292 46.292 59.5 30 59.5 Z" fill="#000000" stroke="#E5E7EB" stroke-miterlimit="10" stroke-dasharray="" fill-opacity="0"></path><g transform="translate(20 20)"><path d="M 4 4 L 4.01 4 M 4 16 L 4.01 16 M 2 0 L 18 0 C 19.105 0 20 0.895 20 2 L 20 6 C 20 7.105 19.105 8 18 8 L 2 8 C 0.895 8 0 7.105 0 6 L 0 2 C 0 0.895 0.895 0 2 0 Z M 2 12 L 18 12 C 19.105 12 20 12.895 20 14 L 20 18 C 20 19.105 19.105 20 18 20 L 2 20 C 0.895 20 0 19.105 0 18 L 0 14 C 0 12.895 0.895 12 2 12 Z" fill="#000000" stroke-width="2px" stroke="#E5E7EB" stroke-linecap="round" stroke-linejoin="round" stroke-dasharray="" fill-opacity="0"></path></g></g><g transform="translate(84 214)"><path d="M 30 60 C 13.431 60 0 46.569 0 30 L 0 30 C 0 13.431 13.431 0 30 0 L 30 0 C 46.569 0 60 13.431 60 30 L 60 30 C 60 46.569 46.569 60 30 60 Z" fill="#FFFFFF"></path><path d="M 30 59.5 C 13.708 59.5 0.5 46.292 0.5 30 L 0.5 30 C 0.5 13.708 13.708 0.5 30 0.5 L 30 0.5 C 46.292 0.5 59.5 13.708 59.5 30 L 59.5 30 C 59.5 46.292 46.292 59.5 30 59.5 Z" fill="#000000" stroke="#E5E7EB" stroke-miterlimit="10" stroke-dasharray="" fill-opacity="0"></path><g transform="translate(20 20.334)"><path d="M 10 16.666 L 6.03 19.046 C 5.396 19.427 4.604 19.427 3.97 19.046 L 0.97 17.246 C 0.37 16.885 0.002 16.236 0 15.536 L 0 12.296 C 0.002 11.595 0.369 10.947 0.97 10.586 L 5 8.166 M 10 16.666 L 10 11.166 M 10 16.666 L 13.97 19.046 C 14.604 19.427 15.396 19.427 16.03 19.046 L 19.03 17.246 C 19.63 16.885 19.998 16.236 20 15.536 L 20 12.296 C 19.998 11.595 19.631 10.947 19.03 10.586 L 15 8.166 M 10 11.166 L 5 8.166 M 10 11.166 L 5 14.166 M 10 11.166 L 15 8.166 M 10 11.166 L 15 14.166 M 10 11.166 L 10 5.666 M 5 8.166 L 5 3.796 C 5.002 3.095 5.369 2.447 5.97 2.086 L 8.97 0.286 C 9.604 -0.095 10.396 -0.095 11.03 0.286 L 14.03 2.086 C 14.631 2.446 14.999 3.095 15 3.796 L 15 8.166 M 5 14.166 L 0.26 11.316 M 5 14.166 L 5 19.336 M 15 14.166 L 19.74 11.316 M 15 14.166 L 15 19.336 M 10 5.666 L 5.26 2.816 M 10 5.666 L 14.74 2.816" fill="#000000" stroke-width="2px" stroke="#E5E7EB" stroke-linecap="round" stroke-linejoin="round" stroke-dasharray="" fill-opacity="0"></path></g></g><g transform="translate(216 214)"><path d="M 30 60 C 13.431 60 0 46.569 0 30 L 0 30 C 0 13.431 13.431 0 30 0 L 30 0 C 46.569 0 60 13.431 60 30 L 60 30 C 60 46.569 46.569 60 30 60 Z" fill="#FFFFFF"></path><path d="M 30 59.5 C 13.708 59.5 0.5 46.292 0.5 30 L 0.5 30 C 0.5 13.708 13.708 0.5 30 0.5 L 30 0.5 C 46.292 0.5 59.5 13.708 59.5 30 L 59.5 30 C 59.5 46.292 46.292 59.5 30 59.5 Z" fill="#000000" stroke="#E5E7EB" stroke-miterlimit="10" stroke-dasharray="" fill-opacity="0"></path><g transform="translate(20 20)"><path d="M 2.93 2.93 L 7.17 7.17 M 12.83 7.17 L 17.07 2.93 M 12.83 12.83 L 17.07 17.07 M 7.17 12.83 L 2.93 17.07 M 20 10 C 20 15.523 15.523 20 10 20 C 4.477 20 0 15.523 0 10 C 0 4.477 4.477 0 10 0 C 15.523 0 20 4.477 20 10 Z M 14 10 C 14 12.209 12.209 14 10 14 C 7.791 14 6 12.209 6 10 C 6 7.791 7.791 6 10 6 C 12.209 6 14 7.791 14 10 Z" fill="#000000" stroke-width="2px" stroke="#E5E7EB" stroke-linecap="round" stroke-linejoin="round" stroke-dasharray="" fill-opacity="0"></path></g></g><g transform="translate(300 214)"><path d="M 30 60 C 13.431 60 0 46.569 0 30 L 0 30 C 0 13.431 13.431 0 30 0 L 30 0 C 46.569 0 60 13.431 60 30 L 60 30 C 60 46.569 46.569 60 30 60 Z" fill="#FFFFFF"></path><path d="M 30 59.5 C 13.708 59.5 0.5 46.292 0.5 30 L 0.5 30 C 0.5 13.708 13.708 0.5 30 0.5 L 30 0.5 C 46.292 0.5 59.5 13.708 59.5 30 L 59.5 30 C 59.5 46.292 46.292 59.5 30 59.5 Z" fill="#000000" stroke="#E5E7EB" stroke-miterlimit="10" stroke-dasharray="" fill-opacity="0"></path><g transform="translate(20 21)"><path d="M 9 14 L 11 16 C 11.398 16.397 11.938 16.62 12.5 16.621 C 13.357 16.619 14.129 16.103 14.46 15.312 C 14.674 14.792 14.674 14.209 14.46 13.688 C 14.353 13.431 14.197 13.197 14 13 M 12 11 L 14.5 13.5 C 15.106 14.108 16.019 14.29 16.812 13.962 C 17.605 13.633 18.122 12.859 18.121 12 C 18.121 11.438 17.898 10.898 17.5 10.5 L 13.62 6.62 C 12.449 5.451 10.551 5.451 9.38 6.62 L 8.5 7.5 C 7.894 8.108 6.981 8.29 6.188 7.962 C 5.395 7.633 4.878 6.859 4.879 6 C 4.879 5.437 5.102 4.898 5.5 4.5 L 8.31 1.69 C 10.187 -0.181 13.095 -0.539 15.37 0.82 L 15.84 1.1 C 16.266 1.357 16.772 1.446 17.26 1.35 L 19 1 M 19 0 L 20 11 L 18 11 M 1 0 L 0 11 L 6.5 17.5 C 7.106 18.108 8.019 18.29 8.812 17.962 C 9.605 17.633 10.122 16.859 10.121 16 C 10.121 15.438 9.898 14.898 9.5 14.5 M 1 1 L 9 1" fill="#000000" stroke-width="2px" stroke="#E5E7EB" stroke-linecap="round" stroke-linejoin="round" stroke-dasharray="" fill-opacity="0"></path></g></g><g transform="translate(110 0)"><path d="M 20 140 C 8.954 140 0 131.046 0 120 L 0 20 C 0 8.954 8.954 0 20 0 L 120 0 C 131.046 0 140 8.954 140 20 L 140 120 C 140 131.046 131.046 140 120 140 Z" fill="#FFFFFF"></path><path d="M 20 139.5 C 9.23 139.5 0.5 130.77 0.5 120 L 0.5 20 C 0.5 9.23 9.23 0.5 20 0.5 L 120 0.5 C 130.77 0.5 139.5 9.23 139.5 20 L 139.5 120 C 139.5 130.77 130.77 139.5 120 139.5 Z" fill="#000000" stroke="#D1D5DB" stroke-miterlimit="10" stroke-dasharray="" fill-opacity="0"></path><path d="M 26 131.5 C 16.335 131.5 8.5 123.665 8.5 114 L 8.5 26 C 8.5 16.335 16.335 8.5 26 8.5 L 114 8.5 C 123.665 8.5 131.5 16.335 131.5 26 L 131.5 114 C 131.5 123.665 123.665 131.5 114 131.5 Z" fill="#FFFFFF"></path><path d="M 26 131.5 C 16.335 131.5 8.5 123.665 8.5 114 L 8.5 26 C 8.5 16.335 16.335 8.5 26 8.5 L 114 8.5 C 123.665 8.5 131.5 16.335 131.5 26 L 131.5 114 C 131.5 123.665 123.665 131.5 114 131.5 Z" fill="#000000" stroke="#D1D5DB" stroke-miterlimit="10" stroke-dasharray="6,6" fill-opacity="0"></path><g transform="translate(52.754 59.274)"><path d="M 0 29.316 C -0.013 33.883 1.603 38.305 4.557 41.788 C 4.986 42.283 5.435 42.76 5.905 43.22 L 5.937 43.246 C 9.068 46.243 13.14 48.062 17.461 48.393 C 21.778 48.717 26.073 47.531 29.612 45.038 L 48.175 30.498 C 50.132 28.963 51.712 27.002 52.794 24.763 C 53.882 22.514 54.447 20.048 54.447 17.55 L 54.447 0 L 25.875 22.379 C 24.175 23.666 22.219 24.574 20.138 25.04 C 18.062 25.504 15.91 25.516 13.829 25.074 C 11.744 24.63 9.778 23.744 8.064 22.476 C 6.342 21.201 4.909 19.574 3.862 17.704 C 1.344 21.051 -0.012 25.129 0 29.317 Z" fill="#E5E7EB"></path></g><g transform="translate(31.945 31.414)"><path d="M 54.452 19.116 C 54.467 14.549 52.851 10.127 49.895 6.645 C 49.464 6.151 49.014 5.674 48.546 5.214 L 48.515 5.214 C 45.388 2.214 41.318 0.39 36.998 0.054 C 32.682 -0.275 28.386 0.906 24.845 3.395 L 6.271 17.935 C 4.315 19.47 2.735 21.432 1.652 23.67 C 0.564 25.919 -0.001 28.385 0 30.883 L 0 48.433 L 28.582 26.055 C 30.282 24.768 32.238 23.86 34.318 23.393 C 36.393 22.928 38.545 22.917 40.625 23.359 C 42.71 23.803 44.676 24.689 46.389 25.957 C 48.111 27.233 49.543 28.859 50.59 30.729 C 53.108 27.382 54.464 23.304 54.452 19.116 Z" fill="#E5E7EB"></path></g></g><path d="M 181 140 C 181 139.448 180.552 139 180 139 C 179.448 139 179 139.448 179 140 Z M 180 140 L 179 140 L 179 141.417 L 181 141.417 L 181 140 Z M 180 144.25 L 179 144.25 L 179 147.083 L 181 147.083 L 181 144.25 Z M 180 149.917 L 179 149.917 L 179 152.75 L 181 152.75 L 181 149.917 Z M 180 155.583 L 179 155.583 L 179 157 L 181 157 L 181 155.583 Z M 180 157 L 179 157 C 179 157.554 179.022 158.104 179.064 158.648 L 180.061 158.571 L 181.058 158.493 C 181.02 158.001 181 157.503 181 157 Z M 180.548 161.671 L 179.576 161.904 C 179.834 162.983 180.176 164.031 180.594 165.039 L 181.518 164.656 L 182.441 164.273 C 182.06 163.354 181.753 162.406 181.521 161.438 Z M 182.945 167.451 L 182.092 167.974 C 182.668 168.911 183.316 169.802 184.031 170.639 L 184.792 169.989 L 185.552 169.339 C 184.905 168.583 184.318 167.776 183.797 166.928 Z M 187.011 172.208 L 186.361 172.969 C 187.198 173.684 188.089 174.332 189.026 174.908 L 189.549 174.055 L 190.072 173.203 C 189.224 172.682 188.417 172.095 187.661 171.448 Z M 192.344 175.482 L 191.961 176.406 C 192.969 176.824 194.017 177.166 195.096 177.424 L 195.329 176.452 L 195.562 175.479 C 194.594 175.247 193.646 174.94 192.727 174.559 Z M 198.429 176.939 L 198.352 177.936 C 198.896 177.978 199.446 178 200 178 L 200 176 C 199.497 176 198.999 175.98 198.507 175.942 Z M 200 177 L 200 178 L 201.625 178 L 201.625 176 L 200 176 Z M 204.875 177 L 204.875 178 L 208.125 178 L 208.125 176 L 204.875 176 Z M 211.375 177 L 211.375 178 L 214.625 178 L 214.625 176 L 211.375 176 Z M 217.875 177 L 217.875 178 L 221.125 178 L 221.125 176 L 217.875 176 Z M 224.375 177 L 224.375 178 L 226 178 L 226 176 L 224.375 176 Z M 226 177 L 226 178 C 226.503 178 227.001 178.02 227.493 178.058 L 227.571 177.061 L 227.648 176.064 C 227.1 176.022 226.55 176 226 176 Z M 230.671 177.548 L 230.438 178.521 C 231.415 178.755 232.361 179.063 233.273 179.441 L 233.656 178.518 L 234.039 177.594 C 233.023 177.172 231.974 176.832 230.904 176.576 Z M 236.451 179.945 L 235.928 180.797 C 236.778 181.319 237.584 181.906 238.339 182.552 L 238.989 181.792 L 239.639 181.031 C 238.802 180.316 237.911 179.668 236.974 179.092 Z M 241.208 184.011 L 240.448 184.661 C 241.095 185.417 241.682 186.224 242.203 187.072 L 243.055 186.549 L 243.908 186.026 C 243.332 185.089 242.684 184.198 241.969 183.361 Z M 244.482 189.344 L 243.559 189.727 C 243.937 190.639 244.245 191.585 244.479 192.562 L 245.452 192.329 L 246.424 192.096 C 246.168 191.026 245.828 189.977 245.406 188.961 Z M 245.939 195.429 L 244.942 195.507 C 244.98 195.999 245 196.497 245 197 L 247 197 C 247 196.446 246.978 195.896 246.936 195.352 Z M 246 197 L 245 197 L 245 198.417 L 247 198.417 L 247 197 Z M 246 201.25 L 245 201.25 L 245 204.083 L 247 204.083 L 247 201.25 Z M 246 206.917 L 245 206.917 L 245 209.75 L 247 209.75 L 247 206.917 Z M 246 212.583 L 245 212.583 L 245 214 L 247 214 L 247 212.583 Z" fill="#D1D5DB"></path><path d="M 181 140 C 181 139.448 180.552 139 180 139 C 179.448 139 179 139.448 179 140 Z M 180 140 L 179 140 L 179 141.417 L 181 141.417 L 181 140 Z M 180 144.25 L 179 144.25 L 179 147.083 L 181 147.083 L 181 144.25 Z M 180 149.917 L 179 149.917 L 179 152.75 L 181 152.75 L 181 149.917 Z M 180 155.583 L 179 155.583 L 179 157 L 181 157 L 181 155.583 Z M 180 157 L 179 157 C 179 157.554 179.022 158.104 179.064 158.648 L 180.061 158.571 L 181.058 158.493 C 181.02 158.001 181 157.503 181 157 Z M 180.548 161.671 L 179.576 161.904 C 179.834 162.983 180.176 164.031 180.594 165.039 L 181.518 164.656 L 182.441 164.273 C 182.06 163.354 181.753 162.406 181.521 161.438 Z M 182.945 167.451 L 182.092 167.974 C 182.668 168.911 183.316 169.802 184.031 170.639 L 184.792 169.989 L 185.552 169.339 C 184.905 168.583 184.318 167.776 183.797 166.928 Z M 187.011 172.208 L 186.361 172.969 C 187.198 173.684 188.089 174.332 189.026 174.908 L 189.549 174.055 L 190.072 173.203 C 189.224 172.682 188.417 172.095 187.661 171.448 Z M 192.344 175.482 L 191.961 176.406 C 192.969 176.824 194.017 177.166 195.096 177.424 L 195.329 176.452 L 195.562 175.479 C 194.594 175.247 193.646 174.94 192.727 174.559 Z M 198.429 176.939 L 198.352 177.936 C 198.896 177.978 199.446 178 200 178 L 200 176 C 199.497 176 198.999 175.98 198.507 175.942 Z M 200 177 L 200 178 L 201.461 178 L 201.461 176 L 200 176 Z M 204.382 177 L 204.382 178 L 207.303 178 L 207.303 176 L 204.382 176 Z M 210.224 177 L 210.224 178 L 213.145 178 L 213.145 176 L 210.224 176 Z M 216.066 177 L 216.066 178 L 218.987 178 L 218.987 176 L 216.066 176 Z M 221.908 177 L 221.908 178 L 224.829 178 L 224.829 176 L 221.908 176 Z M 227.75 177 L 227.75 178 L 230.671 178 L 230.671 176 L 227.75 176 Z M 233.592 177 L 233.592 178 L 236.513 178 L 236.513 176 L 233.592 176 Z M 239.434 177 L 239.434 178 L 242.355 178 L 242.355 176 L 239.434 176 Z M 245.276 177 L 245.276 178 L 248.197 178 L 248.197 176 L 245.276 176 Z M 251.118 177 L 251.118 178 L 254.039 178 L 254.039 176 L 251.118 176 Z M 256.961 177 L 256.961 178 L 259.882 178 L 259.882 176 L 256.961 176 Z M 262.803 177 L 262.803 178 L 265.724 178 L 265.724 176 L 262.803 176 Z M 268.645 177 L 268.645 178 L 271.566 178 L 271.566 176 L 268.645 176 Z M 274.487 177 L 274.487 178 L 277.408 178 L 277.408 176 L 274.487 176 Z M 280.329 177 L 280.329 178 L 283.25 178 L 283.25 176 L 280.329 176 Z M 286.171 177 L 286.171 178 L 289.092 178 L 289.092 176 L 286.171 176 Z M 292.013 177 L 292.013 178 L 294.934 178 L 294.934 176 L 292.013 176 Z M 297.855 177 L 297.855 178 L 300.776 178 L 300.776 176 L 297.855 176 Z M 303.697 177 L 303.697 178 L 306.618 178 L 306.618 176 L 303.697 176 Z M 309.539 177 L 309.539 178 L 311 178 L 311 176 L 309.539 176 Z M 311 177 L 311 178 C 311.503 178 312.001 178.02 312.493 178.058 L 312.571 177.061 L 312.648 176.064 C 312.1 176.022 311.55 176 311 176 Z M 315.671 177.548 L 315.438 178.521 C 316.415 178.755 317.361 179.063 318.273 179.441 L 318.656 178.518 L 319.039 177.594 C 318.023 177.172 316.974 176.832 315.904 176.576 Z M 321.451 179.945 L 320.928 180.797 C 321.778 181.319 322.584 181.906 323.339 182.552 L 323.989 181.792 L 324.639 181.031 C 323.802 180.316 322.911 179.668 321.974 179.092 Z M 326.208 184.011 L 325.448 184.661 C 326.095 185.417 326.682 186.224 327.203 187.072 L 328.055 186.549 L 328.908 186.026 C 328.332 185.089 327.684 184.198 326.969 183.361 Z M 329.482 189.344 L 328.559 189.727 C 328.937 190.639 329.245 191.585 329.479 192.562 L 330.452 192.329 L 331.424 192.096 C 331.168 191.026 330.828 189.977 330.406 188.961 Z M 330.939 195.429 L 329.942 195.507 C 329.98 195.999 330 196.497 330 197 L 332 197 C 332 196.446 331.978 195.896 331.936 195.352 Z M 331 197 L 330 197 L 330 198.417 L 332 198.417 L 332 197 Z M 331 201.25 L 330 201.25 L 330 204.083 L 332 204.083 L 332 201.25 Z M 331 206.917 L 330 206.917 L 330 209.75 L 332 209.75 L 332 206.917 Z M 331 212.583 L 330 212.583 L 330 214 L 332 214 L 332 212.583 Z" fill="#D1D5DB"></path><path d="M 181 140 C 181 139.448 180.552 139 180 139 C 179.448 139 179 139.448 179 140 Z M 114 214 L 115 214 L 115 212.583 L 113 212.583 L 113 214 Z M 114 209.75 L 115 209.75 L 115 206.917 L 113 206.917 L 113 209.75 Z M 114 204.083 L 115 204.083 L 115 201.25 L 113 201.25 L 113 204.083 Z M 114 198.417 L 115 198.417 L 115 197 L 113 197 L 113 198.417 Z M 114 197 L 115 197 C 115 196.497 115.02 195.999 115.058 195.507 L 114.061 195.429 L 113.064 195.352 C 113.022 195.9 113 196.45 113 197 Z M 114.548 192.329 L 115.521 192.562 C 115.755 191.585 116.063 190.639 116.441 189.727 L 115.518 189.344 L 114.594 188.961 C 114.172 189.977 113.832 191.026 113.576 192.096 Z M 116.945 186.549 L 117.797 187.072 C 118.318 186.224 118.905 185.417 119.552 184.661 L 118.792 184.011 L 118.031 183.361 C 117.316 184.198 116.668 185.089 116.092 186.026 Z M 121.011 181.792 L 121.661 182.552 C 122.417 181.905 123.224 181.318 124.072 180.797 L 123.549 179.945 L 123.026 179.092 C 122.089 179.668 121.198 180.316 120.361 181.031 Z M 126.344 178.518 L 126.727 179.441 C 127.646 179.06 128.594 178.753 129.562 178.521 L 129.329 177.548 L 129.096 176.576 C 128.017 176.834 126.969 177.176 125.961 177.594 Z M 132.429 177.061 L 132.507 178.058 C 132.999 178.02 133.497 178 134 178 L 134 176 C 133.446 176 132.896 176.022 132.352 176.064 Z M 134 177 L 134 178 L 135.625 178 L 135.625 176 L 134 176 Z M 138.875 177 L 138.875 178 L 142.125 178 L 142.125 176 L 138.875 176 Z M 145.375 177 L 145.375 178 L 148.625 178 L 148.625 176 L 145.375 176 Z M 151.875 177 L 151.875 178 L 155.125 178 L 155.125 176 L 151.875 176 Z M 158.375 177 L 158.375 178 L 160 178 L 160 176 L 158.375 176 Z M 160 177 L 160 178 C 160.554 178 161.104 177.978 161.648 177.936 L 161.571 176.939 L 161.493 175.942 C 161.001 175.98 160.503 176 160 176 Z M 164.671 176.452 L 164.904 177.424 C 165.983 177.166 167.031 176.824 168.039 176.406 L 167.656 175.482 L 167.273 174.559 C 166.361 174.937 165.415 175.245 164.438 175.479 Z M 170.451 174.055 L 170.974 174.908 C 171.911 174.332 172.802 173.684 173.639 172.969 L 172.989 172.208 L 172.339 171.448 C 171.583 172.095 170.776 172.682 169.928 173.203 Z M 175.208 169.989 L 175.969 170.639 C 176.684 169.802 177.332 168.911 177.908 167.974 L 177.055 167.451 L 176.203 166.928 C 175.682 167.776 175.095 168.583 174.448 169.339 Z M 178.482 164.656 L 179.406 165.039 C 179.824 164.031 180.166 162.983 180.424 161.904 L 179.452 161.671 L 178.479 161.438 C 178.247 162.406 177.94 163.354 177.559 164.273 Z M 179.939 158.571 L 180.936 158.648 C 180.978 158.104 181 157.554 181 157 L 179 157 C 179 157.503 178.98 158.001 178.942 158.493 Z M 180 157 L 181 157 L 181 155.583 L 179 155.583 L 179 157 Z M 180 152.75 L 181 152.75 L 181 149.917 L 179 149.917 L 179 152.75 Z M 180 147.083 L 181 147.083 L 181 144.25 L 179 144.25 L 179 147.083 Z M 180 141.417 L 181 141.417 L 181 140 L 179 140 L 179 141.417 Z" fill="#D1D5DB"></path><path d="M 181 140 C 181 139.448 180.552 139 180 139 C 179.448 139 179 139.448 179 140 Z M 30 214 L 31 214 L 31 212.583 L 29 212.583 L 29 214 Z M 30 209.75 L 31 209.75 L 31 206.917 L 29 206.917 L 29 209.75 Z M 30 204.083 L 31 204.083 L 31 201.25 L 29 201.25 L 29 204.083 Z M 30 198.417 L 31 198.417 L 31 197 L 29 197 L 29 198.417 Z M 30 197 L 31 197 C 31 196.497 31.02 195.999 31.058 195.507 L 30.061 195.429 L 29.064 195.352 C 29.021 195.9 29 196.45 29 197 Z M 30.548 192.329 L 31.521 192.562 C 31.754 191.585 32.063 190.639 32.441 189.727 L 31.518 189.344 L 30.594 188.961 C 30.173 189.978 29.832 191.026 29.576 192.096 Z M 32.945 186.549 L 33.797 187.072 C 34.318 186.224 34.905 185.418 35.552 184.661 L 34.792 184.011 L 34.032 183.361 C 33.317 184.197 32.668 185.088 32.092 186.026 Z M 37.011 181.792 L 37.661 182.552 C 38.417 181.905 39.224 181.318 40.072 180.797 L 39.549 179.945 L 39.026 179.092 C 38.086 179.67 37.196 180.318 36.361 181.031 Z M 42.344 178.518 L 42.727 179.441 C 43.646 179.06 44.594 178.752 45.562 178.521 L 45.329 177.548 L 45.096 176.576 C 44.016 176.834 42.969 177.176 41.961 177.594 Z M 48.429 177.061 L 48.507 178.058 C 48.999 178.02 49.497 178 50 178 L 50 176 C 49.446 176 48.896 176.022 48.352 176.064 Z M 50 177 L 50 178 L 51.528 178 L 51.528 176 L 50 176 Z M 54.583 177 L 54.583 178 L 57.639 178 L 57.639 176 L 54.583 176 Z M 60.694 177 L 60.694 178 L 63.75 178 L 63.75 176 L 60.694 176 Z M 66.806 177 L 66.806 178 L 69.861 178 L 69.861 176 L 66.806 176 Z M 72.916 177 L 72.916 178 L 75.972 178 L 75.972 176 L 72.917 176 L 72.917 177 Z M 79.028 177 L 79.028 178 L 82.083 178 L 82.083 176 L 79.028 176 Z M 85.138 177 L 85.138 178 L 88.194 178 L 88.194 176 L 85.14 176 L 85.14 177 Z M 91.25 177 L 91.25 178 L 94.306 178 L 94.306 176 L 91.25 176 Z M 97.361 177 L 97.361 178 L 100.417 178 L 100.417 176 L 97.361 176 Z M 103.472 177 L 103.472 178 L 106.528 178 L 106.528 176 L 103.472 176 Z M 109.583 177 L 109.583 178 L 112.639 178 L 112.639 176 L 109.583 176 Z M 115.694 177 L 115.694 178 L 118.75 178 L 118.75 176 L 115.694 176 Z M 121.806 177 L 121.806 178 L 124.861 178 L 124.861 176 L 121.806 176 Z M 127.917 177 L 127.917 178 L 130.972 178 L 130.972 176 L 127.917 176 Z M 134.028 177 L 134.028 178 L 137.083 178 L 137.083 176 L 134.028 176 Z M 140.139 177 L 140.139 178 L 143.194 178 L 143.194 176 L 140.139 176 Z M 146.25 177 L 146.25 178 L 149.306 178 L 149.306 176 L 146.25 176 Z M 152.361 177 L 152.361 178 L 155.417 178 L 155.417 176 L 152.361 176 Z M 158.472 177 L 158.472 178 L 160 178 L 160 176 L 158.472 176 Z M 160 177 L 160 178 C 160.554 178 161.104 177.978 161.648 177.936 L 161.571 176.939 L 161.493 175.942 C 161.001 175.98 160.503 176 160 176 Z M 164.671 176.452 L 164.904 177.424 C 165.983 177.166 167.031 176.824 168.039 176.406 L 167.656 175.482 L 167.273 174.559 C 166.361 174.937 165.415 175.245 164.438 175.479 Z M 170.451 174.055 L 170.974 174.908 C 171.911 174.332 172.802 173.684 173.639 172.969 L 172.989 172.208 L 172.339 171.448 C 171.583 172.095 170.776 172.682 169.928 173.203 Z M 175.208 169.989 L 175.969 170.639 C 176.684 169.802 177.332 168.911 177.908 167.974 L 177.055 167.451 L 176.203 166.928 C 175.682 167.776 175.095 168.583 174.448 169.339 Z M 178.482 164.656 L 179.406 165.039 C 179.824 164.031 180.166 162.983 180.424 161.904 L 179.452 161.671 L 178.479 161.438 C 178.248 162.406 177.94 163.354 177.559 164.273 Z M 179.939 158.571 L 180.936 158.648 C 180.978 158.104 181 157.554 181 157 L 179 157 C 179 157.503 178.98 158.001 178.942 158.493 Z M 180 157 L 181 157 L 181 155.583 L 179 155.583 L 179 157 Z M 180 152.75 L 181 152.75 L 181 149.917 L 179 149.917 L 179 152.75 Z M 180 147.083 L 181 147.083 L 181 144.25 L 179 144.25 L 179 147.083 Z M 180 141.417 L 181 141.417 L 181 140 L 179 140 L 179 141.417 Z" fill="#D1D5DB"></path><g><defs><linearGradient id="svg94567095_25228_idsd4cL6j7bJ_35g-1724786936" x1="0" x2="1" y1="0.4975124378109453" y2="0.5024875621890547"><stop offset="0" stop-color="rgb(3,65,153)" stop-opacity="1"></stop><stop offset="1" stop-color="rgba(155,196,255,0)" stop-opacity="0"></stop></linearGradient><linearGradient id="svg94567095_25228_idsd4cL6j7bJ_35g-1724786936" x1="0" x2="1" y1="0.4975124378109453" y2="0.5024875621890547"><stop offset="0" stop-color="rgb(3,65,153)" stop-opacity="1"></stop><stop offset="1" stop-color="rgba(155,196,255,0)" stop-opacity="0"></stop></linearGradient><linearGradient id="svg94567095_25228_idsd4cL6j7bJ_36g-1724786936" x1="0" x2="1" y1="0.4975124378109453" y2="0.5024875621890547"><stop offset="0" stop-color="rgb(3,65,153)" stop-opacity="1"></stop><stop offset="1" stop-color="rgba(155,196,255,0)" stop-opacity="0"></stop></linearGradient></defs><path d="M 47.5 177.662 L 47.681 178.646 Z M 39.5 180.162 L 39.987 181.036 Z M 31.653 186.63 C 31.36 187.098 31.501 187.715 31.968 188.009 C 32.436 188.303 33.054 188.162 33.347 187.694 L 32.5 187.162 Z M 64.5 177.162 L 64.554 176.163 L 64.544 176.163 L 64.52 176.162 L 64.424 176.157 L 64.059 176.14 C 62.119 176.055 60.178 176.009 58.236 176.001 C 54.727 175.989 50.396 176.112 47.319 176.679 L 47.5 177.662 L 47.681 178.646 C 50.558 178.115 54.726 177.989 58.229 178.001 C 60.143 178.009 62.057 178.054 63.969 178.137 L 64.325 178.154 L 64.416 178.159 L 64.439 178.16 L 64.445 178.16 L 64.445 178.161 L 64.446 178.161 Z M 47.5 177.662 L 47.319 176.679 C 44.04 177.283 42.198 177.514 39.013 179.289 L 39.5 180.162 L 39.987 181.036 C 42.847 179.442 44.382 179.254 47.681 178.646 Z M 39.5 180.162 L 39.013 179.289 C 36.861 180.488 35.02 182.342 33.738 183.851 C 33.204 184.479 32.697 185.13 32.217 185.801 C 32.038 186.052 31.864 186.307 31.695 186.565 L 31.665 186.611 L 31.657 186.624 L 31.655 186.628 L 31.654 186.629 L 31.654 186.63 C 32.218 186.986 32.782 187.341 33.346 187.695 L 33.347 187.694 L 33.352 187.686 L 33.374 187.651 C 33.525 187.417 33.683 187.187 33.845 186.962 C 34.176 186.498 34.659 185.855 35.262 185.145 C 36.48 183.711 38.139 182.065 39.987 181.036 Z" fill="url(&quot;#svg94567095_25228_idsd4cL6j7bJ_35g-1724786936&quot;)"></path></g><g><defs><linearGradient id="svg94567095_25228_idsd4cL6j7bJ_36g-1724786936" x1="0" x2="1" y1="0.4975124378109453" y2="0.5024875621890547"><stop offset="0" stop-color="rgb(3,65,153)" stop-opacity="1"></stop><stop offset="1" stop-color="rgba(155,196,255,0)" stop-opacity="0"></stop></linearGradient></defs><path d="M 179.022 162.036 L 179.982 162.317 L 180.017 162.197 L 180.021 162.072 Z M 174.522 171.036 L 173.803 170.341 Z M 165.522 176.036 L 165.316 175.057 Z M 148.654 176.045 C 148.296 175.989 147.935 176.132 147.712 176.417 C 147.489 176.703 147.438 177.087 147.578 177.421 C 147.719 177.755 148.03 177.987 148.39 178.027 L 148.522 177.036 Z M 179.522 148.036 L 178.523 148 L 178.023 162 L 179.022 162.036 L 180.021 162.072 L 180.521 148.072 Z M 179.022 162.036 L 178.062 161.755 L 178.062 161.758 L 178.058 161.769 L 178.044 161.817 C 177.95 162.123 177.851 162.429 177.748 162.732 C 177.476 163.536 177.177 164.33 176.852 165.114 C 176.068 167.004 175.001 169.102 173.803 170.341 L 174.522 171.036 L 175.241 171.731 C 176.72 170.202 177.903 167.799 178.699 165.881 C 179.144 164.808 179.542 163.716 179.893 162.608 L 179.958 162.396 L 179.975 162.339 L 179.98 162.323 L 179.981 162.319 L 179.982 162.318 L 179.982 162.317 Z M 174.522 171.036 L 173.803 170.341 C 172.41 171.782 171.245 172.746 169.973 173.455 C 168.702 174.163 167.273 174.645 165.316 175.057 L 165.522 176.036 L 165.728 177.015 C 167.802 176.578 169.441 176.041 170.947 175.202 C 172.452 174.363 173.771 173.251 175.241 171.731 Z M 165.522 176.036 L 165.316 175.057 C 161.417 175.872 157.444 176.284 153.46 176.286 C 151.955 176.286 150.745 176.225 149.916 176.164 C 149.519 176.134 149.123 176.098 148.727 176.054 L 148.669 176.047 L 148.656 176.045 L 148.654 176.045 L 148.522 177.036 L 148.39 178.027 L 148.391 178.027 L 148.393 178.028 L 148.399 178.028 C 148.429 178.032 148.46 178.036 148.49 178.04 L 148.759 178.07 C 148.992 178.094 149.332 178.126 149.769 178.158 C 150.997 178.245 152.229 178.288 153.46 178.286 C 156.574 178.286 160.895 178.032 165.728 177.015 Z" fill="url(&quot;#svg94567095_25228_idsd4cL6j7bJ_36g-1724786936&quot;)"></path></g><path d="M 263 177 L 300.5 177" fill="#000000" stroke-width="2px" stroke="rgb(NaN,NaN,NaN)" stroke-linecap="round" stroke-miterlimit="10" stroke-dasharray="" fill-opacity="0"></path><path d="M 217 177 L 228 177 C 228 177 229.743 177.368 231.5 177.995 C 233.257 178.622 233 178.602 235.5 179.495 C 238 180.387 239.814 182.691 241.5 184.495 C 242.881 185.973 243.101 186.638 244 188.495 C 244.853 190.256 245.5 192.495 245.5 192.495" fill="#000000" stroke-width="2px" stroke="rgb(NaN,NaN,NaN)" stroke-linecap="round" stroke-miterlimit="10" stroke-dasharray="" fill-opacity="0"></path></g></svg>