<svg width="370" height="284" viewBox="0 0 370 284" fill="none" xmlns="http://www.w3.org/2000/svg">
<g filter="url(#filter0_ddi_893_113)">
<rect x="5" y="215" width="60" height="60" rx="30" fill="white"/>
<rect x="5.5" y="215.5" width="59" height="59" rx="29.5" stroke="#E5E7EB"/>
<g filter="url(#filter1_i_893_113)">
<path d="M29 239H29.01M29 251H29.01M27 235H43C44.1046 235 45 235.895 45 237V241C45 242.105 44.1046 243 43 243H27C25.8954 243 25 242.105 25 241V237C25 235.895 25.8954 235 27 235ZM27 247H43C44.1046 247 45 247.895 45 249V253C45 254.105 44.1046 255 43 255H27C25.8954 255 25 254.105 25 253V249C25 247.895 25.8954 247 27 247Z" stroke="#E5E7EB" stroke-width="2" stroke-linecap="round" stroke-linejoin="round"/>
</g>
</g>
<g filter="url(#filter2_ddi_893_113)">
<rect x="89" y="215" width="60" height="60" rx="30" fill="white"/>
<rect x="89.5" y="215.5" width="59" height="59" rx="29.5" stroke="#E5E7EB"/>
<g filter="url(#filter3_i_893_113)">
<path d="M119 252L115.03 254.38C114.719 254.567 114.363 254.666 114 254.666C113.637 254.666 113.281 254.567 112.97 254.38L109.97 252.58C109.675 252.403 109.43 252.152 109.26 251.853C109.09 251.553 109.001 251.215 109 250.87V247.63C109.001 247.286 109.09 246.947 109.26 246.648C109.43 246.348 109.675 246.097 109.97 245.92L114 243.5M119 252V246.5M119 252L122.97 254.38C123.281 254.567 123.637 254.666 124 254.666C124.363 254.666 124.719 254.567 125.03 254.38L128.03 252.58C128.325 252.403 128.57 252.152 128.74 251.853C128.91 251.553 128.999 251.215 129 250.87V247.63C128.999 247.286 128.91 246.947 128.74 246.648C128.57 246.348 128.325 246.097 128.03 245.92L124 243.5M119 246.5L114 243.5M119 246.5L114 249.5M119 246.5L124 243.5M119 246.5L124 249.5M119 246.5V241M114 243.5V239.13C114.001 238.786 114.09 238.447 114.26 238.148C114.43 237.848 114.675 237.597 114.97 237.42L117.97 235.62C118.281 235.433 118.637 235.334 119 235.334C119.363 235.334 119.719 235.433 120.03 235.62L123.03 237.42C123.325 237.597 123.57 237.848 123.74 238.148C123.91 238.447 123.999 238.786 124 239.13V243.5M114 249.5L109.26 246.65M114 249.5V254.67M124 249.5L128.74 246.65M124 249.5V254.67M119 241L114.26 238.15M119 241L123.74 238.15" stroke="#E5E7EB" stroke-width="2" stroke-linecap="round" stroke-linejoin="round"/>
</g>
</g>
<g filter="url(#filter4_ddi_893_113)">
<rect x="221" y="215" width="60" height="60" rx="30" fill="white"/>
<rect x="221.5" y="215.5" width="59" height="59" rx="29.5" stroke="#E5E7EB"/>
<g filter="url(#filter5_i_893_113)">
<path d="M243.93 237.93L248.17 242.17M253.83 242.17L258.07 237.93M253.83 247.83L258.07 252.07M248.17 247.83L243.93 252.07M261 245C261 250.523 256.523 255 251 255C245.477 255 241 250.523 241 245C241 239.477 245.477 235 251 235C256.523 235 261 239.477 261 245ZM255 245C255 247.209 253.209 249 251 249C248.791 249 247 247.209 247 245C247 242.791 248.791 241 251 241C253.209 241 255 242.791 255 245Z" stroke="#E5E7EB" stroke-width="2" stroke-linecap="round" stroke-linejoin="round"/>
</g>
</g>
<g filter="url(#filter6_ddi_893_113)">
<rect x="305" y="215" width="60" height="60" rx="30" fill="white"/>
<rect x="305.5" y="215.5" width="59" height="59" rx="29.5" stroke="#E5E7EB"/>
<g filter="url(#filter7_i_893_113)">
<path d="M334 250L336 252C336.197 252.197 336.431 252.353 336.688 252.46C336.946 252.566 337.221 252.621 337.5 252.621C337.779 252.621 338.054 252.566 338.312 252.46C338.569 252.353 338.803 252.197 339 252C339.197 251.803 339.353 251.569 339.46 251.312C339.566 251.054 339.621 250.779 339.621 250.5C339.621 250.221 339.566 249.946 339.46 249.688C339.353 249.431 339.197 249.197 339 249M337 247L339.5 249.5C339.898 249.898 340.437 250.121 341 250.121C341.563 250.121 342.102 249.898 342.5 249.5C342.898 249.102 343.121 248.563 343.121 248C343.121 247.437 342.898 246.898 342.5 246.5L338.62 242.62C338.057 242.058 337.295 241.743 336.5 241.743C335.705 241.743 334.943 242.058 334.38 242.62L333.5 243.5C333.102 243.898 332.563 244.121 332 244.121C331.437 244.121 330.898 243.898 330.5 243.5C330.102 243.102 329.879 242.563 329.879 242C329.879 241.437 330.102 240.898 330.5 240.5L333.31 237.69C334.222 236.78 335.412 236.201 336.691 236.043C337.969 235.885 339.264 236.159 340.37 236.82L340.84 237.1C341.266 237.357 341.772 237.446 342.26 237.35L344 237M344 236L345 247H343M326 236L325 247L331.5 253.5C331.898 253.898 332.437 254.121 333 254.121C333.563 254.121 334.102 253.898 334.5 253.5C334.898 253.102 335.121 252.563 335.121 252C335.121 251.437 334.898 250.898 334.5 250.5M326 237H334" stroke="#E5E7EB" stroke-width="2" stroke-linecap="round" stroke-linejoin="round"/>
</g>
</g>
<g filter="url(#filter8_d_893_113)">
<rect x="115" y="1" width="140" height="140" rx="20" fill="white"/>
<rect x="115.5" y="1.5" width="139" height="139" rx="19.5" stroke="#D1D5DB"/>
<rect x="123.5" y="9.5" width="123" height="123" rx="17.5" fill="white"/>
<rect x="123.5" y="9.5" width="123" height="123" rx="17.5" stroke="#D1D5DB" stroke-dasharray="6 6"/>
<g filter="url(#filter9_i_893_113)">
<path d="M167.754 89.5907C167.745 94.1686 169.363 98.596 172.311 102.062C172.74 102.557 173.189 103.034 173.66 103.494L173.691 103.52C176.838 106.524 180.906 108.341 185.216 108.667C189.525 108.993 193.814 107.809 197.366 105.312L215.929 90.7727C217.881 89.244 219.461 87.2818 220.548 85.0371C221.635 82.7924 222.201 80.3248 222.201 77.8239V60.2744L193.629 82.6525C191.924 83.942 189.969 84.8492 187.892 85.314C185.815 85.7787 183.665 85.7903 181.583 85.3484C179.502 84.9064 177.537 84.0206 175.818 82.7499C174.1 81.4791 172.668 79.8524 171.616 77.9776C169.103 81.3115 167.745 85.3939 167.754 89.5907Z" fill="#E5E7EB"/>
</g>
<g filter="url(#filter10_i_893_113)">
<path d="M201.397 51.5304C201.408 46.9521 199.79 42.5236 196.84 39.0587C196.411 38.5675 195.962 38.0904 195.491 37.6276H195.46C192.317 34.6199 188.251 32.7982 183.943 32.4672C179.634 32.1363 175.344 33.3162 171.79 35.8095L153.216 50.3484C151.265 51.8771 149.685 53.8392 148.597 56.084C147.51 58.3287 146.945 60.7962 146.945 63.2972V80.8466L175.527 58.4685C177.231 57.1792 179.187 56.272 181.263 55.8073C183.339 55.3425 185.489 55.3308 187.57 55.7729C189.651 56.2149 191.616 57.1007 193.334 58.3714C195.052 59.6421 196.484 61.2688 197.535 63.1434C200.048 59.8096 201.406 55.7272 201.397 51.5304Z" fill="#E5E7EB"/>
</g>
</g>
<path d="M186 141C186 140.448 185.552 140 185 140C184.448 140 184 140.448 184 141H185H186ZM185 141H184V142.417H185H186V141H185ZM185 145.25H184V148.083H185H186V145.25H185ZM185 150.917H184V153.75H185H186V150.917H185ZM185 156.583H184V158H185H186V156.583H185ZM185 158H184C184 158.554 184.022 159.104 184.064 159.648L185.061 159.571L186.058 159.493C186.02 159.001 186 158.503 186 158H185ZM185.548 162.671L184.576 162.904C184.834 163.983 185.176 165.031 185.594 166.039L186.518 165.656L187.441 165.273C187.063 164.361 186.755 163.415 186.521 162.438L185.548 162.671ZM187.945 168.451L187.092 168.974C187.67 169.914 188.318 170.805 189.031 171.639L189.792 170.989L190.552 170.339C189.906 169.584 189.319 168.778 188.797 167.928L187.945 168.451ZM192.011 173.208L191.361 173.969C192.195 174.682 193.086 175.33 194.026 175.908L194.549 175.055L195.072 174.203C194.222 173.681 193.416 173.094 192.661 172.448L192.011 173.208ZM197.344 176.482L196.961 177.406C197.969 177.824 199.017 178.166 200.096 178.424L200.329 177.452L200.562 176.479C199.585 176.245 198.639 175.937 197.727 175.559L197.344 176.482ZM203.429 177.939L203.352 178.936C203.896 178.978 204.446 179 205 179V178V177C204.497 177 203.999 176.98 203.507 176.942L203.429 177.939ZM205 178V179H206.625V178V177H205V178ZM209.875 178V179H213.125V178V177H209.875V178ZM216.375 178V179H219.625V178V177H216.375V178ZM222.875 178V179H226.125V178V177H222.875V178ZM229.375 178V179H231V178V177H229.375V178ZM231 178V179C231.503 179 232.001 179.02 232.493 179.058L232.571 178.061L232.648 177.064C232.104 177.022 231.554 177 231 177V178ZM235.671 178.548L235.438 179.521C236.415 179.755 237.361 180.063 238.273 180.441L238.656 179.518L239.039 178.594C238.031 178.176 236.983 177.834 235.904 177.576L235.671 178.548ZM241.451 180.945L240.928 181.797C241.778 182.319 242.584 182.906 243.339 183.552L243.989 182.792L244.639 182.031C243.805 181.318 242.914 180.67 241.974 180.092L241.451 180.945ZM246.208 185.011L245.448 185.661C246.094 186.416 246.681 187.222 247.203 188.072L248.055 187.549L248.908 187.026C248.33 186.086 247.682 185.195 246.969 184.361L246.208 185.011ZM249.482 190.344L248.559 190.727C248.937 191.639 249.245 192.585 249.479 193.562L250.452 193.329L251.424 193.096C251.166 192.017 250.824 190.969 250.406 189.961L249.482 190.344ZM250.939 196.429L249.942 196.507C249.98 196.999 250 197.497 250 198H251H252C252 197.446 251.978 196.896 251.936 196.352L250.939 196.429ZM251 198H250V199.417H251H252V198H251ZM251 202.25H250V205.083H251H252V202.25H251ZM251 207.917H250V210.75H251H252V207.917H251ZM251 213.583H250V215H251H252V213.583H251Z" fill="#D1D5DB"/>
<path d="M186 141C186 140.448 185.552 140 185 140C184.448 140 184 140.448 184 141H185H186ZM185 141H184V142.417H185H186V141H185ZM185 145.25H184V148.083H185H186V145.25H185ZM185 150.917H184V153.75H185H186V150.917H185ZM185 156.583H184V158H185H186V156.583H185ZM185 158H184C184 158.554 184.022 159.104 184.064 159.648L185.061 159.571L186.058 159.493C186.02 159.001 186 158.503 186 158H185ZM185.548 162.671L184.576 162.904C184.834 163.983 185.176 165.031 185.594 166.039L186.518 165.656L187.441 165.273C187.063 164.361 186.755 163.415 186.521 162.438L185.548 162.671ZM187.945 168.451L187.092 168.974C187.67 169.914 188.318 170.805 189.031 171.639L189.792 170.989L190.552 170.339C189.906 169.584 189.319 168.778 188.797 167.928L187.945 168.451ZM192.011 173.208L191.361 173.969C192.195 174.682 193.086 175.33 194.026 175.908L194.549 175.055L195.072 174.203C194.222 173.681 193.416 173.094 192.661 172.448L192.011 173.208ZM197.344 176.482L196.961 177.406C197.969 177.824 199.017 178.166 200.096 178.424L200.329 177.452L200.562 176.479C199.585 176.245 198.639 175.937 197.727 175.559L197.344 176.482ZM203.429 177.939L203.352 178.936C203.896 178.978 204.446 179 205 179V178V177C204.497 177 203.999 176.98 203.507 176.942L203.429 177.939ZM205 178V179H206.461V178V177H205V178ZM209.382 178V179H212.303V178V177H209.382V178ZM215.224 178V179H218.145V178V177H215.224V178ZM221.066 178V179H223.987V178V177H221.066V178ZM226.908 178V179H229.829V178V177H226.908V178ZM232.75 178V179H235.671V178V177H232.75V178ZM238.592 178V179H241.513V178V177H238.592V178ZM244.434 178V179H247.355V178V177H244.434V178ZM250.276 178V179H253.197V178V177H250.276V178ZM256.118 178V179H259.039V178V177H256.118V178ZM261.961 178V179H264.882V178V177H261.961V178ZM267.803 178V179H270.724V178V177H267.803V178ZM273.645 178V179H276.566V178V177H273.645V178ZM279.487 178V179H282.408V178V177H279.487V178ZM285.329 178V179H288.25V178V177H285.329V178ZM291.171 178V179H294.092V178V177H291.171V178ZM297.013 178V179H299.934V178V177H297.013V178ZM302.855 178V179H305.776V178V177H302.855V178ZM308.697 178V179H311.618V178V177H308.697V178ZM314.539 178V179H316V178V177H314.539V178ZM316 178V179C316.503 179 317.001 179.02 317.493 179.058L317.571 178.061L317.648 177.064C317.104 177.022 316.554 177 316 177V178ZM320.671 178.548L320.438 179.521C321.415 179.755 322.361 180.063 323.273 180.441L323.656 179.518L324.039 178.594C323.031 178.176 321.983 177.834 320.904 177.576L320.671 178.548ZM326.451 180.945L325.928 181.797C326.778 182.319 327.584 182.906 328.339 183.552L328.989 182.792L329.639 182.031C328.805 181.318 327.914 180.67 326.974 180.092L326.451 180.945ZM331.208 185.011L330.448 185.661C331.094 186.416 331.681 187.222 332.203 188.072L333.055 187.549L333.908 187.026C333.33 186.086 332.682 185.195 331.969 184.361L331.208 185.011ZM334.482 190.344L333.559 190.727C333.937 191.639 334.245 192.585 334.479 193.562L335.452 193.329L336.424 193.096C336.166 192.017 335.824 190.969 335.406 189.961L334.482 190.344ZM335.939 196.429L334.942 196.507C334.98 196.999 335 197.497 335 198H336H337C337 197.446 336.978 196.896 336.936 196.352L335.939 196.429ZM336 198H335V199.417H336H337V198H336ZM336 202.25H335V205.083H336H337V202.25H336ZM336 207.917H335V210.75H336H337V207.917H336ZM336 213.583H335V215H336H337V213.583H336Z" fill="#D1D5DB"/>
<path d="M186 141C186 140.448 185.552 140 185 140C184.448 140 184 140.448 184 141H185H186ZM119 215H120V213.583H119H118V215H119ZM119 210.75H120V207.917H119H118V210.75H119ZM119 205.083H120V202.25H119H118V205.083H119ZM119 199.417H120V198H119H118V199.417H119ZM119 198H120C120 197.497 120.02 196.999 120.058 196.507L119.061 196.429L118.064 196.352C118.022 196.896 118 197.446 118 198H119ZM119.548 193.329L120.521 193.562C120.755 192.585 121.063 191.639 121.441 190.727L120.518 190.344L119.594 189.961C119.176 190.969 118.834 192.017 118.576 193.096L119.548 193.329ZM121.945 187.549L122.797 188.072C123.319 187.222 123.906 186.416 124.552 185.661L123.792 185.011L123.031 184.361C122.318 185.195 121.67 186.086 121.092 187.026L121.945 187.549ZM126.011 182.792L126.661 183.552C127.416 182.906 128.222 182.319 129.072 181.797L128.549 180.945L128.026 180.092C127.086 180.67 126.195 181.318 125.361 182.031L126.011 182.792ZM131.344 179.518L131.727 180.441C132.639 180.063 133.585 179.755 134.562 179.521L134.329 178.548L134.096 177.576C133.017 177.834 131.969 178.176 130.961 178.594L131.344 179.518ZM137.429 178.061L137.507 179.058C137.999 179.02 138.497 179 139 179V178V177C138.446 177 137.896 177.022 137.352 177.064L137.429 178.061ZM139 178V179H140.625V178V177H139V178ZM143.875 178V179H147.125V178V177H143.875V178ZM150.375 178V179H153.625V178V177H150.375V178ZM156.875 178V179H160.125V178V177H156.875V178ZM163.375 178V179H165V178V177H163.375V178ZM165 178V179C165.554 179 166.104 178.978 166.648 178.936L166.571 177.939L166.493 176.942C166.001 176.98 165.503 177 165 177V178ZM169.671 177.452L169.904 178.424C170.983 178.166 172.031 177.824 173.039 177.406L172.656 176.482L172.273 175.559C171.361 175.937 170.415 176.245 169.438 176.479L169.671 177.452ZM175.451 175.055L175.974 175.908C176.914 175.33 177.805 174.682 178.639 173.969L177.989 173.208L177.339 172.448C176.584 173.094 175.778 173.681 174.928 174.203L175.451 175.055ZM180.208 170.989L180.969 171.639C181.682 170.805 182.33 169.914 182.908 168.974L182.055 168.451L181.203 167.928C180.681 168.778 180.094 169.584 179.448 170.339L180.208 170.989ZM183.482 165.656L184.406 166.039C184.824 165.031 185.166 163.983 185.424 162.904L184.452 162.671L183.479 162.438C183.245 163.415 182.937 164.361 182.559 165.273L183.482 165.656ZM184.939 159.571L185.936 159.648C185.978 159.104 186 158.554 186 158H185H184C184 158.503 183.98 159.001 183.942 159.493L184.939 159.571ZM185 158H186V156.583H185H184V158H185ZM185 153.75H186V150.917H185H184V153.75H185ZM185 148.083H186V145.25H185H184V148.083H185ZM185 142.417H186V141H185H184V142.417H185Z" fill="#D1D5DB"/>
<path d="M186 141C186 140.448 185.552 140 185 140C184.448 140 184 140.448 184 141H185H186ZM35 215H36V213.583H35H34V215H35ZM35 210.75H36V207.917H35H34V210.75H35ZM35 205.083H36V202.25H35H34V205.083H35ZM35 199.417H36V198H35H34V199.417H35ZM35 198H36C36 197.497 36.0195 196.999 36.0578 196.507L35.0608 196.429L34.0638 196.352C34.0215 196.896 34 197.446 34 198H35ZM35.5484 193.329L36.5209 193.562C36.7545 192.585 37.0635 191.639 37.4413 190.727L36.5176 190.344L35.5939 189.961C35.1759 190.969 34.8342 192.017 34.5758 193.096L35.5484 193.329ZM37.9446 187.549L38.7968 188.072C39.3189 187.222 39.9061 186.416 40.5516 185.661L39.7915 185.011L39.0314 184.361C38.3184 185.195 37.6695 186.086 37.0925 187.026L37.9446 187.549ZM42.0109 182.792L42.6607 183.552C43.4157 182.906 44.2219 182.319 45.0721 181.797L44.5488 180.945L44.0255 180.092C43.0858 180.67 42.1951 181.318 41.3611 182.031L42.0109 182.792ZM47.3442 179.518L47.7273 180.441C48.6385 180.063 49.5855 179.755 50.5618 179.521L50.3291 178.548L50.0964 177.576C49.0165 177.834 47.969 178.176 46.9612 178.594L47.3442 179.518ZM53.4293 178.061L53.5067 179.058C53.9993 179.02 54.4973 179 55 179V178V177C54.4455 177 53.8958 177.022 53.3518 177.064L53.4293 178.061ZM55 178V179H56.5278V178V177H55V178ZM59.5833 178V179H62.6389V178V177H59.5833V178ZM65.6944 178V179H68.75V178V177H65.6944V178ZM71.8056 178V179H74.8611V178V177H71.8056V178ZM77.9167 178V179H80.9722V178V177H77.9167V178ZM84.0278 178V179H87.0833V178V177H84.0278V178ZM90.1389 178V179H93.1944V178V177H90.1389V178ZM96.25 178V179H99.3056V178V177H96.25V178ZM102.361 178V179H105.417V178V177H102.361V178ZM108.472 178V179H111.528V178V177H108.472V178ZM114.583 178V179H117.639V178V177H114.583V178ZM120.694 178V179H123.75V178V177H120.694V178ZM126.806 178V179H129.861V178V177H126.806V178ZM132.917 178V179H135.972V178V177H132.917V178ZM139.028 178V179H142.083V178V177H139.028V178ZM145.139 178V179H148.194V178V177H145.139V178ZM151.25 178V179H154.306V178V177H151.25V178ZM157.361 178V179H160.417V178V177H157.361V178ZM163.472 178V179H165V178V177H163.472V178ZM165 178V179C165.554 179 166.104 178.978 166.648 178.936L166.571 177.939L166.493 176.942C166.001 176.98 165.503 177 165 177V178ZM169.671 177.452L169.904 178.424C170.983 178.166 172.031 177.824 173.039 177.406L172.656 176.482L172.273 175.559C171.361 175.937 170.415 176.245 169.438 176.479L169.671 177.452ZM175.451 175.055L175.974 175.908C176.914 175.33 177.805 174.682 178.639 173.969L177.989 173.208L177.339 172.448C176.584 173.094 175.778 173.681 174.928 174.203L175.451 175.055ZM180.208 170.989L180.969 171.639C181.682 170.805 182.33 169.914 182.908 168.974L182.055 168.451L181.203 167.928C180.681 168.778 180.094 169.584 179.448 170.339L180.208 170.989ZM183.482 165.656L184.406 166.039C184.824 165.031 185.166 163.983 185.424 162.904L184.452 162.671L183.479 162.438C183.245 163.415 182.937 164.361 182.559 165.273L183.482 165.656ZM184.939 159.571L185.936 159.648C185.978 159.104 186 158.554 186 158H185H184C184 158.503 183.98 159.001 183.942 159.493L184.939 159.571ZM185 158H186V156.583H185H184V158H185ZM185 153.75H186V150.917H185H184V153.75H185ZM185 148.083H186V145.25H185H184V148.083H185ZM185 142.417H186V141H185H184V142.417H185Z" fill="#D1D5DB"/>
<path d="M52.5 178.5L52.6813 179.484L52.5 178.5ZM44.5 181L44.9867 181.874L44.5 181ZM36.6534 187.468C36.3595 187.935 36.5002 188.553 36.9677 188.847C37.4352 189.141 38.0526 189 38.3466 188.532L37.5 188L36.6534 187.468ZM69.5 178C69.554 177.001 69.5539 177.001 69.5537 177.001C69.5536 177.001 69.5534 177.001 69.5532 177.001C69.5528 177.001 69.5522 177.001 69.5514 177.001C69.5499 177.001 69.5478 177.001 69.5449 177.001C69.5392 177.001 69.5309 177 69.52 177C69.4983 176.999 69.4662 176.997 69.4243 176.995C69.3404 176.991 69.2173 176.985 69.0589 176.978C68.742 176.963 68.2836 176.944 67.7152 176.924C66.579 176.885 65.0015 176.845 63.2358 176.839C59.7272 176.827 55.3951 176.95 52.3187 177.517L52.5 178.5L52.6813 179.484C55.5578 178.953 59.7256 178.827 63.2289 178.839C64.9691 178.845 66.5253 178.885 67.6465 178.923C68.2069 178.943 68.658 178.961 68.9685 178.975C69.1238 178.982 69.2438 178.988 69.3247 178.992C69.3652 178.994 69.3958 178.996 69.4162 178.997C69.4264 178.998 69.434 178.998 69.439 178.998C69.4415 178.998 69.4433 178.998 69.4445 178.998C69.4451 178.998 69.4455 178.999 69.4458 178.999C69.4459 178.999 69.446 178.999 69.446 178.999C69.4461 178.999 69.446 178.999 69.5 178ZM52.5 178.5L52.3187 177.517C49.0404 178.121 47.1977 178.352 44.0133 180.127L44.5 181L44.9867 181.874C47.8473 180.28 49.3817 180.092 52.6813 179.484L52.5 178.5ZM44.5 181L44.0133 180.127C41.8609 181.326 40.0197 183.18 38.7379 184.689C38.091 185.45 37.5737 186.139 37.217 186.639C37.0385 186.89 36.8997 187.093 36.8046 187.236C36.757 187.308 36.7203 187.364 36.6949 187.403C36.6823 187.423 36.6724 187.438 36.6655 187.449C36.662 187.454 36.6593 187.459 36.6573 187.462C36.6563 187.463 36.6554 187.465 36.6548 187.466C36.6545 187.466 36.6542 187.467 36.654 187.467C36.6539 187.467 36.6537 187.467 36.6537 187.468C36.6536 187.468 36.6534 187.468 37.5 188C38.3466 188.532 38.3465 188.533 38.3464 188.533C38.3464 188.533 38.3463 188.533 38.3463 188.533C38.3462 188.533 38.3462 188.533 38.3463 188.533C38.3464 188.533 38.3467 188.532 38.3471 188.532C38.348 188.53 38.3496 188.528 38.352 188.524C38.3566 188.517 38.3641 188.505 38.3744 188.489C38.395 188.457 38.4266 188.409 38.4689 188.345C38.5534 188.218 38.6803 188.032 38.8455 187.8C39.1763 187.336 39.659 186.693 40.2621 185.983C41.4803 184.549 43.1391 182.903 44.9867 181.874L44.5 181Z" fill="url(#paint0_linear_893_113)"/>
<path d="M184 163L184.96 163.281L184.995 163.161L184.999 163.036L184 163ZM179.5 172L178.781 171.305V171.305L179.5 172ZM170.5 177L170.294 176.021L170.5 177ZM153.632 177.009C153.085 176.936 152.582 177.32 152.509 177.868C152.436 178.415 152.82 178.918 153.368 178.991L153.5 178L153.632 177.009ZM184.5 149L183.501 148.964L183.001 162.964L184 163L184.999 163.036L185.499 149.036L184.5 149ZM184 163C183.04 162.719 183.04 162.719 183.04 162.719C183.04 162.719 183.04 162.719 183.04 162.719C183.04 162.719 183.04 162.719 183.04 162.719C183.04 162.72 183.04 162.72 183.04 162.722C183.039 162.724 183.038 162.728 183.036 162.733C183.033 162.743 183.028 162.76 183.022 162.781C183.009 162.825 182.989 162.89 182.962 162.974C182.909 163.143 182.83 163.39 182.726 163.696C182.519 164.308 182.215 165.152 181.83 166.078C181.046 167.968 179.979 170.066 178.781 171.305L179.5 172L180.219 172.695C181.698 171.166 182.881 168.763 183.677 166.845C184.083 165.868 184.402 164.981 184.62 164.338C184.729 164.016 184.814 163.755 184.871 163.572C184.899 163.481 184.921 163.409 184.936 163.36C184.944 163.335 184.949 163.316 184.953 163.303C184.955 163.296 184.957 163.291 184.958 163.287C184.958 163.286 184.959 163.284 184.959 163.283C184.959 163.282 184.959 163.282 184.96 163.282C184.96 163.281 184.96 163.281 184.96 163.281C184.96 163.281 184.96 163.281 184 163ZM179.5 172L178.781 171.305C177.388 172.746 176.223 173.71 174.951 174.419C173.68 175.127 172.251 175.609 170.294 176.021L170.5 177L170.706 177.979C172.78 177.542 174.419 177.005 175.925 176.166C177.43 175.327 178.749 174.215 180.219 172.695L179.5 172ZM170.5 177L170.294 176.021C165.627 177.004 161.448 177.25 158.438 177.25C156.933 177.25 155.723 177.189 154.894 177.128C154.479 177.097 154.159 177.067 153.945 177.045C153.838 177.033 153.758 177.024 153.705 177.018C153.679 177.015 153.659 177.012 153.647 177.011C153.641 177.01 153.637 177.009 153.634 177.009C153.633 177.009 153.632 177.009 153.632 177.009C153.632 177.009 153.632 177.009 153.632 177.009C153.632 177.009 153.632 177.009 153.632 177.009C153.632 177.009 153.632 177.009 153.5 178C153.368 178.991 153.368 178.991 153.368 178.991C153.368 178.991 153.369 178.991 153.369 178.991C153.37 178.991 153.37 178.992 153.371 178.992C153.372 178.992 153.374 178.992 153.377 178.992C153.381 178.993 153.388 178.994 153.396 178.995C153.413 178.997 153.437 179 153.468 179.004C153.53 179.011 153.62 179.021 153.737 179.034C153.97 179.058 154.31 179.09 154.747 179.122C155.62 179.186 156.879 179.25 158.438 179.25C161.552 179.25 165.873 178.996 170.706 177.979L170.5 177Z" fill="url(#paint1_linear_893_113)"/>
<path d="M268 178H305.5" stroke="url(#paint2_linear_893_113)" stroke-width="2" stroke-linecap="round"/>
<path d="M222 178.005L233 178.005C233 178.005 234.743 178.373 236.5 179C238.257 179.627 238 179.607 240.5 180.5C243 181.392 244.814 183.696 246.5 185.5C247.881 186.978 248.101 187.643 249 189.5C249.853 191.261 250.5 193.5 250.5 193.5" stroke="url(#paint3_linear_893_113)" stroke-width="2" stroke-linecap="round"/>
<defs>
<filter id="filter0_ddi_893_113" x="0" y="214" width="70" height="70" filterUnits="userSpaceOnUse" color-interpolation-filters="sRGB">
<feFlood flood-opacity="0" result="BackgroundImageFix"/>
<feColorMatrix in="SourceAlpha" type="matrix" values="0 0 0 0 0 0 0 0 0 0 0 0 0 0 0 0 0 0 127 0" result="hardAlpha"/>
<feMorphology radius="1" operator="erode" in="SourceAlpha" result="effect1_dropShadow_893_113"/>
<feOffset dy="4"/>
<feGaussianBlur stdDeviation="3"/>
<feComposite in2="hardAlpha" operator="out"/>
<feColorMatrix type="matrix" values="0 0 0 0 0 0 0 0 0 0 0 0 0 0 0 0 0 0 0.1 0"/>
<feBlend mode="normal" in2="BackgroundImageFix" result="effect1_dropShadow_893_113"/>
<feColorMatrix in="SourceAlpha" type="matrix" values="0 0 0 0 0 0 0 0 0 0 0 0 0 0 0 0 0 0 127 0" result="hardAlpha"/>
<feMorphology radius="2" operator="erode" in="SourceAlpha" result="effect2_dropShadow_893_113"/>
<feOffset dy="2"/>
<feGaussianBlur stdDeviation="2"/>
<feComposite in2="hardAlpha" operator="out"/>
<feColorMatrix type="matrix" values="0 0 0 0 0 0 0 0 0 0 0 0 0 0 0 0 0 0 0.1 0"/>
<feBlend mode="normal" in2="effect1_dropShadow_893_113" result="effect2_dropShadow_893_113"/>
<feBlend mode="normal" in="SourceGraphic" in2="effect2_dropShadow_893_113" result="shape"/>
<feColorMatrix in="SourceAlpha" type="matrix" values="0 0 0 0 0 0 0 0 0 0 0 0 0 0 0 0 0 0 127 0" result="hardAlpha"/>
<feMorphology radius="1" operator="dilate" in="SourceAlpha" result="effect3_innerShadow_893_113"/>
<feOffset dy="-5"/>
<feGaussianBlur stdDeviation="0.5"/>
<feComposite in2="hardAlpha" operator="arithmetic" k2="-1" k3="1"/>
<feColorMatrix type="matrix" values="0 0 0 0 0 0 0 0 0 0 0 0 0 0 0 0 0 0 0.05 0"/>
<feBlend mode="normal" in2="shape" result="effect3_innerShadow_893_113"/>
</filter>
<filter id="filter1_i_893_113" x="24" y="234" width="22" height="24" filterUnits="userSpaceOnUse" color-interpolation-filters="sRGB">
<feFlood flood-opacity="0" result="BackgroundImageFix"/>
<feBlend mode="normal" in="SourceGraphic" in2="BackgroundImageFix" result="shape"/>
<feColorMatrix in="SourceAlpha" type="matrix" values="0 0 0 0 0 0 0 0 0 0 0 0 0 0 0 0 0 0 127 0" result="hardAlpha"/>
<feOffset dy="2"/>
<feGaussianBlur stdDeviation="1.4"/>
<feComposite in2="hardAlpha" operator="arithmetic" k2="-1" k3="1"/>
<feColorMatrix type="matrix" values="0 0 0 0 0 0 0 0 0 0 0 0 0 0 0 0 0 0 0.08 0"/>
<feBlend mode="normal" in2="shape" result="effect1_innerShadow_893_113"/>
</filter>
<filter id="filter2_ddi_893_113" x="84" y="214" width="70" height="70" filterUnits="userSpaceOnUse" color-interpolation-filters="sRGB">
<feFlood flood-opacity="0" result="BackgroundImageFix"/>
<feColorMatrix in="SourceAlpha" type="matrix" values="0 0 0 0 0 0 0 0 0 0 0 0 0 0 0 0 0 0 127 0" result="hardAlpha"/>
<feMorphology radius="1" operator="erode" in="SourceAlpha" result="effect1_dropShadow_893_113"/>
<feOffset dy="4"/>
<feGaussianBlur stdDeviation="3"/>
<feComposite in2="hardAlpha" operator="out"/>
<feColorMatrix type="matrix" values="0 0 0 0 0 0 0 0 0 0 0 0 0 0 0 0 0 0 0.1 0"/>
<feBlend mode="normal" in2="BackgroundImageFix" result="effect1_dropShadow_893_113"/>
<feColorMatrix in="SourceAlpha" type="matrix" values="0 0 0 0 0 0 0 0 0 0 0 0 0 0 0 0 0 0 127 0" result="hardAlpha"/>
<feMorphology radius="2" operator="erode" in="SourceAlpha" result="effect2_dropShadow_893_113"/>
<feOffset dy="2"/>
<feGaussianBlur stdDeviation="2"/>
<feComposite in2="hardAlpha" operator="out"/>
<feColorMatrix type="matrix" values="0 0 0 0 0 0 0 0 0 0 0 0 0 0 0 0 0 0 0.1 0"/>
<feBlend mode="normal" in2="effect1_dropShadow_893_113" result="effect2_dropShadow_893_113"/>
<feBlend mode="normal" in="SourceGraphic" in2="effect2_dropShadow_893_113" result="shape"/>
<feColorMatrix in="SourceAlpha" type="matrix" values="0 0 0 0 0 0 0 0 0 0 0 0 0 0 0 0 0 0 127 0" result="hardAlpha"/>
<feMorphology radius="1" operator="dilate" in="SourceAlpha" result="effect3_innerShadow_893_113"/>
<feOffset dy="-5"/>
<feGaussianBlur stdDeviation="0.5"/>
<feComposite in2="hardAlpha" operator="arithmetic" k2="-1" k3="1"/>
<feColorMatrix type="matrix" values="0 0 0 0 0 0 0 0 0 0 0 0 0 0 0 0 0 0 0.05 0"/>
<feBlend mode="normal" in2="shape" result="effect3_innerShadow_893_113"/>
</filter>
<filter id="filter3_i_893_113" x="108" y="234.334" width="22" height="23.3357" filterUnits="userSpaceOnUse" color-interpolation-filters="sRGB">
<feFlood flood-opacity="0" result="BackgroundImageFix"/>
<feBlend mode="normal" in="SourceGraphic" in2="BackgroundImageFix" result="shape"/>
<feColorMatrix in="SourceAlpha" type="matrix" values="0 0 0 0 0 0 0 0 0 0 0 0 0 0 0 0 0 0 127 0" result="hardAlpha"/>
<feOffset dy="2"/>
<feGaussianBlur stdDeviation="1.4"/>
<feComposite in2="hardAlpha" operator="arithmetic" k2="-1" k3="1"/>
<feColorMatrix type="matrix" values="0 0 0 0 0 0 0 0 0 0 0 0 0 0 0 0 0 0 0.08 0"/>
<feBlend mode="normal" in2="shape" result="effect1_innerShadow_893_113"/>
</filter>
<filter id="filter4_ddi_893_113" x="216" y="214" width="70" height="70" filterUnits="userSpaceOnUse" color-interpolation-filters="sRGB">
<feFlood flood-opacity="0" result="BackgroundImageFix"/>
<feColorMatrix in="SourceAlpha" type="matrix" values="0 0 0 0 0 0 0 0 0 0 0 0 0 0 0 0 0 0 127 0" result="hardAlpha"/>
<feMorphology radius="1" operator="erode" in="SourceAlpha" result="effect1_dropShadow_893_113"/>
<feOffset dy="4"/>
<feGaussianBlur stdDeviation="3"/>
<feComposite in2="hardAlpha" operator="out"/>
<feColorMatrix type="matrix" values="0 0 0 0 0 0 0 0 0 0 0 0 0 0 0 0 0 0 0.1 0"/>
<feBlend mode="normal" in2="BackgroundImageFix" result="effect1_dropShadow_893_113"/>
<feColorMatrix in="SourceAlpha" type="matrix" values="0 0 0 0 0 0 0 0 0 0 0 0 0 0 0 0 0 0 127 0" result="hardAlpha"/>
<feMorphology radius="2" operator="erode" in="SourceAlpha" result="effect2_dropShadow_893_113"/>
<feOffset dy="2"/>
<feGaussianBlur stdDeviation="2"/>
<feComposite in2="hardAlpha" operator="out"/>
<feColorMatrix type="matrix" values="0 0 0 0 0 0 0 0 0 0 0 0 0 0 0 0 0 0 0.1 0"/>
<feBlend mode="normal" in2="effect1_dropShadow_893_113" result="effect2_dropShadow_893_113"/>
<feBlend mode="normal" in="SourceGraphic" in2="effect2_dropShadow_893_113" result="shape"/>
<feColorMatrix in="SourceAlpha" type="matrix" values="0 0 0 0 0 0 0 0 0 0 0 0 0 0 0 0 0 0 127 0" result="hardAlpha"/>
<feMorphology radius="1" operator="dilate" in="SourceAlpha" result="effect3_innerShadow_893_113"/>
<feOffset dy="-5"/>
<feGaussianBlur stdDeviation="0.5"/>
<feComposite in2="hardAlpha" operator="arithmetic" k2="-1" k3="1"/>
<feColorMatrix type="matrix" values="0 0 0 0 0 0 0 0 0 0 0 0 0 0 0 0 0 0 0.05 0"/>
<feBlend mode="normal" in2="shape" result="effect3_innerShadow_893_113"/>
</filter>
<filter id="filter5_i_893_113" x="240" y="234" width="22" height="24" filterUnits="userSpaceOnUse" color-interpolation-filters="sRGB">
<feFlood flood-opacity="0" result="BackgroundImageFix"/>
<feBlend mode="normal" in="SourceGraphic" in2="BackgroundImageFix" result="shape"/>
<feColorMatrix in="SourceAlpha" type="matrix" values="0 0 0 0 0 0 0 0 0 0 0 0 0 0 0 0 0 0 127 0" result="hardAlpha"/>
<feOffset dy="2"/>
<feGaussianBlur stdDeviation="1.4"/>
<feComposite in2="hardAlpha" operator="arithmetic" k2="-1" k3="1"/>
<feColorMatrix type="matrix" values="0 0 0 0 0 0 0 0 0 0 0 0 0 0 0 0 0 0 0.08 0"/>
<feBlend mode="normal" in2="shape" result="effect1_innerShadow_893_113"/>
</filter>
<filter id="filter6_ddi_893_113" x="300" y="214" width="70" height="70" filterUnits="userSpaceOnUse" color-interpolation-filters="sRGB">
<feFlood flood-opacity="0" result="BackgroundImageFix"/>
<feColorMatrix in="SourceAlpha" type="matrix" values="0 0 0 0 0 0 0 0 0 0 0 0 0 0 0 0 0 0 127 0" result="hardAlpha"/>
<feMorphology radius="1" operator="erode" in="SourceAlpha" result="effect1_dropShadow_893_113"/>
<feOffset dy="4"/>
<feGaussianBlur stdDeviation="3"/>
<feComposite in2="hardAlpha" operator="out"/>
<feColorMatrix type="matrix" values="0 0 0 0 0 0 0 0 0 0 0 0 0 0 0 0 0 0 0.1 0"/>
<feBlend mode="normal" in2="BackgroundImageFix" result="effect1_dropShadow_893_113"/>
<feColorMatrix in="SourceAlpha" type="matrix" values="0 0 0 0 0 0 0 0 0 0 0 0 0 0 0 0 0 0 127 0" result="hardAlpha"/>
<feMorphology radius="2" operator="erode" in="SourceAlpha" result="effect2_dropShadow_893_113"/>
<feOffset dy="2"/>
<feGaussianBlur stdDeviation="2"/>
<feComposite in2="hardAlpha" operator="out"/>
<feColorMatrix type="matrix" values="0 0 0 0 0 0 0 0 0 0 0 0 0 0 0 0 0 0 0.1 0"/>
<feBlend mode="normal" in2="effect1_dropShadow_893_113" result="effect2_dropShadow_893_113"/>
<feBlend mode="normal" in="SourceGraphic" in2="effect2_dropShadow_893_113" result="shape"/>
<feColorMatrix in="SourceAlpha" type="matrix" values="0 0 0 0 0 0 0 0 0 0 0 0 0 0 0 0 0 0 127 0" result="hardAlpha"/>
<feMorphology radius="1" operator="dilate" in="SourceAlpha" result="effect3_innerShadow_893_113"/>
<feOffset dy="-5"/>
<feGaussianBlur stdDeviation="0.5"/>
<feComposite in2="hardAlpha" operator="arithmetic" k2="-1" k3="1"/>
<feColorMatrix type="matrix" values="0 0 0 0 0 0 0 0 0 0 0 0 0 0 0 0 0 0 0.05 0"/>
<feBlend mode="normal" in2="shape" result="effect3_innerShadow_893_113"/>
</filter>
<filter id="filter7_i_893_113" x="324" y="235" width="22" height="22.1218" filterUnits="userSpaceOnUse" color-interpolation-filters="sRGB">
<feFlood flood-opacity="0" result="BackgroundImageFix"/>
<feBlend mode="normal" in="SourceGraphic" in2="BackgroundImageFix" result="shape"/>
<feColorMatrix in="SourceAlpha" type="matrix" values="0 0 0 0 0 0 0 0 0 0 0 0 0 0 0 0 0 0 127 0" result="hardAlpha"/>
<feOffset dy="2"/>
<feGaussianBlur stdDeviation="1.4"/>
<feComposite in2="hardAlpha" operator="arithmetic" k2="-1" k3="1"/>
<feColorMatrix type="matrix" values="0 0 0 0 0 0 0 0 0 0 0 0 0 0 0 0 0 0 0.08 0"/>
<feBlend mode="normal" in2="shape" result="effect1_innerShadow_893_113"/>
</filter>
<filter id="filter8_d_893_113" x="113" y="0" width="144" height="144" filterUnits="userSpaceOnUse" color-interpolation-filters="sRGB">
<feFlood flood-opacity="0" result="BackgroundImageFix"/>
<feColorMatrix in="SourceAlpha" type="matrix" values="0 0 0 0 0 0 0 0 0 0 0 0 0 0 0 0 0 0 127 0" result="hardAlpha"/>
<feOffset dy="1"/>
<feGaussianBlur stdDeviation="1"/>
<feComposite in2="hardAlpha" operator="out"/>
<feColorMatrix type="matrix" values="0 0 0 0 0 0 0 0 0 0 0 0 0 0 0 0 0 0 0.05 0"/>
<feBlend mode="normal" in2="BackgroundImageFix" result="effect1_dropShadow_893_113"/>
<feBlend mode="normal" in="SourceGraphic" in2="effect1_dropShadow_893_113" result="shape"/>
</filter>
<filter id="filter9_i_893_113" x="167.754" y="60.2744" width="54.4468" height="50.4458" filterUnits="userSpaceOnUse" color-interpolation-filters="sRGB">
<feFlood flood-opacity="0" result="BackgroundImageFix"/>
<feBlend mode="normal" in="SourceGraphic" in2="BackgroundImageFix" result="shape"/>
<feColorMatrix in="SourceAlpha" type="matrix" values="0 0 0 0 0 0 0 0 0 0 0 0 0 0 0 0 0 0 127 0" result="hardAlpha"/>
<feOffset dy="2"/>
<feGaussianBlur stdDeviation="1.4"/>
<feComposite in2="hardAlpha" operator="arithmetic" k2="-1" k3="1"/>
<feColorMatrix type="matrix" values="0 0 0 0 0 0 0 0 0 0 0 0 0 0 0 0 0 0 0.08 0"/>
<feBlend mode="normal" in2="shape" result="effect1_innerShadow_893_113"/>
</filter>
<filter id="filter10_i_893_113" x="146.945" y="32.4126" width="54.4521" height="50.4341" filterUnits="userSpaceOnUse" color-interpolation-filters="sRGB">
<feFlood flood-opacity="0" result="BackgroundImageFix"/>
<feBlend mode="normal" in="SourceGraphic" in2="BackgroundImageFix" result="shape"/>
<feColorMatrix in="SourceAlpha" type="matrix" values="0 0 0 0 0 0 0 0 0 0 0 0 0 0 0 0 0 0 127 0" result="hardAlpha"/>
<feOffset dy="2"/>
<feGaussianBlur stdDeviation="1.4"/>
<feComposite in2="hardAlpha" operator="arithmetic" k2="-1" k3="1"/>
<feColorMatrix type="matrix" values="0 0 0 0 0 0 0 0 0 0 0 0 0 0 0 0 0 0 0.08 0"/>
<feBlend mode="normal" in2="shape" result="effect1_innerShadow_893_113"/>
</filter>
<linearGradient id="paint0_linear_893_113" x1="37.5" y1="182.919" x2="69.5" y2="182.919" gradientUnits="userSpaceOnUse">
<stop stop-color="#034199"/>
<stop offset="1" stop-color="#9BC4FF" stop-opacity="0"/>
</linearGradient>
<linearGradient id="paint1_linear_893_113" x1="154" y1="163.77" x2="184.5" y2="163.77" gradientUnits="userSpaceOnUse">
<stop stop-color="#034199"/>
<stop offset="1" stop-color="#9BC4FF" stop-opacity="0"/>
</linearGradient>
<linearGradient id="paint2_linear_893_113" x1="268.605" y1="178.505" x2="305.5" y2="178.505" gradientUnits="userSpaceOnUse">
<stop stop-color="#9BC4FF" stop-opacity="0"/>
<stop offset="1" stop-color="#034199"/>
</linearGradient>
<linearGradient id="paint3_linear_893_113" x1="222.468" y1="185.574" x2="251" y2="185.574" gradientUnits="userSpaceOnUse">
<stop stop-color="#9BC4FF" stop-opacity="0"/>
<stop offset="1" stop-color="#034199"/>
</linearGradient>
</defs>
</svg>
