<svg xmlns="http://www.w3.org/2000/svg" xmlns:xlink="http://www.w3.org/1999/xlink" viewBox="0 0 906 564"><path d="M 488.1 67.576 L 46.325 322.635 M 534.425 94.322 L 92.65 349.381 M 580.75 121.068 L 138.975 376.127 M 627.075 147.813 L 185.299 402.872 M 673.4 174.559 L 231.624 429.618 M 719.725 201.305 L 277.949 456.364 M 766.049 228.05 L 324.274 483.109 M 812.374 254.796 L 370.599 509.855 M 858.699 281.542 L 416.924 536.601 M 397.598 66.336 L 860.847 333.793 M 353.42 91.842 L 816.669 359.299 M 309.243 117.348 L 772.492 384.805 M 265.065 142.854 L 728.314 410.311 M 220.888 168.36 L 684.136 435.817 M 176.71 193.866 L 639.959 461.323 M 132.533 219.372 L 595.781 486.829 M 88.355 244.878 L 551.604 512.335 M 44.177 270.384 L 507.426 537.841 M 441.775 40.831 L 0 295.89 L 463.249 563.347 L 905.024 308.287 Z" fill="transparent" stroke-width="0.2" stroke="rgb(153,153,153)" stroke-miterlimit="10" stroke-dasharray=""></path><path d="M 285.704 211.069 C 281.877 208.86 281.877 205.278 285.704 203.069 L 333.347 175.562 C 337.173 173.353 343.377 173.353 347.203 175.562 L 394.846 203.069 C 398.673 205.278 398.673 208.86 394.846 211.069 L 347.203 238.576 C 343.377 240.785 337.173 240.785 333.347 238.576 Z" fill="rgb(229,231,235)" stroke="rgb(156,163,175)" stroke-miterlimit="10" stroke-dasharray=""></path><path d="M 284.925 241.687 L 284.925 210.619 L 334.125 239.024 L 334.125 270.093 Z" fill="rgb(229,231,235)" stroke="rgb(156,163,175)" stroke-miterlimit="10" stroke-dasharray=""></path><path d="M 346.425 270.092 L 346.425 239.024 L 395.625 210.619 L 395.625 241.687 Z" fill="rgb(209,213,219)" stroke="rgb(156,163,175)" stroke-miterlimit="10" stroke-dasharray=""></path><path d="M 282.378 207.068 C 282.378 208.455 283.352 209.71 284.925 210.619 L 284.925 241.687 C 283.352 240.779 282.378 239.523 282.378 238.137 Z" fill="rgb(209,213,219)" stroke="rgb(156,163,175)" stroke-miterlimit="10" stroke-dasharray=""></path><path d="M 334.125 239.024 C 337.521 240.985 343.028 240.985 346.425 239.024 L 346.425 270.093 C 343.028 272.054 337.521 272.054 334.125 270.093 Z" fill="rgb(209,213,219)" stroke="rgb(156,163,175)" stroke-miterlimit="10" stroke-dasharray=""></path><path d="M 398.171 207.068 C 398.171 208.455 397.198 209.71 395.624 210.619 L 395.624 241.687 C 397.198 240.779 398.171 239.523 398.171 238.137 Z" fill="rgb(209,213,219)" stroke="rgb(156,163,175)" stroke-miterlimit="10" stroke-dasharray=""></path><path d="M 285.703 161.36 C 281.876 159.151 281.876 155.569 285.703 153.36 L 333.346 125.853 C 337.172 123.644 343.376 123.644 347.202 125.853 L 394.845 153.36 C 398.672 155.569 398.672 159.151 394.845 161.36 L 347.202 188.866 C 343.376 191.076 337.172 191.076 333.346 188.866 Z" fill="rgb(229,231,235)" stroke="rgb(156,163,175)" stroke-miterlimit="10" stroke-dasharray=""></path><path d="M 284.924 191.978 L 284.924 160.91 L 334.124 189.315 L 334.124 220.384 Z" fill="rgb(229,231,235)" stroke="rgb(156,163,175)" stroke-miterlimit="10" stroke-dasharray=""></path><path d="M 346.424 220.383 L 346.424 189.315 L 395.624 160.91 L 395.624 191.978 Z" fill="rgb(209,213,219)" stroke="rgb(156,163,175)" stroke-miterlimit="10" stroke-dasharray=""></path><path d="M 282.378 157.359 C 282.378 158.746 283.351 160.001 284.925 160.91 L 284.925 191.978 C 283.351 191.07 282.378 189.814 282.378 188.428 Z" fill="rgb(209,213,219)" stroke="rgb(156,163,175)" stroke-miterlimit="10" stroke-dasharray=""></path><path d="M 334.124 189.315 C 337.521 191.276 343.028 191.276 346.424 189.315 L 346.424 220.384 C 343.028 222.345 337.521 222.345 334.124 220.384 Z" fill="rgb(209,213,219)" stroke="rgb(156,163,175)" stroke-miterlimit="10" stroke-dasharray=""></path><path d="M 398.171 157.359 C 398.171 158.746 397.197 160.001 395.623 160.91 L 395.623 191.978 C 397.197 191.07 398.171 189.814 398.171 188.428 Z" fill="rgb(209,213,219)" stroke="rgb(156,163,175)" stroke-miterlimit="10" stroke-dasharray=""></path><path d="M 285.703 110.763 C 281.876 108.554 281.876 104.972 285.703 102.763 L 333.346 75.256 C 337.172 73.047 343.376 73.047 347.202 75.256 L 394.845 102.763 C 398.672 104.972 398.672 108.554 394.845 110.763 L 347.202 138.269 C 343.376 140.479 337.172 140.479 333.346 138.269 Z" fill="rgb(255,255,255)" stroke="rgb(156,163,175)" stroke-miterlimit="10" stroke-dasharray=""></path><path d="M 284.924 141.381 L 284.924 110.313 L 334.124 138.718 L 334.124 169.787 Z" fill="rgb(255,255,255)" stroke="rgb(156,163,175)" stroke-miterlimit="10" stroke-dasharray=""></path><path d="M 346.424 169.787 L 346.424 138.719 L 395.624 110.314 L 395.624 141.382 Z" fill="rgb(255,255,255)" stroke="rgb(156,163,175)" stroke-miterlimit="10" stroke-dasharray=""></path><path d="M 282.378 106.763 C 282.378 108.149 283.351 109.405 284.925 110.313 L 284.925 141.382 C 283.351 140.473 282.378 139.218 282.378 137.831 Z" fill="rgb(255,255,255)" stroke="rgb(156,163,175)" stroke-miterlimit="10" stroke-dasharray=""></path><path d="M 334.124 138.719 C 337.521 140.68 343.028 140.68 346.424 138.719 L 346.424 169.787 C 343.028 171.748 337.521 171.748 334.124 169.787 Z" fill="rgb(255,255,255)" stroke="rgb(156,163,175)" stroke-miterlimit="10" stroke-dasharray=""></path><path d="M 398.171 106.763 C 398.171 108.149 397.197 109.405 395.623 110.313 L 395.623 141.382 C 397.197 140.473 398.171 139.218 398.171 137.831 Z" fill="rgb(255,255,255)" stroke="rgb(156,163,175)" stroke-miterlimit="10" stroke-dasharray=""></path><path d="M 500.704 211.069 C 496.877 208.86 496.877 205.278 500.704 203.069 L 548.347 175.562 C 552.173 173.353 558.377 173.353 562.203 175.562 L 609.846 203.069 C 613.673 205.278 613.673 208.86 609.846 211.069 L 562.203 238.576 C 558.377 240.785 552.173 240.785 548.347 238.576 Z" fill="rgb(229,231,235)" stroke="rgb(156,163,175)" stroke-miterlimit="10" stroke-dasharray=""></path><path d="M 499.925 241.687 L 499.925 210.619 L 549.125 239.024 L 549.125 270.093 Z" fill="rgb(229,231,235)" stroke="rgb(156,163,175)" stroke-miterlimit="10" stroke-dasharray=""></path><path d="M 561.425 270.092 L 561.425 239.024 L 610.625 210.619 L 610.625 241.687 Z" fill="rgb(209,213,219)" stroke="rgb(156,163,175)" stroke-miterlimit="10" stroke-dasharray=""></path><path d="M 497.378 207.068 C 497.378 208.455 498.352 209.71 499.925 210.619 L 499.925 241.687 C 498.352 240.779 497.378 239.523 497.378 238.137 Z" fill="rgb(209,213,219)" stroke="rgb(156,163,175)" stroke-miterlimit="10" stroke-dasharray=""></path><path d="M 549.125 239.024 C 552.521 240.985 558.028 240.985 561.425 239.024 L 561.425 270.093 C 558.028 272.054 552.521 272.054 549.125 270.093 Z" fill="rgb(209,213,219)" stroke="rgb(156,163,175)" stroke-miterlimit="10" stroke-dasharray=""></path><path d="M 613.171 207.068 C 613.171 208.455 612.198 209.71 610.624 210.619 L 610.624 241.687 C 612.198 240.779 613.171 239.523 613.171 238.137 Z" fill="rgb(209,213,219)" stroke="rgb(156,163,175)" stroke-miterlimit="10" stroke-dasharray=""></path><path d="M 500.703 161.36 C 496.876 159.151 496.876 155.569 500.703 153.36 L 548.346 125.853 C 552.172 123.644 558.376 123.644 562.202 125.853 L 609.845 153.36 C 613.672 155.569 613.672 159.151 609.845 161.36 L 562.202 188.866 C 558.376 191.076 552.172 191.076 548.346 188.866 Z" fill="rgb(229,231,235)" stroke="rgb(156,163,175)" stroke-miterlimit="10" stroke-dasharray=""></path><path d="M 499.924 191.978 L 499.924 160.91 L 549.124 189.315 L 549.124 220.384 Z" fill="rgb(229,231,235)" stroke="rgb(156,163,175)" stroke-miterlimit="10" stroke-dasharray=""></path><path d="M 561.424 220.383 L 561.424 189.315 L 610.624 160.91 L 610.624 191.978 Z" fill="rgb(209,213,219)" stroke="rgb(156,163,175)" stroke-miterlimit="10" stroke-dasharray=""></path><path d="M 497.378 157.359 C 497.378 158.746 498.351 160.001 499.925 160.91 L 499.925 191.978 C 498.351 191.07 497.378 189.814 497.378 188.428 Z" fill="rgb(209,213,219)" stroke="rgb(156,163,175)" stroke-miterlimit="10" stroke-dasharray=""></path><path d="M 549.124 189.315 C 552.521 191.276 558.028 191.276 561.424 189.315 L 561.424 220.384 C 558.028 222.345 552.521 222.345 549.124 220.384 Z" fill="rgb(209,213,219)" stroke="rgb(156,163,175)" stroke-miterlimit="10" stroke-dasharray=""></path><path d="M 613.171 157.359 C 613.171 158.746 612.197 160.001 610.623 160.91 L 610.623 191.978 C 612.197 191.07 613.171 189.814 613.171 188.428 Z" fill="rgb(209,213,219)" stroke="rgb(156,163,175)" stroke-miterlimit="10" stroke-dasharray=""></path><path d="M 500.703 110.763 C 496.876 108.554 496.876 104.972 500.703 102.763 L 548.346 75.256 C 552.172 73.047 558.376 73.047 562.202 75.256 L 609.845 102.763 C 613.672 104.972 613.672 108.554 609.845 110.763 L 562.202 138.269 C 558.376 140.479 552.172 140.479 548.346 138.269 Z" fill="rgb(255,255,255)" stroke="rgb(156,163,175)" stroke-miterlimit="10" stroke-dasharray=""></path><path d="M 499.924 141.381 L 499.924 110.313 L 549.124 138.718 L 549.124 169.787 Z" fill="rgb(255,255,255)" stroke="rgb(156,163,175)" stroke-miterlimit="10" stroke-dasharray=""></path><path d="M 561.424 169.787 L 561.424 138.719 L 610.624 110.314 L 610.624 141.382 Z" fill="rgb(255,255,255)" stroke="rgb(156,163,175)" stroke-miterlimit="10" stroke-dasharray=""></path><path d="M 497.378 106.763 C 497.378 108.149 498.351 109.405 499.925 110.313 L 499.925 141.382 C 498.351 140.473 497.378 139.218 497.378 137.831 Z" fill="rgb(255,255,255)" stroke="rgb(156,163,175)" stroke-miterlimit="10" stroke-dasharray=""></path><path d="M 549.124 138.719 C 552.521 140.68 558.028 140.68 561.424 138.719 L 561.424 169.787 C 558.028 171.748 552.521 171.748 549.124 169.787 Z" fill="rgb(255,255,255)" stroke="rgb(156,163,175)" stroke-miterlimit="10" stroke-dasharray=""></path><path d="M 613.171 106.763 C 613.171 108.149 612.197 109.405 610.623 110.313 L 610.623 141.382 C 612.197 140.473 613.171 139.218 613.171 137.831 Z" fill="rgb(255,255,255)" stroke="rgb(156,163,175)" stroke-miterlimit="10" stroke-dasharray=""></path><path d="M 368.06 197.263 C 364.233 195.054 364.233 191.473 368.06 189.263 L 441.718 146.737 C 445.544 144.528 451.748 144.528 455.574 146.737 L 529.232 189.263 C 533.059 191.473 533.059 195.054 529.232 197.263 L 455.574 239.79 C 451.748 241.999 445.544 241.999 441.718 239.79 Z" fill="rgb(243,244,246)" stroke="rgb(156,163,175)" stroke-miterlimit="10" stroke-dasharray=""></path><path d="M 369.882 242.527 L 369.882 198.316 L 439.893 238.737 L 439.893 282.948 Z" fill="rgb(209,213,219)" stroke="rgb(156,163,175)" stroke-miterlimit="10" stroke-dasharray=""></path><path d="M 457.397 282.948 L 457.397 238.737 L 527.408 198.316 L 527.408 242.527 Z" fill="rgb(107,114,128)" stroke="rgb(156,163,175)" stroke-miterlimit="10" stroke-dasharray=""></path><path d="M 366.257 193.264 C 366.257 195.237 367.642 197.023 369.882 198.316 L 369.882 242.527 C 367.642 241.234 366.257 239.448 366.257 237.474 Z" fill="rgb(209,213,219)" stroke="rgb(156,163,175)" stroke-miterlimit="10" stroke-dasharray=""></path><path d="M 439.893 238.737 C 444.726 241.528 452.562 241.528 457.396 238.737 L 457.396 282.948 C 452.562 285.738 444.726 285.738 439.893 282.948 Z" fill="rgb(107,114,128)" stroke="rgb(156,163,175)" stroke-miterlimit="10" stroke-dasharray=""></path><path d="M 531.034 193.264 C 531.034 195.237 529.649 197.023 527.409 198.316 L 527.409 242.527 C 529.649 241.234 531.034 239.448 531.034 237.474 Z" fill="rgb(107,114,128)" stroke="rgb(156,163,175)" stroke-miterlimit="10" stroke-dasharray=""></path><path d="M 368.06 126.526 C 364.233 124.317 364.233 120.736 368.06 118.526 L 441.718 76 C 445.544 73.791 451.748 73.791 455.574 76 L 529.232 118.526 C 533.059 120.736 533.059 124.317 529.232 126.526 L 455.574 169.053 C 451.748 171.262 445.544 171.262 441.718 169.053 Z" fill="rgb(243,244,246)" stroke="rgb(156,163,175)" stroke-miterlimit="10" stroke-dasharray=""></path><path d="M 369.882 171.79 L 369.882 127.579 L 439.893 168 L 439.893 212.211 Z" fill="rgb(209,213,219)" stroke="rgb(156,163,175)" stroke-miterlimit="10" stroke-dasharray=""></path><path d="M 457.397 212.211 L 457.397 168 L 527.408 127.579 L 527.408 171.79 Z" fill="rgb(107,114,128)" stroke="rgb(156,163,175)" stroke-miterlimit="10" stroke-dasharray=""></path><path d="M 366.257 122.526 C 366.257 124.5 367.642 126.286 369.882 127.579 L 369.882 171.79 C 367.642 170.497 366.257 168.71 366.257 166.737 Z" fill="rgb(209,213,219)" stroke="rgb(156,163,175)" stroke-miterlimit="10" stroke-dasharray=""></path><path d="M 439.893 168 C 444.726 170.79 452.562 170.79 457.396 168 L 457.396 212.211 C 452.562 215.001 444.726 215.001 439.893 212.211 Z" fill="rgb(107,114,128)" stroke="rgb(156,163,175)" stroke-miterlimit="10" stroke-dasharray=""></path><path d="M 531.034 122.526 C 531.034 124.5 529.649 126.286 527.409 127.579 L 527.409 171.79 C 529.649 170.497 531.034 168.71 531.034 166.737 Z" fill="rgb(107,114,128)" stroke="rgb(156,163,175)" stroke-miterlimit="10" stroke-dasharray=""></path><path d="M 367.704 54.526 C 363.877 52.317 363.877 48.736 367.704 46.526 L 441.362 4 C 445.188 1.791 451.392 1.791 455.218 4 L 528.876 46.526 C 532.703 48.736 532.703 52.317 528.876 54.526 L 455.218 97.053 C 451.392 99.262 445.188 99.262 441.362 97.053 Z" fill="rgb(211,45,39)" stroke="rgb(255,255,255)" stroke-miterlimit="10" stroke-dasharray=""></path><path d="M 464.729 34.287 L 449.101 43.309 L 433.473 34.287 L 420.97 41.505 L 436.598 50.527 L 420.97 59.549 L 433.276 66.653 L 448.904 57.631 L 464.729 66.766 L 477.231 59.549 L 461.406 50.413 L 477.034 41.391 Z" fill="rgb(255,255,255)"></path><path d="M 369.883 99.79 L 369.883 55.579 L 439.894 96 L 439.894 140.211 Z" fill="rgb(235,78,72)" stroke="rgb(255,255,255)" stroke-miterlimit="10" stroke-dasharray=""></path><path d="M 457.397 140.211 L 457.397 96 L 527.408 55.579 L 527.408 99.79 Z" fill="rgb(181,37,32)" stroke="rgb(255,255,255)" stroke-miterlimit="10" stroke-dasharray=""></path><path d="M 366.258 50.527 C 366.258 52.5 367.643 54.286 369.883 55.58 L 369.883 99.79 C 367.643 98.497 366.258 96.711 366.258 94.737 Z" fill="rgb(245,121,116)" stroke="rgb(255,255,255)" stroke-miterlimit="10" stroke-dasharray=""></path><path d="M 439.895 96 C 444.728 98.79 452.564 98.79 457.398 96 L 457.398 140.211 C 452.564 143.001 444.728 143.001 439.895 140.211 Z" fill="rgb(181,37,32)" stroke="rgb(255,255,255)" stroke-miterlimit="10" stroke-dasharray=""></path><path d="M 531.035 50.527 C 531.035 52.5 529.65 54.286 527.41 55.58 L 527.41 99.79 C 529.65 98.497 531.035 96.711 531.035 94.737 Z" fill="rgb(181,37,32)" stroke="rgb(255,255,255)" stroke-miterlimit="10" stroke-dasharray=""></path></svg>