<svg width="24" height="24" viewBox="0 0 24 24" fill="none" xmlns="http://www.w3.org/2000/svg">
  <path
    fill-rule="evenodd"
    clip-rule="evenodd"
    d="M13.2094 3.669C13.2094 3.58725 13.2101 3.507 13.2101 3.41925C13.2101 2.65425 13.1042 2.03775 12.9347 1.5495C13.6161 1.635 14.0698 2.41425 14.3616 3.3105C14.0199 3.417 13.6311 3.53775 13.2094 3.669ZM11.7049 11.2965C11.7049 11.2965 10.9078 10.869 9.93094 10.869C8.49806 10.869 8.42569 11.7727 8.42569 12C8.42569 13.2427 11.6483 13.719 11.6483 16.629C11.6483 18.918 10.2034 20.3925 8.25488 20.3925C5.91675 20.3925 4.72125 18.93 4.72125 18.93L5.34731 16.8517C5.34731 16.8517 6.57637 17.9122 7.61381 17.9122C8.29069 17.9122 8.56687 17.376 8.56687 16.9845C8.56687 15.3637 5.92275 15.291 5.92275 12.6277C5.92275 10.3867 7.52363 8.21775 10.755 8.21775C11.9998 8.21775 12.6156 8.57625 12.6156 8.57625L11.7049 11.2965ZM11.1743 0.83025C11.3078 0.83025 11.4414 0.876 11.5699 0.9645C10.5825 1.431 9.525 2.607 9.078 4.9545C8.42494 5.15775 7.78687 5.3565 7.19662 5.54025C7.71956 3.74925 8.96213 0.83025 11.1743 0.83025ZM12.4026 3.786C12.4026 3.83325 12.4018 3.87675 12.4018 3.92025C11.6518 4.1535 10.8375 4.407 10.0211 4.66125C10.4794 2.88375 11.3385 2.025 12.09 1.701C12.2788 2.178 12.4026 2.86275 12.4026 3.786ZM15.9484 2.83069C15.8996 2.83706 15.8574 2.84662 15.828 2.85525C15.8123 2.85975 15.5496 2.9415 15.1146 3.0765C14.6886 1.845 13.9371 0.71325 12.6154 0.71325C12.5788 0.71325 12.5407 0.71475 12.5034 0.717C12.1273 0.2175 11.6616 0 11.2594 0C8.17931 0 6.70762 3.87 6.24637 5.83575C5.04937 6.2085 4.19925 6.47325 4.09106 6.50775C3.42244 6.7185 3.40144 6.7395 3.31425 7.37175C3.24788 7.851 1.5 21.4357 1.5 21.4357L15.1198 24L15.1343 23.9968L15.9484 2.83069ZM16.9236 3.49725C17.3168 3.88969 17.7626 4.33425 17.7626 4.33425C17.7626 4.33425 19.5977 4.47075 19.6843 4.47825C19.7717 4.48575 19.8769 4.5525 19.8932 4.67325C19.9097 4.794 22.5 22.3958 22.5 22.3958L16.1436 23.7774L16.9236 3.49725Z"
    fill="#81BF37"
  />
</svg>
