<?xml version="1.0" ?>
<!-- Uploaded to: SVG Repo, www.svgrepo.com, Generator: SVG Repo Mixer Tools -->
<svg viewBox="0 -28.5 256 256" version="1.1" xmlns="http://www.w3.org/2000/svg" xmlns:xlink="http://www.w3.org/1999/xlink" preserveAspectRatio="xMidYMid">
    <g>
        <path d="M216.856339,16.5966031 C200.285002,8.84328665 182.566144,3.2084988 164.041564,0 C161.766523,4.11318106 159.108624,9.64549908 157.276099,14.0464379 C137.583995,11.0849896 118.072967,11.0849896 98.7430163,14.0464379 C96.9108417,9.64549908 94.1925838,4.11318106 91.8971895,0 C73.3526068,3.2084988 55.6133949,8.86399117 39.0420583,16.6376612 C5.61752293,67.146514 -3.4433191,116.400813 1.08711069,164.955721 C23.2560196,181.510915 44.7509,193.567203 65.8921068,201.526158 C71.1293375,194.302963 75.8106042,186.634498 79.8726498,178.574498 C72.1723498,175.691499 64.7659534,172.120793 57.7311078,167.941301 C59.5633824,166.593206 61.3547,165.204311 63.1045346,163.776015 C105.351613,183.611998 151.055613,183.611998 192.895146,163.776015 C194.665003,165.204311 196.456481,166.593206 198.268733,167.941301 C191.213425,172.141398 183.786499,175.712103 176.066176,178.595103 C180.148748,186.655098 184.809379,194.323563 190.066132,201.546757 C211.228141,193.58784 232.743042,181.531557 254.911949,164.955721 C260.227747,108.668201 245.831056,59.8662432 216.856339,16.5966031 Z M85.4738752,135.09489 C72.8290281,135.09489 62.4592217,123.290155 62.4592217,108.914901 C62.4592217,94.5396472 72.607595,82.7145587 85.4738752,82.7145587 C98.3405064,82.7145587 108.710454,94.5189427 108.488529,108.914901 C108.508531,123.290155 98.3405064,135.09489 85.4738752,135.09489 Z M170.525237,135.09489 C157.880459,135.09489 147.510584,123.290155 147.510584,108.914901 C147.510584,94.5396472 157.658957,82.7145587 170.525237,82.7145587 C183.391569,82.7145587 193.761415,94.5189427 193.540891,108.914901 C193.540891,123.290155 183.391569,135.09489 170.525237,135.09489 Z" fill="#5865F2" fill-rule="nonzero">
        </path>
    </g>
</svg>
