<svg xmlns="http://www.w3.org/2000/svg" viewBox="0 0 128 128">
  <path d="M26.9 80.1c0 7.5-6.1 13.6-13.6 13.6S-.3 87.6-.3 80.1c0-7.5 6.1-13.6 13.6-13.6h13.6v13.6zm6.8 0c0-7.5 6.1-13.6 13.6-13.6s13.6 6.1 13.6 13.6v34c0 7.5-6.1 13.6-13.6 13.6s-13.6-6.1-13.6-13.6V80.1z" fill="#e01e5a"/>
  <path d="M47.3 26.6c-7.5 0-13.6-6.1-13.6-13.6S39.8-.6 47.3-.6s13.6 6.1 13.6 13.6v13.6H47.3zm0 6.8c7.5 0 13.6 6.1 13.6 13.6s-6.1 13.6-13.6 13.6H13.6C6.1 60.6 0 54.5 0 47S6.1 33.4 13.6 33.4h33.7z" fill="#36c5f0"/>
  <path d="M100.7 47c0-7.5 6.1-13.6 13.6-13.6 7.5 0 13.6 6.1 13.6 13.6s-6.1 13.6-13.6 13.6h-13.6V47zm-6.8 0c0 7.5-6.1 13.6-13.6 13.6-7.5 0-13.6-6.1-13.6-13.6V13.3c0-7.5 6.1-13.6 13.6-13.6 7.5 0 13.6 6.1 13.6 13.6V47z" fill="#2eb67d"/>
  <path d="M80.3 100.7c7.5 0 13.6 6.1 13.6 13.6 0 7.5-6.1 13.6-13.6 13.6-7.5 0-13.6-6.1-13.6-13.6v-13.6h13.6zm0-6.8c-7.5 0-13.6-6.1-13.6-13.6 0-7.5 6.1-13.6 13.6-13.6h33.7c7.5 0 13.6 6.1 13.6 13.6 0 7.5-6.1 13.6-13.6 13.6H80.3z" fill="#ecb22e"/>
</svg>