<svg width="83" height="24" viewBox="0 0 83 24" fill="none" xmlns="http://www.w3.org/2000/svg">
<g clip-path="url(#clip0_754_3167)">
<mask id="mask0_754_3167" style="mask-type:luminance" maskUnits="userSpaceOnUse" x="0" y="0" width="83" height="24">
<path d="M83 0H0V24H83V0Z" fill="white"/>
</mask>
<g mask="url(#mask0_754_3167)">
<path d="M12.0348 23.9995C11.2202 23.9998 10.4076 23.918 9.60942 23.7557C8.83509 23.5975 8.07841 23.3633 7.35039 23.0565C6.63473 22.7543 5.95006 22.3838 5.30604 21.9501C4.66689 21.5193 4.07048 21.0286 3.52491 20.4847C2.97945 19.9408 2.48733 19.3461 2.05528 18.7089C1.62027 18.0667 1.24864 17.3841 0.945638 16.6706C0.637903 15.9446 0.402933 15.1901 0.2443 14.4181C0.0815242 13.6221 -0.000290732 12.8118 7.76229e-07 11.9994C-0.000190801 11.1871 0.0817083 10.3768 0.244564 9.5809C0.403164 8.80878 0.638136 8.0542 0.945902 7.32824C1.24893 6.61467 1.62055 5.932 2.05555 5.28982C2.48761 4.65254 2.97973 4.05791 3.52518 3.51394C4.07081 2.97013 4.66724 2.47949 5.3063 2.04862C5.95032 1.61489 6.63499 1.24435 7.35065 0.942177C8.07867 0.63535 8.8354 0.401122 9.60967 0.242929C10.4078 0.0806916 11.2203 -0.00095242 12.0348 -0.000731977C12.8495 -0.000926161 13.6621 0.0807602 14.4603 0.24306C15.2345 0.401261 15.9912 0.635487 16.7192 0.94231C17.4349 1.24442 18.1196 1.61497 18.7636 2.04876C19.4027 2.47963 19.9992 2.97026 20.5448 3.51408C21.0902 4.05803 21.5823 4.65267 22.0143 5.28995C22.4493 5.93212 22.8209 6.6148 23.1239 7.32837C23.4317 8.05432 23.6667 8.80891 23.8253 9.58103C23.9881 10.3769 24.0699 11.1871 24.0697 11.9994C24.0699 12.8117 23.988 13.6219 23.8251 14.4178C23.6665 15.1899 23.4315 15.9444 23.1238 16.6703C22.8208 17.3839 22.4492 18.0664 22.0142 18.7085C21.5822 19.3458 21.0901 19.9405 20.5447 20.4845C19.9991 21.0283 19.4027 21.519 18.7635 21.9498C18.1195 22.3836 17.4348 22.7541 16.7191 23.0563C15.9911 23.3631 15.2344 23.5973 14.4602 23.7555C13.662 23.9179 12.8495 23.9996 12.0348 23.9995ZM12.0348 7.43422C11.4226 7.43307 10.8165 7.55512 10.2527 7.79307C9.70862 8.02214 9.21426 8.35437 8.79727 8.77137C8.37911 9.18725 8.0459 9.68002 7.81614 10.2226C7.57751 10.7848 7.45513 11.3892 7.4563 11.9997C7.45509 12.6101 7.57751 13.2145 7.81614 13.7767C8.04599 14.3191 8.37916 14.8119 8.79727 15.2278C9.21434 15.6448 9.70867 15.9771 10.2527 16.2062C10.8165 16.4442 11.4226 16.5661 12.0348 16.5649C12.6471 16.5661 13.2533 16.4442 13.8172 16.2062C14.3612 15.977 14.8555 15.6447 15.2725 15.2278C15.6908 14.812 16.0241 14.3192 16.2538 13.7767C16.4925 13.2145 16.6149 12.6101 16.6137 11.9997C16.6148 11.3892 16.4925 10.7848 16.2538 10.2226C16.0241 9.67998 15.6909 9.18717 15.2725 8.77137C14.8556 8.35437 14.3612 8.02214 13.8172 7.79307C13.2533 7.55504 12.6471 7.43315 12.0348 7.43422Z" fill="url(#paint0_linear_754_3167)"/>
<path d="M31.4476 15.0905C30.6471 14.3462 30.2468 13.397 30.2468 12.2429C30.2468 11.0887 30.6471 10.1476 31.4476 9.41948C32.2328 8.69712 33.2679 8.30575 34.336 8.3273C34.9525 8.32259 35.5623 8.45528 36.1209 8.71563C36.6565 8.96172 37.1242 9.33372 37.484 9.7997L35.9099 10.9808C35.5421 10.4846 35.0175 10.2365 34.336 10.2365C33.7855 10.228 33.2522 10.4274 32.8431 10.7948C32.6366 10.9743 32.4727 11.1974 32.3632 11.4478C32.2537 11.6982 32.2015 11.9698 32.2102 12.2429C32.2035 12.5204 32.2565 12.7961 32.3657 13.0515C32.4749 13.3069 32.6377 13.536 32.8431 13.7233C33.2433 14.1085 33.7798 14.3207 34.336 14.3139C35.0175 14.3139 35.5421 14.0604 35.9099 13.5534L37.5002 14.7184C37.1424 15.1936 36.6711 15.5719 36.129 15.8186C35.5674 16.0785 34.955 16.2111 34.336 16.207C33.2635 16.2273 32.2261 15.8263 31.4476 15.0905ZM41.2972 8.48913V16.0451H39.3338V8.48913H41.2972ZM39.4149 6.4181C39.2957 6.30942 39.2008 6.17686 39.1365 6.02905C39.0721 5.88128 39.0399 5.72163 39.0417 5.56053C39.0392 5.40098 39.0721 5.24279 39.138 5.09733C39.2039 4.95188 39.3013 4.82275 39.423 4.71921C39.6689 4.49579 39.991 4.37429 40.3236 4.37943C40.6517 4.37245 40.9694 4.49451 41.208 4.71921C41.3257 4.82519 41.4192 4.95518 41.4822 5.10033C41.5452 5.24549 41.5762 5.40243 41.5731 5.56053C41.5757 5.71979 41.5445 5.87781 41.4816 6.02421C41.4187 6.17056 41.3254 6.30205 41.208 6.41C41.091 6.52345 40.9526 6.61259 40.8008 6.67229C40.649 6.73203 40.4868 6.76109 40.3236 6.75788C39.9881 6.76593 39.6624 6.64418 39.4149 6.4181ZM45.6784 13.3754V16.0451H43.699V8.48913H45.6784V10.2689C45.8622 9.62172 46.1492 9.13632 46.5383 8.8127C46.8932 8.5022 47.3484 8.32979 47.8204 8.3273C48.2532 8.31509 48.6824 8.40959 49.0698 8.60236L48.7291 10.3822C48.3643 10.2322 47.9717 10.1605 47.5771 10.1718C46.3113 10.1718 45.6784 11.2397 45.6784 13.3754ZM51.0821 15.0905C50.2815 14.3462 49.8812 13.397 49.8812 12.2429C49.8812 11.0887 50.2815 10.1476 51.0821 9.41948C51.8671 8.69712 52.902 8.30575 53.9702 8.3273C54.5871 8.32259 55.1966 8.45528 55.7552 8.71563C56.2908 8.96172 56.7585 9.33372 57.1182 9.7997L55.5442 10.9808C55.1763 10.4846 54.6519 10.2365 53.9702 10.2365C53.4199 10.228 52.8865 10.4274 52.4775 10.7948C52.2709 10.9743 52.107 11.1974 51.9977 11.4478C51.8883 11.6982 51.836 11.9698 51.8446 12.2429C51.8377 12.5204 51.8909 12.7961 52.0003 13.0515C52.1092 13.3069 52.2722 13.536 52.4775 13.7233C52.8778 14.1085 53.4143 14.3207 53.9702 14.3139C54.6519 14.3139 55.1763 14.0604 55.5442 13.5534L57.1346 14.7184C56.7767 15.1936 56.3055 15.5719 55.7634 15.8186C55.2018 16.0785 54.5893 16.2111 53.9702 16.207C52.8977 16.2273 51.8606 15.8263 51.0821 15.0905ZM63.9497 12.5179V8.48913H65.9296V16.0451H63.9497V14.9773C63.7474 15.3624 63.4335 15.6781 63.0492 15.8834C62.6857 16.0907 62.2754 16.202 61.8565 16.207C60.937 16.207 60.2095 15.9265 59.6739 15.3656C59.1387 14.8047 58.8707 14.0011 58.8707 12.9548V8.48913H60.8666V12.5988C60.8666 13.1705 61.0075 13.5939 61.2885 13.8689C61.4225 14.0029 61.582 14.1084 61.7575 14.1794C61.933 14.2502 62.1215 14.285 62.3109 14.2815C62.7414 14.2944 63.1599 14.1408 63.4793 13.8528C63.7928 13.5669 63.9497 13.122 63.9497 12.5179ZM68.331 16.0451V4.37943H70.3108V16.0451H68.331ZM79.7383 8.48913L75.0488 19.7342H72.9556L74.6917 15.4627L71.7387 8.48913H73.8483L75.7305 13.1975L77.6291 8.48913H79.7383ZM80.8095 15.851C80.6889 15.7398 80.5933 15.6044 80.5294 15.4539C80.465 15.3033 80.433 15.1409 80.436 14.9773C80.433 14.8136 80.465 14.6512 80.5294 14.5007C80.5933 14.3501 80.6889 14.2148 80.8095 14.1035C80.9271 13.9883 81.0667 13.8974 81.2197 13.8363C81.3732 13.7752 81.537 13.745 81.7017 13.7476C82.0411 13.7408 82.3696 13.8656 82.6186 14.0955C82.7427 14.2061 82.8408 14.3423 82.9065 14.4945C82.9727 14.6468 83.0042 14.8115 82.9999 14.9773C83.0042 15.143 82.9727 15.3078 82.9065 15.4601C82.8408 15.6123 82.7427 15.7485 82.6186 15.8591C82.3696 16.089 82.0411 16.2137 81.7017 16.207C81.537 16.2095 81.3732 16.1794 81.2197 16.1183C81.0667 16.0571 80.9271 15.9663 80.8095 15.851Z" fill="black"/>
</g>
</g>
<defs>
<linearGradient id="paint0_linear_754_3167" x1="8.23183" y1="21.3115" x2="19.0879" y2="2.18033" gradientUnits="userSpaceOnUse">
<stop stop-color="#9FEF53"/>
<stop offset="1" stop-color="#54F4B2"/>
</linearGradient>
<clipPath id="clip0_754_3167">
<rect width="83" height="24" fill="white"/>
</clipPath>
</defs>
</svg>
