<svg width="472" height="260" viewBox="0 0 472 260" fill="none" xmlns="http://www.w3.org/2000/svg">
<mask id="path-1-inside-1_56_1883" fill="white">
<path d="M0 0H76V40H0V0Z"/>
</mask>
<path d="M0 40V40.5H1.9V40V39.5H0V40ZM5.7 40V40.5H9.5V40V39.5H5.7V40ZM13.3 40V40.5H17.1V40V39.5H13.3V40ZM20.9 40V40.5H24.7V40V39.5H20.9V40ZM28.5 40V40.5H32.3V40V39.5H28.5V40ZM36.1 40V40.5H39.9V40V39.5H36.1V40ZM43.7 40V40.5H47.5V40V39.5H43.7V40ZM51.3 40V40.5H55.1V40V39.5H51.3V40ZM58.9 40V40.5H62.7V40V39.5H58.9V40ZM66.5 40V40.5H70.3V40V39.5H66.5V40ZM74.1 40V40.5H76V40V39.5H74.1V40ZM0 40V41H1.9V40V39H0V40ZM5.7 40V41H9.5V40V39H5.7V40ZM13.3 40V41H17.1V40V39H13.3V40ZM20.9 40V41H24.7V40V39H20.9V40ZM28.5 40V41H32.3V40V39H28.5V40ZM36.1 40V41H39.9V40V39H36.1V40ZM43.7 40V41H47.5V40V39H43.7V40ZM51.3 40V41H55.1V40V39H51.3V40ZM58.9 40V41H62.7V40V39H58.9V40ZM66.5 40V41H70.3V40V39H66.5V40ZM74.1 40V41H76V40V39H74.1V40Z" fill="#C1DAFF" mask="url(#path-1-inside-1_56_1883)"/>
<mask id="path-3-inside-2_56_1883" fill="white">
<path d="M76 0H152V40H76V0Z"/>
</mask>
<path d="M76 40H75.5V40.5H76V40ZM76 0H75.5V2H76H76.5V0H76ZM76 6H75.5V10H76H76.5V6H76ZM76 14H75.5V18H76H76.5V14H76ZM76 22H75.5V26H76H76.5V22H76ZM76 30H75.5V34H76H76.5V30H76ZM76 38H75.5V40H76H76.5V38H76ZM76 40V40.5H77.9V40V39.5H76V40ZM81.7 40V40.5H85.5V40V39.5H81.7V40ZM89.3 40V40.5H93.1V40V39.5H89.3V40ZM96.9 40V40.5H100.7V40V39.5H96.9V40ZM104.5 40V40.5H108.3V40V39.5H104.5V40ZM112.1 40V40.5H115.9V40V39.5H112.1V40ZM119.7 40V40.5H123.5V40V39.5H119.7V40ZM127.3 40V40.5H131.1V40V39.5H127.3V40ZM134.9 40V40.5H138.7V40V39.5H134.9V40ZM142.5 40V40.5H146.3V40V39.5H142.5V40ZM150.1 40V40.5H152V40V39.5H150.1V40ZM76 40H75V41H76V40ZM76 0H75V2H76H77V0H76ZM76 6H75V10H76H77V6H76ZM76 14H75V18H76H77V14H76ZM76 22H75V26H76H77V22H76ZM76 30H75V34H76H77V30H76ZM76 38H75V40H76H77V38H76ZM76 40V41H77.9V40V39H76V40ZM81.7 40V41H85.5V40V39H81.7V40ZM89.3 40V41H93.1V40V39H89.3V40ZM96.9 40V41H100.7V40V39H96.9V40ZM104.5 40V41H108.3V40V39H104.5V40ZM112.1 40V41H115.9V40V39H112.1V40ZM119.7 40V41H123.5V40V39H119.7V40ZM127.3 40V41H131.1V40V39H127.3V40ZM134.9 40V41H138.7V40V39H134.9V40ZM142.5 40V41H146.3V40V39H142.5V40ZM150.1 40V41H152V40V39H150.1V40Z" fill="#C1DAFF" mask="url(#path-3-inside-2_56_1883)"/>
<mask id="path-5-inside-3_56_1883" fill="white">
<path d="M152 0H228V40H152V0Z"/>
</mask>
<path d="M152 40H151.5V40.5H152V40ZM152 0H151.5V2H152H152.5V0H152ZM152 6H151.5V10H152H152.5V6H152ZM152 14H151.5V18H152H152.5V14H152ZM152 22H151.5V26H152H152.5V22H152ZM152 30H151.5V34H152H152.5V30H152ZM152 38H151.5V40H152H152.5V38H152ZM152 40V40.5H153.9V40V39.5H152V40ZM157.7 40V40.5H161.5V40V39.5H157.7V40ZM165.3 40V40.5H169.1V40V39.5H165.3V40ZM172.9 40V40.5H176.7V40V39.5H172.9V40ZM180.5 40V40.5H184.3V40V39.5H180.5V40ZM188.1 40V40.5H191.9V40V39.5H188.1V40ZM195.7 40V40.5H199.5V40V39.5H195.7V40ZM203.3 40V40.5H207.1V40V39.5H203.3V40ZM210.9 40V40.5H214.7V40V39.5H210.9V40ZM218.5 40V40.5H222.3V40V39.5H218.5V40ZM226.1 40V40.5H228V40V39.5H226.1V40ZM152 40H151V41H152V40ZM152 0H151V2H152H153V0H152ZM152 6H151V10H152H153V6H152ZM152 14H151V18H152H153V14H152ZM152 22H151V26H152H153V22H152ZM152 30H151V34H152H153V30H152ZM152 38H151V40H152H153V38H152ZM152 40V41H153.9V40V39H152V40ZM157.7 40V41H161.5V40V39H157.7V40ZM165.3 40V41H169.1V40V39H165.3V40ZM172.9 40V41H176.7V40V39H172.9V40ZM180.5 40V41H184.3V40V39H180.5V40ZM188.1 40V41H191.9V40V39H188.1V40ZM195.7 40V41H199.5V40V39H195.7V40ZM203.3 40V41H207.1V40V39H203.3V40ZM210.9 40V41H214.7V40V39H210.9V40ZM218.5 40V41H222.3V40V39H218.5V40ZM226.1 40V41H228V40V39H226.1V40Z" fill="#C1DAFF" mask="url(#path-5-inside-3_56_1883)"/>
<mask id="path-7-inside-4_56_1883" fill="white">
<path d="M228 0H304V40H228V0Z"/>
</mask>
<path d="M228 40H227.5V40.5H228V40ZM228 0H227.5V2H228H228.5V0H228ZM228 6H227.5V10H228H228.5V6H228ZM228 14H227.5V18H228H228.5V14H228ZM228 22H227.5V26H228H228.5V22H228ZM228 30H227.5V34H228H228.5V30H228ZM228 38H227.5V40H228H228.5V38H228ZM228 40V40.5H229.9V40V39.5H228V40ZM233.7 40V40.5H237.5V40V39.5H233.7V40ZM241.3 40V40.5H245.1V40V39.5H241.3V40ZM248.9 40V40.5H252.7V40V39.5H248.9V40ZM256.5 40V40.5H260.3V40V39.5H256.5V40ZM264.1 40V40.5H267.9V40V39.5H264.1V40ZM271.7 40V40.5H275.5V40V39.5H271.7V40ZM279.3 40V40.5H283.1V40V39.5H279.3V40ZM286.9 40V40.5H290.7V40V39.5H286.9V40ZM294.5 40V40.5H298.3V40V39.5H294.5V40ZM302.1 40V40.5H304V40V39.5H302.1V40ZM228 40H227V41H228V40ZM228 0H227V2H228H229V0H228ZM228 6H227V10H228H229V6H228ZM228 14H227V18H228H229V14H228ZM228 22H227V26H228H229V22H228ZM228 30H227V34H228H229V30H228ZM228 38H227V40H228H229V38H228ZM228 40V41H229.9V40V39H228V40ZM233.7 40V41H237.5V40V39H233.7V40ZM241.3 40V41H245.1V40V39H241.3V40ZM248.9 40V41H252.7V40V39H248.9V40ZM256.5 40V41H260.3V40V39H256.5V40ZM264.1 40V41H267.9V40V39H264.1V40ZM271.7 40V41H275.5V40V39H271.7V40ZM279.3 40V41H283.1V40V39H279.3V40ZM286.9 40V41H290.7V40V39H286.9V40ZM294.5 40V41H298.3V40V39H294.5V40ZM302.1 40V41H304V40V39H302.1V40Z" fill="#C1DAFF" mask="url(#path-7-inside-4_56_1883)"/>
<mask id="path-9-inside-5_56_1883" fill="white">
<path d="M304 0H380V40H304V0Z"/>
</mask>
<path d="M304 40H303.5V40.5H304V40ZM304 0H303.5V2H304H304.5V0H304ZM304 6H303.5V10H304H304.5V6H304ZM304 14H303.5V18H304H304.5V14H304ZM304 22H303.5V26H304H304.5V22H304ZM304 30H303.5V34H304H304.5V30H304ZM304 38H303.5V40H304H304.5V38H304ZM304 40V40.5H305.9V40V39.5H304V40ZM309.7 40V40.5H313.5V40V39.5H309.7V40ZM317.3 40V40.5H321.1V40V39.5H317.3V40ZM324.9 40V40.5H328.7V40V39.5H324.9V40ZM332.5 40V40.5H336.3V40V39.5H332.5V40ZM340.1 40V40.5H343.9V40V39.5H340.1V40ZM347.7 40V40.5H351.5V40V39.5H347.7V40ZM355.3 40V40.5H359.1V40V39.5H355.3V40ZM362.9 40V40.5H366.7V40V39.5H362.9V40ZM370.5 40V40.5H374.3V40V39.5H370.5V40ZM378.1 40V40.5H380V40V39.5H378.1V40ZM304 40H303V41H304V40ZM304 0H303V2H304H305V0H304ZM304 6H303V10H304H305V6H304ZM304 14H303V18H304H305V14H304ZM304 22H303V26H304H305V22H304ZM304 30H303V34H304H305V30H304ZM304 38H303V40H304H305V38H304ZM304 40V41H305.9V40V39H304V40ZM309.7 40V41H313.5V40V39H309.7V40ZM317.3 40V41H321.1V40V39H317.3V40ZM324.9 40V41H328.7V40V39H324.9V40ZM332.5 40V41H336.3V40V39H332.5V40ZM340.1 40V41H343.9V40V39H340.1V40ZM347.7 40V41H351.5V40V39H347.7V40ZM355.3 40V41H359.1V40V39H355.3V40ZM362.9 40V41H366.7V40V39H362.9V40ZM370.5 40V41H374.3V40V39H370.5V40ZM378.1 40V41H380V40V39H378.1V40Z" fill="#C1DAFF" mask="url(#path-9-inside-5_56_1883)"/>
<mask id="path-11-inside-6_56_1883" fill="white">
<path d="M380 0H456V40H380V0Z"/>
</mask>
<path d="M380 40H379.5V40.5H380V40ZM380 0H379.5V2H380H380.5V0H380ZM380 6H379.5V10H380H380.5V6H380ZM380 14H379.5V18H380H380.5V14H380ZM380 22H379.5V26H380H380.5V22H380ZM380 30H379.5V34H380H380.5V30H380ZM380 38H379.5V40H380H380.5V38H380ZM380 40V40.5H381.9V40V39.5H380V40ZM385.7 40V40.5H389.5V40V39.5H385.7V40ZM393.3 40V40.5H397.1V40V39.5H393.3V40ZM400.9 40V40.5H404.7V40V39.5H400.9V40ZM408.5 40V40.5H412.3V40V39.5H408.5V40ZM416.1 40V40.5H419.9V40V39.5H416.1V40ZM423.7 40V40.5H427.5V40V39.5H423.7V40ZM431.3 40V40.5H435.1V40V39.5H431.3V40ZM438.9 40V40.5H442.7V40V39.5H438.9V40ZM446.5 40V40.5H450.3V40V39.5H446.5V40ZM454.1 40V40.5H456V40V39.5H454.1V40ZM380 40H379V41H380V40ZM380 0H379V2H380H381V0H380ZM380 6H379V10H380H381V6H380ZM380 14H379V18H380H381V14H380ZM380 22H379V26H380H381V22H380ZM380 30H379V34H380H381V30H380ZM380 38H379V40H380H381V38H380ZM380 40V41H381.9V40V39H380V40ZM385.7 40V41H389.5V40V39H385.7V40ZM393.3 40V41H397.1V40V39H393.3V40ZM400.9 40V41H404.7V40V39H400.9V40ZM408.5 40V41H412.3V40V39H408.5V40ZM416.1 40V41H419.9V40V39H416.1V40ZM423.7 40V41H427.5V40V39H423.7V40ZM431.3 40V41H435.1V40V39H431.3V40ZM438.9 40V41H442.7V40V39H438.9V40ZM446.5 40V41H450.3V40V39H446.5V40ZM454.1 40V41H456V40V39H454.1V40Z" fill="#C1DAFF" mask="url(#path-11-inside-6_56_1883)"/>
<mask id="path-13-inside-7_56_1883" fill="white">
<path d="M456 0H532V40H456V0Z"/>
</mask>
<path d="M456 40H455.5V40.5H456V40ZM456 0H455.5V2H456H456.5V0H456ZM456 6H455.5V10H456H456.5V6H456ZM456 14H455.5V18H456H456.5V14H456ZM456 22H455.5V26H456H456.5V22H456ZM456 30H455.5V34H456H456.5V30H456ZM456 38H455.5V40H456H456.5V38H456ZM456 40V40.5H457.9V40V39.5H456V40ZM461.7 40V40.5H465.5V40V39.5H461.7V40ZM469.3 40V40.5H473.1V40V39.5H469.3V40ZM476.9 40V40.5H480.7V40V39.5H476.9V40ZM484.5 40V40.5H488.3V40V39.5H484.5V40ZM492.1 40V40.5H495.9V40V39.5H492.1V40ZM499.7 40V40.5H503.5V40V39.5H499.7V40ZM507.3 40V40.5H511.1V40V39.5H507.3V40ZM514.9 40V40.5H518.7V40V39.5H514.9V40ZM522.5 40V40.5H526.3V40V39.5H522.5V40ZM530.1 40V40.5H532V40V39.5H530.1V40ZM456 40H455V41H456V40ZM456 0H455V2H456H457V0H456ZM456 6H455V10H456H457V6H456ZM456 14H455V18H456H457V14H456ZM456 22H455V26H456H457V22H456ZM456 30H455V34H456H457V30H456ZM456 38H455V40H456H457V38H456ZM456 40V41H457.9V40V39H456V40ZM461.7 40V41H465.5V40V39H461.7V40ZM469.3 40V41H473.1V40V39H469.3V40ZM476.9 40V41H480.7V40V39H476.9V40ZM484.5 40V41H488.3V40V39H484.5V40ZM492.1 40V41H495.9V40V39H492.1V40ZM499.7 40V41H503.5V40V39H499.7V40ZM507.3 40V41H511.1V40V39H507.3V40ZM514.9 40V41H518.7V40V39H514.9V40ZM522.5 40V41H526.3V40V39H522.5V40ZM530.1 40V41H532V40V39H530.1V40Z" fill="#C1DAFF" mask="url(#path-13-inside-7_56_1883)"/>
<mask id="path-15-inside-8_56_1883" fill="white">
<path d="M0 40H76V80H0V40Z"/>
</mask>
<path d="M0 80V80.5H1.9V80V79.5H0V80ZM5.7 80V80.5H9.5V80V79.5H5.7V80ZM13.3 80V80.5H17.1V80V79.5H13.3V80ZM20.9 80V80.5H24.7V80V79.5H20.9V80ZM28.5 80V80.5H32.3V80V79.5H28.5V80ZM36.1 80V80.5H39.9V80V79.5H36.1V80ZM43.7 80V80.5H47.5V80V79.5H43.7V80ZM51.3 80V80.5H55.1V80V79.5H51.3V80ZM58.9 80V80.5H62.7V80V79.5H58.9V80ZM66.5 80V80.5H70.3V80V79.5H66.5V80ZM74.1 80V80.5H76V80V79.5H74.1V80ZM0 80V81H1.9V80V79H0V80ZM5.7 80V81H9.5V80V79H5.7V80ZM13.3 80V81H17.1V80V79H13.3V80ZM20.9 80V81H24.7V80V79H20.9V80ZM28.5 80V81H32.3V80V79H28.5V80ZM36.1 80V81H39.9V80V79H36.1V80ZM43.7 80V81H47.5V80V79H43.7V80ZM51.3 80V81H55.1V80V79H51.3V80ZM58.9 80V81H62.7V80V79H58.9V80ZM66.5 80V81H70.3V80V79H66.5V80ZM74.1 80V81H76V80V79H74.1V80Z" fill="#C1DAFF" mask="url(#path-15-inside-8_56_1883)"/>
<mask id="path-17-inside-9_56_1883" fill="white">
<path d="M76 40H152V80H76V40Z"/>
</mask>
<path d="M76 80H75.5V80.5H76V80ZM76 40H75.5V42H76H76.5V40H76ZM76 46H75.5V50H76H76.5V46H76ZM76 54H75.5V58H76H76.5V54H76ZM76 62H75.5V66H76H76.5V62H76ZM76 70H75.5V74H76H76.5V70H76ZM76 78H75.5V80H76H76.5V78H76ZM76 80V80.5H77.9V80V79.5H76V80ZM81.7 80V80.5H85.5V80V79.5H81.7V80ZM89.3 80V80.5H93.1V80V79.5H89.3V80ZM96.9 80V80.5H100.7V80V79.5H96.9V80ZM104.5 80V80.5H108.3V80V79.5H104.5V80ZM112.1 80V80.5H115.9V80V79.5H112.1V80ZM119.7 80V80.5H123.5V80V79.5H119.7V80ZM127.3 80V80.5H131.1V80V79.5H127.3V80ZM134.9 80V80.5H138.7V80V79.5H134.9V80ZM142.5 80V80.5H146.3V80V79.5H142.5V80ZM150.1 80V80.5H152V80V79.5H150.1V80ZM76 80H75V81H76V80ZM76 40H75V42H76H77V40H76ZM76 46H75V50H76H77V46H76ZM76 54H75V58H76H77V54H76ZM76 62H75V66H76H77V62H76ZM76 70H75V74H76H77V70H76ZM76 78H75V80H76H77V78H76ZM76 80V81H77.9V80V79H76V80ZM81.7 80V81H85.5V80V79H81.7V80ZM89.3 80V81H93.1V80V79H89.3V80ZM96.9 80V81H100.7V80V79H96.9V80ZM104.5 80V81H108.3V80V79H104.5V80ZM112.1 80V81H115.9V80V79H112.1V80ZM119.7 80V81H123.5V80V79H119.7V80ZM127.3 80V81H131.1V80V79H127.3V80ZM134.9 80V81H138.7V80V79H134.9V80ZM142.5 80V81H146.3V80V79H142.5V80ZM150.1 80V81H152V80V79H150.1V80Z" fill="#C1DAFF" mask="url(#path-17-inside-9_56_1883)"/>
<mask id="path-19-inside-10_56_1883" fill="white">
<path d="M152 40H228V80H152V40Z"/>
</mask>
<path d="M152 80H151.5V80.5H152V80ZM152 40H151.5V42H152H152.5V40H152ZM152 46H151.5V50H152H152.5V46H152ZM152 54H151.5V58H152H152.5V54H152ZM152 62H151.5V66H152H152.5V62H152ZM152 70H151.5V74H152H152.5V70H152ZM152 78H151.5V80H152H152.5V78H152ZM152 80V80.5H153.9V80V79.5H152V80ZM157.7 80V80.5H161.5V80V79.5H157.7V80ZM165.3 80V80.5H169.1V80V79.5H165.3V80ZM172.9 80V80.5H176.7V80V79.5H172.9V80ZM180.5 80V80.5H184.3V80V79.5H180.5V80ZM188.1 80V80.5H191.9V80V79.5H188.1V80ZM195.7 80V80.5H199.5V80V79.5H195.7V80ZM203.3 80V80.5H207.1V80V79.5H203.3V80ZM210.9 80V80.5H214.7V80V79.5H210.9V80ZM218.5 80V80.5H222.3V80V79.5H218.5V80ZM226.1 80V80.5H228V80V79.5H226.1V80ZM152 80H151V81H152V80ZM152 40H151V42H152H153V40H152ZM152 46H151V50H152H153V46H152ZM152 54H151V58H152H153V54H152ZM152 62H151V66H152H153V62H152ZM152 70H151V74H152H153V70H152ZM152 78H151V80H152H153V78H152ZM152 80V81H153.9V80V79H152V80ZM157.7 80V81H161.5V80V79H157.7V80ZM165.3 80V81H169.1V80V79H165.3V80ZM172.9 80V81H176.7V80V79H172.9V80ZM180.5 80V81H184.3V80V79H180.5V80ZM188.1 80V81H191.9V80V79H188.1V80ZM195.7 80V81H199.5V80V79H195.7V80ZM203.3 80V81H207.1V80V79H203.3V80ZM210.9 80V81H214.7V80V79H210.9V80ZM218.5 80V81H222.3V80V79H218.5V80ZM226.1 80V81H228V80V79H226.1V80Z" fill="#C1DAFF" mask="url(#path-19-inside-10_56_1883)"/>
<mask id="path-21-inside-11_56_1883" fill="white">
<path d="M228 40H304V80H228V40Z"/>
</mask>
<path d="M228 80H227.5V80.5H228V80ZM228 40H227.5V42H228H228.5V40H228ZM228 46H227.5V50H228H228.5V46H228ZM228 54H227.5V58H228H228.5V54H228ZM228 62H227.5V66H228H228.5V62H228ZM228 70H227.5V74H228H228.5V70H228ZM228 78H227.5V80H228H228.5V78H228ZM228 80V80.5H229.9V80V79.5H228V80ZM233.7 80V80.5H237.5V80V79.5H233.7V80ZM241.3 80V80.5H245.1V80V79.5H241.3V80ZM248.9 80V80.5H252.7V80V79.5H248.9V80ZM256.5 80V80.5H260.3V80V79.5H256.5V80ZM264.1 80V80.5H267.9V80V79.5H264.1V80ZM271.7 80V80.5H275.5V80V79.5H271.7V80ZM279.3 80V80.5H283.1V80V79.5H279.3V80ZM286.9 80V80.5H290.7V80V79.5H286.9V80ZM294.5 80V80.5H298.3V80V79.5H294.5V80ZM302.1 80V80.5H304V80V79.5H302.1V80ZM228 80H227V81H228V80ZM228 40H227V42H228H229V40H228ZM228 46H227V50H228H229V46H228ZM228 54H227V58H228H229V54H228ZM228 62H227V66H228H229V62H228ZM228 70H227V74H228H229V70H228ZM228 78H227V80H228H229V78H228ZM228 80V81H229.9V80V79H228V80ZM233.7 80V81H237.5V80V79H233.7V80ZM241.3 80V81H245.1V80V79H241.3V80ZM248.9 80V81H252.7V80V79H248.9V80ZM256.5 80V81H260.3V80V79H256.5V80ZM264.1 80V81H267.9V80V79H264.1V80ZM271.7 80V81H275.5V80V79H271.7V80ZM279.3 80V81H283.1V80V79H279.3V80ZM286.9 80V81H290.7V80V79H286.9V80ZM294.5 80V81H298.3V80V79H294.5V80ZM302.1 80V81H304V80V79H302.1V80Z" fill="#C1DAFF" mask="url(#path-21-inside-11_56_1883)"/>
<mask id="path-23-inside-12_56_1883" fill="white">
<path d="M304 40H380V80H304V40Z"/>
</mask>
<path d="M304 80H303.5V80.5H304V80ZM304 40H303.5V42H304H304.5V40H304ZM304 46H303.5V50H304H304.5V46H304ZM304 54H303.5V58H304H304.5V54H304ZM304 62H303.5V66H304H304.5V62H304ZM304 70H303.5V74H304H304.5V70H304ZM304 78H303.5V80H304H304.5V78H304ZM304 80V80.5H305.9V80V79.5H304V80ZM309.7 80V80.5H313.5V80V79.5H309.7V80ZM317.3 80V80.5H321.1V80V79.5H317.3V80ZM324.9 80V80.5H328.7V80V79.5H324.9V80ZM332.5 80V80.5H336.3V80V79.5H332.5V80ZM340.1 80V80.5H343.9V80V79.5H340.1V80ZM347.7 80V80.5H351.5V80V79.5H347.7V80ZM355.3 80V80.5H359.1V80V79.5H355.3V80ZM362.9 80V80.5H366.7V80V79.5H362.9V80ZM370.5 80V80.5H374.3V80V79.5H370.5V80ZM378.1 80V80.5H380V80V79.5H378.1V80ZM304 80H303V81H304V80ZM304 40H303V42H304H305V40H304ZM304 46H303V50H304H305V46H304ZM304 54H303V58H304H305V54H304ZM304 62H303V66H304H305V62H304ZM304 70H303V74H304H305V70H304ZM304 78H303V80H304H305V78H304ZM304 80V81H305.9V80V79H304V80ZM309.7 80V81H313.5V80V79H309.7V80ZM317.3 80V81H321.1V80V79H317.3V80ZM324.9 80V81H328.7V80V79H324.9V80ZM332.5 80V81H336.3V80V79H332.5V80ZM340.1 80V81H343.9V80V79H340.1V80ZM347.7 80V81H351.5V80V79H347.7V80ZM355.3 80V81H359.1V80V79H355.3V80ZM362.9 80V81H366.7V80V79H362.9V80ZM370.5 80V81H374.3V80V79H370.5V80ZM378.1 80V81H380V80V79H378.1V80Z" fill="#C1DAFF" mask="url(#path-23-inside-12_56_1883)"/>
<mask id="path-25-inside-13_56_1883" fill="white">
<path d="M380 40H456V80H380V40Z"/>
</mask>
<path d="M380 80H379.5V80.5H380V80ZM380 40H379.5V42H380H380.5V40H380ZM380 46H379.5V50H380H380.5V46H380ZM380 54H379.5V58H380H380.5V54H380ZM380 62H379.5V66H380H380.5V62H380ZM380 70H379.5V74H380H380.5V70H380ZM380 78H379.5V80H380H380.5V78H380ZM380 80V80.5H381.9V80V79.5H380V80ZM385.7 80V80.5H389.5V80V79.5H385.7V80ZM393.3 80V80.5H397.1V80V79.5H393.3V80ZM400.9 80V80.5H404.7V80V79.5H400.9V80ZM408.5 80V80.5H412.3V80V79.5H408.5V80ZM416.1 80V80.5H419.9V80V79.5H416.1V80ZM423.7 80V80.5H427.5V80V79.5H423.7V80ZM431.3 80V80.5H435.1V80V79.5H431.3V80ZM438.9 80V80.5H442.7V80V79.5H438.9V80ZM446.5 80V80.5H450.3V80V79.5H446.5V80ZM454.1 80V80.5H456V80V79.5H454.1V80ZM380 80H379V81H380V80ZM380 40H379V42H380H381V40H380ZM380 46H379V50H380H381V46H380ZM380 54H379V58H380H381V54H380ZM380 62H379V66H380H381V62H380ZM380 70H379V74H380H381V70H380ZM380 78H379V80H380H381V78H380ZM380 80V81H381.9V80V79H380V80ZM385.7 80V81H389.5V80V79H385.7V80ZM393.3 80V81H397.1V80V79H393.3V80ZM400.9 80V81H404.7V80V79H400.9V80ZM408.5 80V81H412.3V80V79H408.5V80ZM416.1 80V81H419.9V80V79H416.1V80ZM423.7 80V81H427.5V80V79H423.7V80ZM431.3 80V81H435.1V80V79H431.3V80ZM438.9 80V81H442.7V80V79H438.9V80ZM446.5 80V81H450.3V80V79H446.5V80ZM454.1 80V81H456V80V79H454.1V80Z" fill="#C1DAFF" mask="url(#path-25-inside-13_56_1883)"/>
<mask id="path-27-inside-14_56_1883" fill="white">
<path d="M456 40H532V80H456V40Z"/>
</mask>
<path d="M456 80H455.5V80.5H456V80ZM456 40H455.5V42H456H456.5V40H456ZM456 46H455.5V50H456H456.5V46H456ZM456 54H455.5V58H456H456.5V54H456ZM456 62H455.5V66H456H456.5V62H456ZM456 70H455.5V74H456H456.5V70H456ZM456 78H455.5V80H456H456.5V78H456ZM456 80V80.5H457.9V80V79.5H456V80ZM461.7 80V80.5H465.5V80V79.5H461.7V80ZM469.3 80V80.5H473.1V80V79.5H469.3V80ZM476.9 80V80.5H480.7V80V79.5H476.9V80ZM484.5 80V80.5H488.3V80V79.5H484.5V80ZM492.1 80V80.5H495.9V80V79.5H492.1V80ZM499.7 80V80.5H503.5V80V79.5H499.7V80ZM507.3 80V80.5H511.1V80V79.5H507.3V80ZM514.9 80V80.5H518.7V80V79.5H514.9V80ZM522.5 80V80.5H526.3V80V79.5H522.5V80ZM530.1 80V80.5H532V80V79.5H530.1V80ZM456 80H455V81H456V80ZM456 40H455V42H456H457V40H456ZM456 46H455V50H456H457V46H456ZM456 54H455V58H456H457V54H456ZM456 62H455V66H456H457V62H456ZM456 70H455V74H456H457V70H456ZM456 78H455V80H456H457V78H456ZM456 80V81H457.9V80V79H456V80ZM461.7 80V81H465.5V80V79H461.7V80ZM469.3 80V81H473.1V80V79H469.3V80ZM476.9 80V81H480.7V80V79H476.9V80ZM484.5 80V81H488.3V80V79H484.5V80ZM492.1 80V81H495.9V80V79H492.1V80ZM499.7 80V81H503.5V80V79H499.7V80ZM507.3 80V81H511.1V80V79H507.3V80ZM514.9 80V81H518.7V80V79H514.9V80ZM522.5 80V81H526.3V80V79H522.5V80ZM530.1 80V81H532V80V79H530.1V80Z" fill="#C1DAFF" mask="url(#path-27-inside-14_56_1883)"/>
<mask id="path-29-inside-15_56_1883" fill="white">
<path d="M0 80H76V120H0V80Z"/>
</mask>
<path d="M0 120V120.5H1.9V120V119.5H0V120ZM5.7 120V120.5H9.5V120V119.5H5.7V120ZM13.3 120V120.5H17.1V120V119.5H13.3V120ZM20.9 120V120.5H24.7V120V119.5H20.9V120ZM28.5 120V120.5H32.3V120V119.5H28.5V120ZM36.1 120V120.5H39.9V120V119.5H36.1V120ZM43.7 120V120.5H47.5V120V119.5H43.7V120ZM51.3 120V120.5H55.1V120V119.5H51.3V120ZM58.9 120V120.5H62.7V120V119.5H58.9V120ZM66.5 120V120.5H70.3V120V119.5H66.5V120ZM74.1 120V120.5H76V120V119.5H74.1V120ZM0 120V121H1.9V120V119H0V120ZM5.7 120V121H9.5V120V119H5.7V120ZM13.3 120V121H17.1V120V119H13.3V120ZM20.9 120V121H24.7V120V119H20.9V120ZM28.5 120V121H32.3V120V119H28.5V120ZM36.1 120V121H39.9V120V119H36.1V120ZM43.7 120V121H47.5V120V119H43.7V120ZM51.3 120V121H55.1V120V119H51.3V120ZM58.9 120V121H62.7V120V119H58.9V120ZM66.5 120V121H70.3V120V119H66.5V120ZM74.1 120V121H76V120V119H74.1V120Z" fill="#C1DAFF" mask="url(#path-29-inside-15_56_1883)"/>
<mask id="path-31-inside-16_56_1883" fill="white">
<path d="M76 80H152V120H76V80Z"/>
</mask>
<path d="M76 120H75.5V120.5H76V120ZM76 80H75.5V82H76H76.5V80H76ZM76 86H75.5V90H76H76.5V86H76ZM76 94H75.5V98H76H76.5V94H76ZM76 102H75.5V106H76H76.5V102H76ZM76 110H75.5V114H76H76.5V110H76ZM76 118H75.5V120H76H76.5V118H76ZM76 120V120.5H77.9V120V119.5H76V120ZM81.7 120V120.5H85.5V120V119.5H81.7V120ZM89.3 120V120.5H93.1V120V119.5H89.3V120ZM96.9 120V120.5H100.7V120V119.5H96.9V120ZM104.5 120V120.5H108.3V120V119.5H104.5V120ZM112.1 120V120.5H115.9V120V119.5H112.1V120ZM119.7 120V120.5H123.5V120V119.5H119.7V120ZM127.3 120V120.5H131.1V120V119.5H127.3V120ZM134.9 120V120.5H138.7V120V119.5H134.9V120ZM142.5 120V120.5H146.3V120V119.5H142.5V120ZM150.1 120V120.5H152V120V119.5H150.1V120ZM76 120H75V121H76V120ZM76 80H75V82H76H77V80H76ZM76 86H75V90H76H77V86H76ZM76 94H75V98H76H77V94H76ZM76 102H75V106H76H77V102H76ZM76 110H75V114H76H77V110H76ZM76 118H75V120H76H77V118H76ZM76 120V121H77.9V120V119H76V120ZM81.7 120V121H85.5V120V119H81.7V120ZM89.3 120V121H93.1V120V119H89.3V120ZM96.9 120V121H100.7V120V119H96.9V120ZM104.5 120V121H108.3V120V119H104.5V120ZM112.1 120V121H115.9V120V119H112.1V120ZM119.7 120V121H123.5V120V119H119.7V120ZM127.3 120V121H131.1V120V119H127.3V120ZM134.9 120V121H138.7V120V119H134.9V120ZM142.5 120V121H146.3V120V119H142.5V120ZM150.1 120V121H152V120V119H150.1V120Z" fill="#C1DAFF" mask="url(#path-31-inside-16_56_1883)"/>
<mask id="path-33-inside-17_56_1883" fill="white">
<path d="M152 80H228V120H152V80Z"/>
</mask>
<path d="M152 120H151.5V120.5H152V120ZM152 80H151.5V82H152H152.5V80H152ZM152 86H151.5V90H152H152.5V86H152ZM152 94H151.5V98H152H152.5V94H152ZM152 102H151.5V106H152H152.5V102H152ZM152 110H151.5V114H152H152.5V110H152ZM152 118H151.5V120H152H152.5V118H152ZM152 120V120.5H153.9V120V119.5H152V120ZM157.7 120V120.5H161.5V120V119.5H157.7V120ZM165.3 120V120.5H169.1V120V119.5H165.3V120ZM172.9 120V120.5H176.7V120V119.5H172.9V120ZM180.5 120V120.5H184.3V120V119.5H180.5V120ZM188.1 120V120.5H191.9V120V119.5H188.1V120ZM195.7 120V120.5H199.5V120V119.5H195.7V120ZM203.3 120V120.5H207.1V120V119.5H203.3V120ZM210.9 120V120.5H214.7V120V119.5H210.9V120ZM218.5 120V120.5H222.3V120V119.5H218.5V120ZM226.1 120V120.5H228V120V119.5H226.1V120ZM152 120H151V121H152V120ZM152 80H151V82H152H153V80H152ZM152 86H151V90H152H153V86H152ZM152 94H151V98H152H153V94H152ZM152 102H151V106H152H153V102H152ZM152 110H151V114H152H153V110H152ZM152 118H151V120H152H153V118H152ZM152 120V121H153.9V120V119H152V120ZM157.7 120V121H161.5V120V119H157.7V120ZM165.3 120V121H169.1V120V119H165.3V120ZM172.9 120V121H176.7V120V119H172.9V120ZM180.5 120V121H184.3V120V119H180.5V120ZM188.1 120V121H191.9V120V119H188.1V120ZM195.7 120V121H199.5V120V119H195.7V120ZM203.3 120V121H207.1V120V119H203.3V120ZM210.9 120V121H214.7V120V119H210.9V120ZM218.5 120V121H222.3V120V119H218.5V120ZM226.1 120V121H228V120V119H226.1V120Z" fill="#C1DAFF" mask="url(#path-33-inside-17_56_1883)"/>
<mask id="path-35-inside-18_56_1883" fill="white">
<path d="M228 80H304V120H228V80Z"/>
</mask>
<path d="M228 120H227.5V120.5H228V120ZM228 80H227.5V82H228H228.5V80H228ZM228 86H227.5V90H228H228.5V86H228ZM228 94H227.5V98H228H228.5V94H228ZM228 102H227.5V106H228H228.5V102H228ZM228 110H227.5V114H228H228.5V110H228ZM228 118H227.5V120H228H228.5V118H228ZM228 120V120.5H229.9V120V119.5H228V120ZM233.7 120V120.5H237.5V120V119.5H233.7V120ZM241.3 120V120.5H245.1V120V119.5H241.3V120ZM248.9 120V120.5H252.7V120V119.5H248.9V120ZM256.5 120V120.5H260.3V120V119.5H256.5V120ZM264.1 120V120.5H267.9V120V119.5H264.1V120ZM271.7 120V120.5H275.5V120V119.5H271.7V120ZM279.3 120V120.5H283.1V120V119.5H279.3V120ZM286.9 120V120.5H290.7V120V119.5H286.9V120ZM294.5 120V120.5H298.3V120V119.5H294.5V120ZM302.1 120V120.5H304V120V119.5H302.1V120ZM228 120H227V121H228V120ZM228 80H227V82H228H229V80H228ZM228 86H227V90H228H229V86H228ZM228 94H227V98H228H229V94H228ZM228 102H227V106H228H229V102H228ZM228 110H227V114H228H229V110H228ZM228 118H227V120H228H229V118H228ZM228 120V121H229.9V120V119H228V120ZM233.7 120V121H237.5V120V119H233.7V120ZM241.3 120V121H245.1V120V119H241.3V120ZM248.9 120V121H252.7V120V119H248.9V120ZM256.5 120V121H260.3V120V119H256.5V120ZM264.1 120V121H267.9V120V119H264.1V120ZM271.7 120V121H275.5V120V119H271.7V120ZM279.3 120V121H283.1V120V119H279.3V120ZM286.9 120V121H290.7V120V119H286.9V120ZM294.5 120V121H298.3V120V119H294.5V120ZM302.1 120V121H304V120V119H302.1V120Z" fill="#C1DAFF" mask="url(#path-35-inside-18_56_1883)"/>
<mask id="path-37-inside-19_56_1883" fill="white">
<path d="M304 80H380V120H304V80Z"/>
</mask>
<path d="M304 120H303.5V120.5H304V120ZM304 80H303.5V82H304H304.5V80H304ZM304 86H303.5V90H304H304.5V86H304ZM304 94H303.5V98H304H304.5V94H304ZM304 102H303.5V106H304H304.5V102H304ZM304 110H303.5V114H304H304.5V110H304ZM304 118H303.5V120H304H304.5V118H304ZM304 120V120.5H305.9V120V119.5H304V120ZM309.7 120V120.5H313.5V120V119.5H309.7V120ZM317.3 120V120.5H321.1V120V119.5H317.3V120ZM324.9 120V120.5H328.7V120V119.5H324.9V120ZM332.5 120V120.5H336.3V120V119.5H332.5V120ZM340.1 120V120.5H343.9V120V119.5H340.1V120ZM347.7 120V120.5H351.5V120V119.5H347.7V120ZM355.3 120V120.5H359.1V120V119.5H355.3V120ZM362.9 120V120.5H366.7V120V119.5H362.9V120ZM370.5 120V120.5H374.3V120V119.5H370.5V120ZM378.1 120V120.5H380V120V119.5H378.1V120ZM304 120H303V121H304V120ZM304 80H303V82H304H305V80H304ZM304 86H303V90H304H305V86H304ZM304 94H303V98H304H305V94H304ZM304 102H303V106H304H305V102H304ZM304 110H303V114H304H305V110H304ZM304 118H303V120H304H305V118H304ZM304 120V121H305.9V120V119H304V120ZM309.7 120V121H313.5V120V119H309.7V120ZM317.3 120V121H321.1V120V119H317.3V120ZM324.9 120V121H328.7V120V119H324.9V120ZM332.5 120V121H336.3V120V119H332.5V120ZM340.1 120V121H343.9V120V119H340.1V120ZM347.7 120V121H351.5V120V119H347.7V120ZM355.3 120V121H359.1V120V119H355.3V120ZM362.9 120V121H366.7V120V119H362.9V120ZM370.5 120V121H374.3V120V119H370.5V120ZM378.1 120V121H380V120V119H378.1V120Z" fill="#C1DAFF" mask="url(#path-37-inside-19_56_1883)"/>
<mask id="path-39-inside-20_56_1883" fill="white">
<path d="M380 80H456V120H380V80Z"/>
</mask>
<path d="M380 120H379.5V120.5H380V120ZM380 80H379.5V82H380H380.5V80H380ZM380 86H379.5V90H380H380.5V86H380ZM380 94H379.5V98H380H380.5V94H380ZM380 102H379.5V106H380H380.5V102H380ZM380 110H379.5V114H380H380.5V110H380ZM380 118H379.5V120H380H380.5V118H380ZM380 120V120.5H381.9V120V119.5H380V120ZM385.7 120V120.5H389.5V120V119.5H385.7V120ZM393.3 120V120.5H397.1V120V119.5H393.3V120ZM400.9 120V120.5H404.7V120V119.5H400.9V120ZM408.5 120V120.5H412.3V120V119.5H408.5V120ZM416.1 120V120.5H419.9V120V119.5H416.1V120ZM423.7 120V120.5H427.5V120V119.5H423.7V120ZM431.3 120V120.5H435.1V120V119.5H431.3V120ZM438.9 120V120.5H442.7V120V119.5H438.9V120ZM446.5 120V120.5H450.3V120V119.5H446.5V120ZM454.1 120V120.5H456V120V119.5H454.1V120ZM380 120H379V121H380V120ZM380 80H379V82H380H381V80H380ZM380 86H379V90H380H381V86H380ZM380 94H379V98H380H381V94H380ZM380 102H379V106H380H381V102H380ZM380 110H379V114H380H381V110H380ZM380 118H379V120H380H381V118H380ZM380 120V121H381.9V120V119H380V120ZM385.7 120V121H389.5V120V119H385.7V120ZM393.3 120V121H397.1V120V119H393.3V120ZM400.9 120V121H404.7V120V119H400.9V120ZM408.5 120V121H412.3V120V119H408.5V120ZM416.1 120V121H419.9V120V119H416.1V120ZM423.7 120V121H427.5V120V119H423.7V120ZM431.3 120V121H435.1V120V119H431.3V120ZM438.9 120V121H442.7V120V119H438.9V120ZM446.5 120V121H450.3V120V119H446.5V120ZM454.1 120V121H456V120V119H454.1V120Z" fill="#C1DAFF" mask="url(#path-39-inside-20_56_1883)"/>
<mask id="path-41-inside-21_56_1883" fill="white">
<path d="M456 80H532V120H456V80Z"/>
</mask>
<path d="M456 120H455.5V120.5H456V120ZM456 80H455.5V82H456H456.5V80H456ZM456 86H455.5V90H456H456.5V86H456ZM456 94H455.5V98H456H456.5V94H456ZM456 102H455.5V106H456H456.5V102H456ZM456 110H455.5V114H456H456.5V110H456ZM456 118H455.5V120H456H456.5V118H456ZM456 120V120.5H457.9V120V119.5H456V120ZM461.7 120V120.5H465.5V120V119.5H461.7V120ZM469.3 120V120.5H473.1V120V119.5H469.3V120ZM476.9 120V120.5H480.7V120V119.5H476.9V120ZM484.5 120V120.5H488.3V120V119.5H484.5V120ZM492.1 120V120.5H495.9V120V119.5H492.1V120ZM499.7 120V120.5H503.5V120V119.5H499.7V120ZM507.3 120V120.5H511.1V120V119.5H507.3V120ZM514.9 120V120.5H518.7V120V119.5H514.9V120ZM522.5 120V120.5H526.3V120V119.5H522.5V120ZM530.1 120V120.5H532V120V119.5H530.1V120ZM456 120H455V121H456V120ZM456 80H455V82H456H457V80H456ZM456 86H455V90H456H457V86H456ZM456 94H455V98H456H457V94H456ZM456 102H455V106H456H457V102H456ZM456 110H455V114H456H457V110H456ZM456 118H455V120H456H457V118H456ZM456 120V121H457.9V120V119H456V120ZM461.7 120V121H465.5V120V119H461.7V120ZM469.3 120V121H473.1V120V119H469.3V120ZM476.9 120V121H480.7V120V119H476.9V120ZM484.5 120V121H488.3V120V119H484.5V120ZM492.1 120V121H495.9V120V119H492.1V120ZM499.7 120V121H503.5V120V119H499.7V120ZM507.3 120V121H511.1V120V119H507.3V120ZM514.9 120V121H518.7V120V119H514.9V120ZM522.5 120V121H526.3V120V119H522.5V120ZM530.1 120V121H532V120V119H530.1V120Z" fill="#C1DAFF" mask="url(#path-41-inside-21_56_1883)"/>
<mask id="path-43-inside-22_56_1883" fill="white">
<path d="M0 120H76V160H0V120Z"/>
</mask>
<path d="M0 160V160.5H1.9V160V159.5H0V160ZM5.7 160V160.5H9.5V160V159.5H5.7V160ZM13.3 160V160.5H17.1V160V159.5H13.3V160ZM20.9 160V160.5H24.7V160V159.5H20.9V160ZM28.5 160V160.5H32.3V160V159.5H28.5V160ZM36.1 160V160.5H39.9V160V159.5H36.1V160ZM43.7 160V160.5H47.5V160V159.5H43.7V160ZM51.3 160V160.5H55.1V160V159.5H51.3V160ZM58.9 160V160.5H62.7V160V159.5H58.9V160ZM66.5 160V160.5H70.3V160V159.5H66.5V160ZM74.1 160V160.5H76V160V159.5H74.1V160ZM0 160V161H1.9V160V159H0V160ZM5.7 160V161H9.5V160V159H5.7V160ZM13.3 160V161H17.1V160V159H13.3V160ZM20.9 160V161H24.7V160V159H20.9V160ZM28.5 160V161H32.3V160V159H28.5V160ZM36.1 160V161H39.9V160V159H36.1V160ZM43.7 160V161H47.5V160V159H43.7V160ZM51.3 160V161H55.1V160V159H51.3V160ZM58.9 160V161H62.7V160V159H58.9V160ZM66.5 160V161H70.3V160V159H66.5V160ZM74.1 160V161H76V160V159H74.1V160Z" fill="#C1DAFF" mask="url(#path-43-inside-22_56_1883)"/>
<mask id="path-45-inside-23_56_1883" fill="white">
<path d="M76 120H152V160H76V120Z"/>
</mask>
<path d="M76 160H75.5V160.5H76V160ZM76 120H75.5V122H76H76.5V120H76ZM76 126H75.5V130H76H76.5V126H76ZM76 134H75.5V138H76H76.5V134H76ZM76 142H75.5V146H76H76.5V142H76ZM76 150H75.5V154H76H76.5V150H76ZM76 158H75.5V160H76H76.5V158H76ZM76 160V160.5H77.9V160V159.5H76V160ZM81.7 160V160.5H85.5V160V159.5H81.7V160ZM89.3 160V160.5H93.1V160V159.5H89.3V160ZM96.9 160V160.5H100.7V160V159.5H96.9V160ZM104.5 160V160.5H108.3V160V159.5H104.5V160ZM112.1 160V160.5H115.9V160V159.5H112.1V160ZM119.7 160V160.5H123.5V160V159.5H119.7V160ZM127.3 160V160.5H131.1V160V159.5H127.3V160ZM134.9 160V160.5H138.7V160V159.5H134.9V160ZM142.5 160V160.5H146.3V160V159.5H142.5V160ZM150.1 160V160.5H152V160V159.5H150.1V160ZM76 160H75V161H76V160ZM76 120H75V122H76H77V120H76ZM76 126H75V130H76H77V126H76ZM76 134H75V138H76H77V134H76ZM76 142H75V146H76H77V142H76ZM76 150H75V154H76H77V150H76ZM76 158H75V160H76H77V158H76ZM76 160V161H77.9V160V159H76V160ZM81.7 160V161H85.5V160V159H81.7V160ZM89.3 160V161H93.1V160V159H89.3V160ZM96.9 160V161H100.7V160V159H96.9V160ZM104.5 160V161H108.3V160V159H104.5V160ZM112.1 160V161H115.9V160V159H112.1V160ZM119.7 160V161H123.5V160V159H119.7V160ZM127.3 160V161H131.1V160V159H127.3V160ZM134.9 160V161H138.7V160V159H134.9V160ZM142.5 160V161H146.3V160V159H142.5V160ZM150.1 160V161H152V160V159H150.1V160Z" fill="#C1DAFF" mask="url(#path-45-inside-23_56_1883)"/>
<mask id="path-47-inside-24_56_1883" fill="white">
<path d="M152 120H228V160H152V120Z"/>
</mask>
<path d="M152 160H151.5V160.5H152V160ZM152 120H151.5V122H152H152.5V120H152ZM152 126H151.5V130H152H152.5V126H152ZM152 134H151.5V138H152H152.5V134H152ZM152 142H151.5V146H152H152.5V142H152ZM152 150H151.5V154H152H152.5V150H152ZM152 158H151.5V160H152H152.5V158H152ZM152 160V160.5H153.9V160V159.5H152V160ZM157.7 160V160.5H161.5V160V159.5H157.7V160ZM165.3 160V160.5H169.1V160V159.5H165.3V160ZM172.9 160V160.5H176.7V160V159.5H172.9V160ZM180.5 160V160.5H184.3V160V159.5H180.5V160ZM188.1 160V160.5H191.9V160V159.5H188.1V160ZM195.7 160V160.5H199.5V160V159.5H195.7V160ZM203.3 160V160.5H207.1V160V159.5H203.3V160ZM210.9 160V160.5H214.7V160V159.5H210.9V160ZM218.5 160V160.5H222.3V160V159.5H218.5V160ZM226.1 160V160.5H228V160V159.5H226.1V160ZM152 160H151V161H152V160ZM152 120H151V122H152H153V120H152ZM152 126H151V130H152H153V126H152ZM152 134H151V138H152H153V134H152ZM152 142H151V146H152H153V142H152ZM152 150H151V154H152H153V150H152ZM152 158H151V160H152H153V158H152ZM152 160V161H153.9V160V159H152V160ZM157.7 160V161H161.5V160V159H157.7V160ZM165.3 160V161H169.1V160V159H165.3V160ZM172.9 160V161H176.7V160V159H172.9V160ZM180.5 160V161H184.3V160V159H180.5V160ZM188.1 160V161H191.9V160V159H188.1V160ZM195.7 160V161H199.5V160V159H195.7V160ZM203.3 160V161H207.1V160V159H203.3V160ZM210.9 160V161H214.7V160V159H210.9V160ZM218.5 160V161H222.3V160V159H218.5V160ZM226.1 160V161H228V160V159H226.1V160Z" fill="#C1DAFF" mask="url(#path-47-inside-24_56_1883)"/>
<mask id="path-49-inside-25_56_1883" fill="white">
<path d="M228 120H304V160H228V120Z"/>
</mask>
<path d="M228 160H227.5V160.5H228V160ZM228 120H227.5V122H228H228.5V120H228ZM228 126H227.5V130H228H228.5V126H228ZM228 134H227.5V138H228H228.5V134H228ZM228 142H227.5V146H228H228.5V142H228ZM228 150H227.5V154H228H228.5V150H228ZM228 158H227.5V160H228H228.5V158H228ZM228 160V160.5H229.9V160V159.5H228V160ZM233.7 160V160.5H237.5V160V159.5H233.7V160ZM241.3 160V160.5H245.1V160V159.5H241.3V160ZM248.9 160V160.5H252.7V160V159.5H248.9V160ZM256.5 160V160.5H260.3V160V159.5H256.5V160ZM264.1 160V160.5H267.9V160V159.5H264.1V160ZM271.7 160V160.5H275.5V160V159.5H271.7V160ZM279.3 160V160.5H283.1V160V159.5H279.3V160ZM286.9 160V160.5H290.7V160V159.5H286.9V160ZM294.5 160V160.5H298.3V160V159.5H294.5V160ZM302.1 160V160.5H304V160V159.5H302.1V160ZM228 160H227V161H228V160ZM228 120H227V122H228H229V120H228ZM228 126H227V130H228H229V126H228ZM228 134H227V138H228H229V134H228ZM228 142H227V146H228H229V142H228ZM228 150H227V154H228H229V150H228ZM228 158H227V160H228H229V158H228ZM228 160V161H229.9V160V159H228V160ZM233.7 160V161H237.5V160V159H233.7V160ZM241.3 160V161H245.1V160V159H241.3V160ZM248.9 160V161H252.7V160V159H248.9V160ZM256.5 160V161H260.3V160V159H256.5V160ZM264.1 160V161H267.9V160V159H264.1V160ZM271.7 160V161H275.5V160V159H271.7V160ZM279.3 160V161H283.1V160V159H279.3V160ZM286.9 160V161H290.7V160V159H286.9V160ZM294.5 160V161H298.3V160V159H294.5V160ZM302.1 160V161H304V160V159H302.1V160Z" fill="#C1DAFF" mask="url(#path-49-inside-25_56_1883)"/>
<mask id="path-51-inside-26_56_1883" fill="white">
<path d="M304 120H380V160H304V120Z"/>
</mask>
<path d="M304 160H303.5V160.5H304V160ZM304 120H303.5V122H304H304.5V120H304ZM304 126H303.5V130H304H304.5V126H304ZM304 134H303.5V138H304H304.5V134H304ZM304 142H303.5V146H304H304.5V142H304ZM304 150H303.5V154H304H304.5V150H304ZM304 158H303.5V160H304H304.5V158H304ZM304 160V160.5H305.9V160V159.5H304V160ZM309.7 160V160.5H313.5V160V159.5H309.7V160ZM317.3 160V160.5H321.1V160V159.5H317.3V160ZM324.9 160V160.5H328.7V160V159.5H324.9V160ZM332.5 160V160.5H336.3V160V159.5H332.5V160ZM340.1 160V160.5H343.9V160V159.5H340.1V160ZM347.7 160V160.5H351.5V160V159.5H347.7V160ZM355.3 160V160.5H359.1V160V159.5H355.3V160ZM362.9 160V160.5H366.7V160V159.5H362.9V160ZM370.5 160V160.5H374.3V160V159.5H370.5V160ZM378.1 160V160.5H380V160V159.5H378.1V160ZM304 160H303V161H304V160ZM304 120H303V122H304H305V120H304ZM304 126H303V130H304H305V126H304ZM304 134H303V138H304H305V134H304ZM304 142H303V146H304H305V142H304ZM304 150H303V154H304H305V150H304ZM304 158H303V160H304H305V158H304ZM304 160V161H305.9V160V159H304V160ZM309.7 160V161H313.5V160V159H309.7V160ZM317.3 160V161H321.1V160V159H317.3V160ZM324.9 160V161H328.7V160V159H324.9V160ZM332.5 160V161H336.3V160V159H332.5V160ZM340.1 160V161H343.9V160V159H340.1V160ZM347.7 160V161H351.5V160V159H347.7V160ZM355.3 160V161H359.1V160V159H355.3V160ZM362.9 160V161H366.7V160V159H362.9V160ZM370.5 160V161H374.3V160V159H370.5V160ZM378.1 160V161H380V160V159H378.1V160Z" fill="#C1DAFF" mask="url(#path-51-inside-26_56_1883)"/>
<mask id="path-53-inside-27_56_1883" fill="white">
<path d="M380 120H456V160H380V120Z"/>
</mask>
<path d="M380 160H379.5V160.5H380V160ZM380 120H379.5V122H380H380.5V120H380ZM380 126H379.5V130H380H380.5V126H380ZM380 134H379.5V138H380H380.5V134H380ZM380 142H379.5V146H380H380.5V142H380ZM380 150H379.5V154H380H380.5V150H380ZM380 158H379.5V160H380H380.5V158H380ZM380 160V160.5H381.9V160V159.5H380V160ZM385.7 160V160.5H389.5V160V159.5H385.7V160ZM393.3 160V160.5H397.1V160V159.5H393.3V160ZM400.9 160V160.5H404.7V160V159.5H400.9V160ZM408.5 160V160.5H412.3V160V159.5H408.5V160ZM416.1 160V160.5H419.9V160V159.5H416.1V160ZM423.7 160V160.5H427.5V160V159.5H423.7V160ZM431.3 160V160.5H435.1V160V159.5H431.3V160ZM438.9 160V160.5H442.7V160V159.5H438.9V160ZM446.5 160V160.5H450.3V160V159.5H446.5V160ZM454.1 160V160.5H456V160V159.5H454.1V160ZM380 160H379V161H380V160ZM380 120H379V122H380H381V120H380ZM380 126H379V130H380H381V126H380ZM380 134H379V138H380H381V134H380ZM380 142H379V146H380H381V142H380ZM380 150H379V154H380H381V150H380ZM380 158H379V160H380H381V158H380ZM380 160V161H381.9V160V159H380V160ZM385.7 160V161H389.5V160V159H385.7V160ZM393.3 160V161H397.1V160V159H393.3V160ZM400.9 160V161H404.7V160V159H400.9V160ZM408.5 160V161H412.3V160V159H408.5V160ZM416.1 160V161H419.9V160V159H416.1V160ZM423.7 160V161H427.5V160V159H423.7V160ZM431.3 160V161H435.1V160V159H431.3V160ZM438.9 160V161H442.7V160V159H438.9V160ZM446.5 160V161H450.3V160V159H446.5V160ZM454.1 160V161H456V160V159H454.1V160Z" fill="#C1DAFF" mask="url(#path-53-inside-27_56_1883)"/>
<mask id="path-55-inside-28_56_1883" fill="white">
<path d="M456 120H532V160H456V120Z"/>
</mask>
<path d="M456 160H455.5V160.5H456V160ZM456 120H455.5V122H456H456.5V120H456ZM456 126H455.5V130H456H456.5V126H456ZM456 134H455.5V138H456H456.5V134H456ZM456 142H455.5V146H456H456.5V142H456ZM456 150H455.5V154H456H456.5V150H456ZM456 158H455.5V160H456H456.5V158H456ZM456 160V160.5H457.9V160V159.5H456V160ZM461.7 160V160.5H465.5V160V159.5H461.7V160ZM469.3 160V160.5H473.1V160V159.5H469.3V160ZM476.9 160V160.5H480.7V160V159.5H476.9V160ZM484.5 160V160.5H488.3V160V159.5H484.5V160ZM492.1 160V160.5H495.9V160V159.5H492.1V160ZM499.7 160V160.5H503.5V160V159.5H499.7V160ZM507.3 160V160.5H511.1V160V159.5H507.3V160ZM514.9 160V160.5H518.7V160V159.5H514.9V160ZM522.5 160V160.5H526.3V160V159.5H522.5V160ZM530.1 160V160.5H532V160V159.5H530.1V160ZM456 160H455V161H456V160ZM456 120H455V122H456H457V120H456ZM456 126H455V130H456H457V126H456ZM456 134H455V138H456H457V134H456ZM456 142H455V146H456H457V142H456ZM456 150H455V154H456H457V150H456ZM456 158H455V160H456H457V158H456ZM456 160V161H457.9V160V159H456V160ZM461.7 160V161H465.5V160V159H461.7V160ZM469.3 160V161H473.1V160V159H469.3V160ZM476.9 160V161H480.7V160V159H476.9V160ZM484.5 160V161H488.3V160V159H484.5V160ZM492.1 160V161H495.9V160V159H492.1V160ZM499.7 160V161H503.5V160V159H499.7V160ZM507.3 160V161H511.1V160V159H507.3V160ZM514.9 160V161H518.7V160V159H514.9V160ZM522.5 160V161H526.3V160V159H522.5V160ZM530.1 160V161H532V160V159H530.1V160Z" fill="#C1DAFF" mask="url(#path-55-inside-28_56_1883)"/>
<mask id="path-57-inside-29_56_1883" fill="white">
<path d="M0 160H76V200H0V160Z"/>
</mask>
<path d="M0 200V200.5H1.9V200V199.5H0V200ZM5.7 200V200.5H9.5V200V199.5H5.7V200ZM13.3 200V200.5H17.1V200V199.5H13.3V200ZM20.9 200V200.5H24.7V200V199.5H20.9V200ZM28.5 200V200.5H32.3V200V199.5H28.5V200ZM36.1 200V200.5H39.9V200V199.5H36.1V200ZM43.7 200V200.5H47.5V200V199.5H43.7V200ZM51.3 200V200.5H55.1V200V199.5H51.3V200ZM58.9 200V200.5H62.7V200V199.5H58.9V200ZM66.5 200V200.5H70.3V200V199.5H66.5V200ZM74.1 200V200.5H76V200V199.5H74.1V200ZM0 200V201H1.9V200V199H0V200ZM5.7 200V201H9.5V200V199H5.7V200ZM13.3 200V201H17.1V200V199H13.3V200ZM20.9 200V201H24.7V200V199H20.9V200ZM28.5 200V201H32.3V200V199H28.5V200ZM36.1 200V201H39.9V200V199H36.1V200ZM43.7 200V201H47.5V200V199H43.7V200ZM51.3 200V201H55.1V200V199H51.3V200ZM58.9 200V201H62.7V200V199H58.9V200ZM66.5 200V201H70.3V200V199H66.5V200ZM74.1 200V201H76V200V199H74.1V200Z" fill="#C1DAFF" mask="url(#path-57-inside-29_56_1883)"/>
<mask id="path-59-inside-30_56_1883" fill="white">
<path d="M76 160H152V200H76V160Z"/>
</mask>
<path d="M76 200H75.5V200.5H76V200ZM76 160H75.5V162H76H76.5V160H76ZM76 166H75.5V170H76H76.5V166H76ZM76 174H75.5V178H76H76.5V174H76ZM76 182H75.5V186H76H76.5V182H76ZM76 190H75.5V194H76H76.5V190H76ZM76 198H75.5V200H76H76.5V198H76ZM76 200V200.5H77.9V200V199.5H76V200ZM81.7 200V200.5H85.5V200V199.5H81.7V200ZM89.3 200V200.5H93.1V200V199.5H89.3V200ZM96.9 200V200.5H100.7V200V199.5H96.9V200ZM104.5 200V200.5H108.3V200V199.5H104.5V200ZM112.1 200V200.5H115.9V200V199.5H112.1V200ZM119.7 200V200.5H123.5V200V199.5H119.7V200ZM127.3 200V200.5H131.1V200V199.5H127.3V200ZM134.9 200V200.5H138.7V200V199.5H134.9V200ZM142.5 200V200.5H146.3V200V199.5H142.5V200ZM150.1 200V200.5H152V200V199.5H150.1V200ZM76 200H75V201H76V200ZM76 160H75V162H76H77V160H76ZM76 166H75V170H76H77V166H76ZM76 174H75V178H76H77V174H76ZM76 182H75V186H76H77V182H76ZM76 190H75V194H76H77V190H76ZM76 198H75V200H76H77V198H76ZM76 200V201H77.9V200V199H76V200ZM81.7 200V201H85.5V200V199H81.7V200ZM89.3 200V201H93.1V200V199H89.3V200ZM96.9 200V201H100.7V200V199H96.9V200ZM104.5 200V201H108.3V200V199H104.5V200ZM112.1 200V201H115.9V200V199H112.1V200ZM119.7 200V201H123.5V200V199H119.7V200ZM127.3 200V201H131.1V200V199H127.3V200ZM134.9 200V201H138.7V200V199H134.9V200ZM142.5 200V201H146.3V200V199H142.5V200ZM150.1 200V201H152V200V199H150.1V200Z" fill="#C1DAFF" mask="url(#path-59-inside-30_56_1883)"/>
<mask id="path-61-inside-31_56_1883" fill="white">
<path d="M152 160H228V200H152V160Z"/>
</mask>
<path d="M152 200H151.5V200.5H152V200ZM152 160H151.5V162H152H152.5V160H152ZM152 166H151.5V170H152H152.5V166H152ZM152 174H151.5V178H152H152.5V174H152ZM152 182H151.5V186H152H152.5V182H152ZM152 190H151.5V194H152H152.5V190H152ZM152 198H151.5V200H152H152.5V198H152ZM152 200V200.5H153.9V200V199.5H152V200ZM157.7 200V200.5H161.5V200V199.5H157.7V200ZM165.3 200V200.5H169.1V200V199.5H165.3V200ZM172.9 200V200.5H176.7V200V199.5H172.9V200ZM180.5 200V200.5H184.3V200V199.5H180.5V200ZM188.1 200V200.5H191.9V200V199.5H188.1V200ZM195.7 200V200.5H199.5V200V199.5H195.7V200ZM203.3 200V200.5H207.1V200V199.5H203.3V200ZM210.9 200V200.5H214.7V200V199.5H210.9V200ZM218.5 200V200.5H222.3V200V199.5H218.5V200ZM226.1 200V200.5H228V200V199.5H226.1V200ZM152 200H151V201H152V200ZM152 160H151V162H152H153V160H152ZM152 166H151V170H152H153V166H152ZM152 174H151V178H152H153V174H152ZM152 182H151V186H152H153V182H152ZM152 190H151V194H152H153V190H152ZM152 198H151V200H152H153V198H152ZM152 200V201H153.9V200V199H152V200ZM157.7 200V201H161.5V200V199H157.7V200ZM165.3 200V201H169.1V200V199H165.3V200ZM172.9 200V201H176.7V200V199H172.9V200ZM180.5 200V201H184.3V200V199H180.5V200ZM188.1 200V201H191.9V200V199H188.1V200ZM195.7 200V201H199.5V200V199H195.7V200ZM203.3 200V201H207.1V200V199H203.3V200ZM210.9 200V201H214.7V200V199H210.9V200ZM218.5 200V201H222.3V200V199H218.5V200ZM226.1 200V201H228V200V199H226.1V200Z" fill="#C1DAFF" mask="url(#path-61-inside-31_56_1883)"/>
<mask id="path-63-inside-32_56_1883" fill="white">
<path d="M228 160H304V200H228V160Z"/>
</mask>
<path d="M228 200H227.5V200.5H228V200ZM228 160H227.5V162H228H228.5V160H228ZM228 166H227.5V170H228H228.5V166H228ZM228 174H227.5V178H228H228.5V174H228ZM228 182H227.5V186H228H228.5V182H228ZM228 190H227.5V194H228H228.5V190H228ZM228 198H227.5V200H228H228.5V198H228ZM228 200V200.5H229.9V200V199.5H228V200ZM233.7 200V200.5H237.5V200V199.5H233.7V200ZM241.3 200V200.5H245.1V200V199.5H241.3V200ZM248.9 200V200.5H252.7V200V199.5H248.9V200ZM256.5 200V200.5H260.3V200V199.5H256.5V200ZM264.1 200V200.5H267.9V200V199.5H264.1V200ZM271.7 200V200.5H275.5V200V199.5H271.7V200ZM279.3 200V200.5H283.1V200V199.5H279.3V200ZM286.9 200V200.5H290.7V200V199.5H286.9V200ZM294.5 200V200.5H298.3V200V199.5H294.5V200ZM302.1 200V200.5H304V200V199.5H302.1V200ZM228 200H227V201H228V200ZM228 160H227V162H228H229V160H228ZM228 166H227V170H228H229V166H228ZM228 174H227V178H228H229V174H228ZM228 182H227V186H228H229V182H228ZM228 190H227V194H228H229V190H228ZM228 198H227V200H228H229V198H228ZM228 200V201H229.9V200V199H228V200ZM233.7 200V201H237.5V200V199H233.7V200ZM241.3 200V201H245.1V200V199H241.3V200ZM248.9 200V201H252.7V200V199H248.9V200ZM256.5 200V201H260.3V200V199H256.5V200ZM264.1 200V201H267.9V200V199H264.1V200ZM271.7 200V201H275.5V200V199H271.7V200ZM279.3 200V201H283.1V200V199H279.3V200ZM286.9 200V201H290.7V200V199H286.9V200ZM294.5 200V201H298.3V200V199H294.5V200ZM302.1 200V201H304V200V199H302.1V200Z" fill="#C1DAFF" mask="url(#path-63-inside-32_56_1883)"/>
<mask id="path-65-inside-33_56_1883" fill="white">
<path d="M304 160H380V200H304V160Z"/>
</mask>
<path d="M304 200H303.5V200.5H304V200ZM304 160H303.5V162H304H304.5V160H304ZM304 166H303.5V170H304H304.5V166H304ZM304 174H303.5V178H304H304.5V174H304ZM304 182H303.5V186H304H304.5V182H304ZM304 190H303.5V194H304H304.5V190H304ZM304 198H303.5V200H304H304.5V198H304ZM304 200V200.5H305.9V200V199.5H304V200ZM309.7 200V200.5H313.5V200V199.5H309.7V200ZM317.3 200V200.5H321.1V200V199.5H317.3V200ZM324.9 200V200.5H328.7V200V199.5H324.9V200ZM332.5 200V200.5H336.3V200V199.5H332.5V200ZM340.1 200V200.5H343.9V200V199.5H340.1V200ZM347.7 200V200.5H351.5V200V199.5H347.7V200ZM355.3 200V200.5H359.1V200V199.5H355.3V200ZM362.9 200V200.5H366.7V200V199.5H362.9V200ZM370.5 200V200.5H374.3V200V199.5H370.5V200ZM378.1 200V200.5H380V200V199.5H378.1V200ZM304 200H303V201H304V200ZM304 160H303V162H304H305V160H304ZM304 166H303V170H304H305V166H304ZM304 174H303V178H304H305V174H304ZM304 182H303V186H304H305V182H304ZM304 190H303V194H304H305V190H304ZM304 198H303V200H304H305V198H304ZM304 200V201H305.9V200V199H304V200ZM309.7 200V201H313.5V200V199H309.7V200ZM317.3 200V201H321.1V200V199H317.3V200ZM324.9 200V201H328.7V200V199H324.9V200ZM332.5 200V201H336.3V200V199H332.5V200ZM340.1 200V201H343.9V200V199H340.1V200ZM347.7 200V201H351.5V200V199H347.7V200ZM355.3 200V201H359.1V200V199H355.3V200ZM362.9 200V201H366.7V200V199H362.9V200ZM370.5 200V201H374.3V200V199H370.5V200ZM378.1 200V201H380V200V199H378.1V200Z" fill="#C1DAFF" mask="url(#path-65-inside-33_56_1883)"/>
<mask id="path-67-inside-34_56_1883" fill="white">
<path d="M380 160H456V200H380V160Z"/>
</mask>
<path d="M380 200H379.5V200.5H380V200ZM380 160H379.5V162H380H380.5V160H380ZM380 166H379.5V170H380H380.5V166H380ZM380 174H379.5V178H380H380.5V174H380ZM380 182H379.5V186H380H380.5V182H380ZM380 190H379.5V194H380H380.5V190H380ZM380 198H379.5V200H380H380.5V198H380ZM380 200V200.5H381.9V200V199.5H380V200ZM385.7 200V200.5H389.5V200V199.5H385.7V200ZM393.3 200V200.5H397.1V200V199.5H393.3V200ZM400.9 200V200.5H404.7V200V199.5H400.9V200ZM408.5 200V200.5H412.3V200V199.5H408.5V200ZM416.1 200V200.5H419.9V200V199.5H416.1V200ZM423.7 200V200.5H427.5V200V199.5H423.7V200ZM431.3 200V200.5H435.1V200V199.5H431.3V200ZM438.9 200V200.5H442.7V200V199.5H438.9V200ZM446.5 200V200.5H450.3V200V199.5H446.5V200ZM454.1 200V200.5H456V200V199.5H454.1V200ZM380 200H379V201H380V200ZM380 160H379V162H380H381V160H380ZM380 166H379V170H380H381V166H380ZM380 174H379V178H380H381V174H380ZM380 182H379V186H380H381V182H380ZM380 190H379V194H380H381V190H380ZM380 198H379V200H380H381V198H380ZM380 200V201H381.9V200V199H380V200ZM385.7 200V201H389.5V200V199H385.7V200ZM393.3 200V201H397.1V200V199H393.3V200ZM400.9 200V201H404.7V200V199H400.9V200ZM408.5 200V201H412.3V200V199H408.5V200ZM416.1 200V201H419.9V200V199H416.1V200ZM423.7 200V201H427.5V200V199H423.7V200ZM431.3 200V201H435.1V200V199H431.3V200ZM438.9 200V201H442.7V200V199H438.9V200ZM446.5 200V201H450.3V200V199H446.5V200ZM454.1 200V201H456V200V199H454.1V200Z" fill="#C1DAFF" mask="url(#path-67-inside-34_56_1883)"/>
<mask id="path-69-inside-35_56_1883" fill="white">
<path d="M456 160H532V200H456V160Z"/>
</mask>
<path d="M456 200H455.5V200.5H456V200ZM456 160H455.5V162H456H456.5V160H456ZM456 166H455.5V170H456H456.5V166H456ZM456 174H455.5V178H456H456.5V174H456ZM456 182H455.5V186H456H456.5V182H456ZM456 190H455.5V194H456H456.5V190H456ZM456 198H455.5V200H456H456.5V198H456ZM456 200V200.5H457.9V200V199.5H456V200ZM461.7 200V200.5H465.5V200V199.5H461.7V200ZM469.3 200V200.5H473.1V200V199.5H469.3V200ZM476.9 200V200.5H480.7V200V199.5H476.9V200ZM484.5 200V200.5H488.3V200V199.5H484.5V200ZM492.1 200V200.5H495.9V200V199.5H492.1V200ZM499.7 200V200.5H503.5V200V199.5H499.7V200ZM507.3 200V200.5H511.1V200V199.5H507.3V200ZM514.9 200V200.5H518.7V200V199.5H514.9V200ZM522.5 200V200.5H526.3V200V199.5H522.5V200ZM530.1 200V200.5H532V200V199.5H530.1V200ZM456 200H455V201H456V200ZM456 160H455V162H456H457V160H456ZM456 166H455V170H456H457V166H456ZM456 174H455V178H456H457V174H456ZM456 182H455V186H456H457V182H456ZM456 190H455V194H456H457V190H456ZM456 198H455V200H456H457V198H456ZM456 200V201H457.9V200V199H456V200ZM461.7 200V201H465.5V200V199H461.7V200ZM469.3 200V201H473.1V200V199H469.3V200ZM476.9 200V201H480.7V200V199H476.9V200ZM484.5 200V201H488.3V200V199H484.5V200ZM492.1 200V201H495.9V200V199H492.1V200ZM499.7 200V201H503.5V200V199H499.7V200ZM507.3 200V201H511.1V200V199H507.3V200ZM514.9 200V201H518.7V200V199H514.9V200ZM522.5 200V201H526.3V200V199H522.5V200ZM530.1 200V201H532V200V199H530.1V200Z" fill="#C1DAFF" mask="url(#path-69-inside-35_56_1883)"/>
<mask id="path-71-inside-36_56_1883" fill="white">
<path d="M0 200H76V240H0V200Z"/>
</mask>
<path d="M0 240V240.5H1.9V240V239.5H0V240ZM5.7 240V240.5H9.5V240V239.5H5.7V240ZM13.3 240V240.5H17.1V240V239.5H13.3V240ZM20.9 240V240.5H24.7V240V239.5H20.9V240ZM28.5 240V240.5H32.3V240V239.5H28.5V240ZM36.1 240V240.5H39.9V240V239.5H36.1V240ZM43.7 240V240.5H47.5V240V239.5H43.7V240ZM51.3 240V240.5H55.1V240V239.5H51.3V240ZM58.9 240V240.5H62.7V240V239.5H58.9V240ZM66.5 240V240.5H70.3V240V239.5H66.5V240ZM74.1 240V240.5H76V240V239.5H74.1V240ZM0 240V241H1.9V240V239H0V240ZM5.7 240V241H9.5V240V239H5.7V240ZM13.3 240V241H17.1V240V239H13.3V240ZM20.9 240V241H24.7V240V239H20.9V240ZM28.5 240V241H32.3V240V239H28.5V240ZM36.1 240V241H39.9V240V239H36.1V240ZM43.7 240V241H47.5V240V239H43.7V240ZM51.3 240V241H55.1V240V239H51.3V240ZM58.9 240V241H62.7V240V239H58.9V240ZM66.5 240V241H70.3V240V239H66.5V240ZM74.1 240V241H76V240V239H74.1V240Z" fill="#C1DAFF" mask="url(#path-71-inside-36_56_1883)"/>
<mask id="path-73-inside-37_56_1883" fill="white">
<path d="M76 200H152V240H76V200Z"/>
</mask>
<path d="M76 240H75.5V240.5H76V240ZM76 200H75.5V202H76H76.5V200H76ZM76 206H75.5V210H76H76.5V206H76ZM76 214H75.5V218H76H76.5V214H76ZM76 222H75.5V226H76H76.5V222H76ZM76 230H75.5V234H76H76.5V230H76ZM76 238H75.5V240H76H76.5V238H76ZM76 240V240.5H77.9V240V239.5H76V240ZM81.7 240V240.5H85.5V240V239.5H81.7V240ZM89.3 240V240.5H93.1V240V239.5H89.3V240ZM96.9 240V240.5H100.7V240V239.5H96.9V240ZM104.5 240V240.5H108.3V240V239.5H104.5V240ZM112.1 240V240.5H115.9V240V239.5H112.1V240ZM119.7 240V240.5H123.5V240V239.5H119.7V240ZM127.3 240V240.5H131.1V240V239.5H127.3V240ZM134.9 240V240.5H138.7V240V239.5H134.9V240ZM142.5 240V240.5H146.3V240V239.5H142.5V240ZM150.1 240V240.5H152V240V239.5H150.1V240ZM76 240H75V241H76V240ZM76 200H75V202H76H77V200H76ZM76 206H75V210H76H77V206H76ZM76 214H75V218H76H77V214H76ZM76 222H75V226H76H77V222H76ZM76 230H75V234H76H77V230H76ZM76 238H75V240H76H77V238H76ZM76 240V241H77.9V240V239H76V240ZM81.7 240V241H85.5V240V239H81.7V240ZM89.3 240V241H93.1V240V239H89.3V240ZM96.9 240V241H100.7V240V239H96.9V240ZM104.5 240V241H108.3V240V239H104.5V240ZM112.1 240V241H115.9V240V239H112.1V240ZM119.7 240V241H123.5V240V239H119.7V240ZM127.3 240V241H131.1V240V239H127.3V240ZM134.9 240V241H138.7V240V239H134.9V240ZM142.5 240V241H146.3V240V239H142.5V240ZM150.1 240V241H152V240V239H150.1V240Z" fill="#C1DAFF" mask="url(#path-73-inside-37_56_1883)"/>
<mask id="path-75-inside-38_56_1883" fill="white">
<path d="M152 200H228V240H152V200Z"/>
</mask>
<path d="M152 240H151.5V240.5H152V240ZM152 200H151.5V202H152H152.5V200H152ZM152 206H151.5V210H152H152.5V206H152ZM152 214H151.5V218H152H152.5V214H152ZM152 222H151.5V226H152H152.5V222H152ZM152 230H151.5V234H152H152.5V230H152ZM152 238H151.5V240H152H152.5V238H152ZM152 240V240.5H153.9V240V239.5H152V240ZM157.7 240V240.5H161.5V240V239.5H157.7V240ZM165.3 240V240.5H169.1V240V239.5H165.3V240ZM172.9 240V240.5H176.7V240V239.5H172.9V240ZM180.5 240V240.5H184.3V240V239.5H180.5V240ZM188.1 240V240.5H191.9V240V239.5H188.1V240ZM195.7 240V240.5H199.5V240V239.5H195.7V240ZM203.3 240V240.5H207.1V240V239.5H203.3V240ZM210.9 240V240.5H214.7V240V239.5H210.9V240ZM218.5 240V240.5H222.3V240V239.5H218.5V240ZM226.1 240V240.5H228V240V239.5H226.1V240ZM152 240H151V241H152V240ZM152 200H151V202H152H153V200H152ZM152 206H151V210H152H153V206H152ZM152 214H151V218H152H153V214H152ZM152 222H151V226H152H153V222H152ZM152 230H151V234H152H153V230H152ZM152 238H151V240H152H153V238H152ZM152 240V241H153.9V240V239H152V240ZM157.7 240V241H161.5V240V239H157.7V240ZM165.3 240V241H169.1V240V239H165.3V240ZM172.9 240V241H176.7V240V239H172.9V240ZM180.5 240V241H184.3V240V239H180.5V240ZM188.1 240V241H191.9V240V239H188.1V240ZM195.7 240V241H199.5V240V239H195.7V240ZM203.3 240V241H207.1V240V239H203.3V240ZM210.9 240V241H214.7V240V239H210.9V240ZM218.5 240V241H222.3V240V239H218.5V240ZM226.1 240V241H228V240V239H226.1V240Z" fill="#C1DAFF" mask="url(#path-75-inside-38_56_1883)"/>
<mask id="path-77-inside-39_56_1883" fill="white">
<path d="M228 200H304V240H228V200Z"/>
</mask>
<path d="M228 240H227.5V240.5H228V240ZM228 200H227.5V202H228H228.5V200H228ZM228 206H227.5V210H228H228.5V206H228ZM228 214H227.5V218H228H228.5V214H228ZM228 222H227.5V226H228H228.5V222H228ZM228 230H227.5V234H228H228.5V230H228ZM228 238H227.5V240H228H228.5V238H228ZM228 240V240.5H229.9V240V239.5H228V240ZM233.7 240V240.5H237.5V240V239.5H233.7V240ZM241.3 240V240.5H245.1V240V239.5H241.3V240ZM248.9 240V240.5H252.7V240V239.5H248.9V240ZM256.5 240V240.5H260.3V240V239.5H256.5V240ZM264.1 240V240.5H267.9V240V239.5H264.1V240ZM271.7 240V240.5H275.5V240V239.5H271.7V240ZM279.3 240V240.5H283.1V240V239.5H279.3V240ZM286.9 240V240.5H290.7V240V239.5H286.9V240ZM294.5 240V240.5H298.3V240V239.5H294.5V240ZM302.1 240V240.5H304V240V239.5H302.1V240ZM228 240H227V241H228V240ZM228 200H227V202H228H229V200H228ZM228 206H227V210H228H229V206H228ZM228 214H227V218H228H229V214H228ZM228 222H227V226H228H229V222H228ZM228 230H227V234H228H229V230H228ZM228 238H227V240H228H229V238H228ZM228 240V241H229.9V240V239H228V240ZM233.7 240V241H237.5V240V239H233.7V240ZM241.3 240V241H245.1V240V239H241.3V240ZM248.9 240V241H252.7V240V239H248.9V240ZM256.5 240V241H260.3V240V239H256.5V240ZM264.1 240V241H267.9V240V239H264.1V240ZM271.7 240V241H275.5V240V239H271.7V240ZM279.3 240V241H283.1V240V239H279.3V240ZM286.9 240V241H290.7V240V239H286.9V240ZM294.5 240V241H298.3V240V239H294.5V240ZM302.1 240V241H304V240V239H302.1V240Z" fill="#C1DAFF" mask="url(#path-77-inside-39_56_1883)"/>
<mask id="path-79-inside-40_56_1883" fill="white">
<path d="M304 200H380V240H304V200Z"/>
</mask>
<path d="M304 240H303.5V240.5H304V240ZM304 200H303.5V202H304H304.5V200H304ZM304 206H303.5V210H304H304.5V206H304ZM304 214H303.5V218H304H304.5V214H304ZM304 222H303.5V226H304H304.5V222H304ZM304 230H303.5V234H304H304.5V230H304ZM304 238H303.5V240H304H304.5V238H304ZM304 240V240.5H305.9V240V239.5H304V240ZM309.7 240V240.5H313.5V240V239.5H309.7V240ZM317.3 240V240.5H321.1V240V239.5H317.3V240ZM324.9 240V240.5H328.7V240V239.5H324.9V240ZM332.5 240V240.5H336.3V240V239.5H332.5V240ZM340.1 240V240.5H343.9V240V239.5H340.1V240ZM347.7 240V240.5H351.5V240V239.5H347.7V240ZM355.3 240V240.5H359.1V240V239.5H355.3V240ZM362.9 240V240.5H366.7V240V239.5H362.9V240ZM370.5 240V240.5H374.3V240V239.5H370.5V240ZM378.1 240V240.5H380V240V239.5H378.1V240ZM304 240H303V241H304V240ZM304 200H303V202H304H305V200H304ZM304 206H303V210H304H305V206H304ZM304 214H303V218H304H305V214H304ZM304 222H303V226H304H305V222H304ZM304 230H303V234H304H305V230H304ZM304 238H303V240H304H305V238H304ZM304 240V241H305.9V240V239H304V240ZM309.7 240V241H313.5V240V239H309.7V240ZM317.3 240V241H321.1V240V239H317.3V240ZM324.9 240V241H328.7V240V239H324.9V240ZM332.5 240V241H336.3V240V239H332.5V240ZM340.1 240V241H343.9V240V239H340.1V240ZM347.7 240V241H351.5V240V239H347.7V240ZM355.3 240V241H359.1V240V239H355.3V240ZM362.9 240V241H366.7V240V239H362.9V240ZM370.5 240V241H374.3V240V239H370.5V240ZM378.1 240V241H380V240V239H378.1V240Z" fill="#C1DAFF" mask="url(#path-79-inside-40_56_1883)"/>
<mask id="path-81-inside-41_56_1883" fill="white">
<path d="M380 200H456V240H380V200Z"/>
</mask>
<path d="M380 240H379.5V240.5H380V240ZM380 200H379.5V202H380H380.5V200H380ZM380 206H379.5V210H380H380.5V206H380ZM380 214H379.5V218H380H380.5V214H380ZM380 222H379.5V226H380H380.5V222H380ZM380 230H379.5V234H380H380.5V230H380ZM380 238H379.5V240H380H380.5V238H380ZM380 240V240.5H381.9V240V239.5H380V240ZM385.7 240V240.5H389.5V240V239.5H385.7V240ZM393.3 240V240.5H397.1V240V239.5H393.3V240ZM400.9 240V240.5H404.7V240V239.5H400.9V240ZM408.5 240V240.5H412.3V240V239.5H408.5V240ZM416.1 240V240.5H419.9V240V239.5H416.1V240ZM423.7 240V240.5H427.5V240V239.5H423.7V240ZM431.3 240V240.5H435.1V240V239.5H431.3V240ZM438.9 240V240.5H442.7V240V239.5H438.9V240ZM446.5 240V240.5H450.3V240V239.5H446.5V240ZM454.1 240V240.5H456V240V239.5H454.1V240ZM380 240H379V241H380V240ZM380 200H379V202H380H381V200H380ZM380 206H379V210H380H381V206H380ZM380 214H379V218H380H381V214H380ZM380 222H379V226H380H381V222H380ZM380 230H379V234H380H381V230H380ZM380 238H379V240H380H381V238H380ZM380 240V241H381.9V240V239H380V240ZM385.7 240V241H389.5V240V239H385.7V240ZM393.3 240V241H397.1V240V239H393.3V240ZM400.9 240V241H404.7V240V239H400.9V240ZM408.5 240V241H412.3V240V239H408.5V240ZM416.1 240V241H419.9V240V239H416.1V240ZM423.7 240V241H427.5V240V239H423.7V240ZM431.3 240V241H435.1V240V239H431.3V240ZM438.9 240V241H442.7V240V239H438.9V240ZM446.5 240V241H450.3V240V239H446.5V240ZM454.1 240V241H456V240V239H454.1V240Z" fill="#C1DAFF" mask="url(#path-81-inside-41_56_1883)"/>
<mask id="path-83-inside-42_56_1883" fill="white">
<path d="M456 200H532V240H456V200Z"/>
</mask>
<path d="M456 240H455.5V240.5H456V240ZM456 200H455.5V202H456H456.5V200H456ZM456 206H455.5V210H456H456.5V206H456ZM456 214H455.5V218H456H456.5V214H456ZM456 222H455.5V226H456H456.5V222H456ZM456 230H455.5V234H456H456.5V230H456ZM456 238H455.5V240H456H456.5V238H456ZM456 240V240.5H457.9V240V239.5H456V240ZM461.7 240V240.5H465.5V240V239.5H461.7V240ZM469.3 240V240.5H473.1V240V239.5H469.3V240ZM476.9 240V240.5H480.7V240V239.5H476.9V240ZM484.5 240V240.5H488.3V240V239.5H484.5V240ZM492.1 240V240.5H495.9V240V239.5H492.1V240ZM499.7 240V240.5H503.5V240V239.5H499.7V240ZM507.3 240V240.5H511.1V240V239.5H507.3V240ZM514.9 240V240.5H518.7V240V239.5H514.9V240ZM522.5 240V240.5H526.3V240V239.5H522.5V240ZM530.1 240V240.5H532V240V239.5H530.1V240ZM456 240H455V241H456V240ZM456 200H455V202H456H457V200H456ZM456 206H455V210H456H457V206H456ZM456 214H455V218H456H457V214H456ZM456 222H455V226H456H457V222H456ZM456 230H455V234H456H457V230H456ZM456 238H455V240H456H457V238H456ZM456 240V241H457.9V240V239H456V240ZM461.7 240V241H465.5V240V239H461.7V240ZM469.3 240V241H473.1V240V239H469.3V240ZM476.9 240V241H480.7V240V239H476.9V240ZM484.5 240V241H488.3V240V239H484.5V240ZM492.1 240V241H495.9V240V239H492.1V240ZM499.7 240V241H503.5V240V239H499.7V240ZM507.3 240V241H511.1V240V239H507.3V240ZM514.9 240V241H518.7V240V239H514.9V240ZM522.5 240V241H526.3V240V239H522.5V240ZM530.1 240V241H532V240V239H530.1V240Z" fill="#C1DAFF" mask="url(#path-83-inside-42_56_1883)"/>
<mask id="path-85-inside-43_56_1883" fill="white">
<path d="M0 240H76V280H0V240Z"/>
</mask>
<path d="M0 280V280.5H1.9V280V279.5H0V280ZM5.7 280V280.5H9.5V280V279.5H5.7V280ZM13.3 280V280.5H17.1V280V279.5H13.3V280ZM20.9 280V280.5H24.7V280V279.5H20.9V280ZM28.5 280V280.5H32.3V280V279.5H28.5V280ZM36.1 280V280.5H39.9V280V279.5H36.1V280ZM43.7 280V280.5H47.5V280V279.5H43.7V280ZM51.3 280V280.5H55.1V280V279.5H51.3V280ZM58.9 280V280.5H62.7V280V279.5H58.9V280ZM66.5 280V280.5H70.3V280V279.5H66.5V280ZM74.1 280V280.5H76V280V279.5H74.1V280ZM0 280V281H1.9V280V279H0V280ZM5.7 280V281H9.5V280V279H5.7V280ZM13.3 280V281H17.1V280V279H13.3V280ZM20.9 280V281H24.7V280V279H20.9V280ZM28.5 280V281H32.3V280V279H28.5V280ZM36.1 280V281H39.9V280V279H36.1V280ZM43.7 280V281H47.5V280V279H43.7V280ZM51.3 280V281H55.1V280V279H51.3V280ZM58.9 280V281H62.7V280V279H58.9V280ZM66.5 280V281H70.3V280V279H66.5V280ZM74.1 280V281H76V280V279H74.1V280Z" fill="#C1DAFF" mask="url(#path-85-inside-43_56_1883)"/>
<mask id="path-87-inside-44_56_1883" fill="white">
<path d="M76 240H152V280H76V240Z"/>
</mask>
<path d="M76 280H75.5V280.5H76V280ZM76 240H75.5V242H76H76.5V240H76ZM76 246H75.5V250H76H76.5V246H76ZM76 254H75.5V258H76H76.5V254H76ZM76 262H75.5V266H76H76.5V262H76ZM76 270H75.5V274H76H76.5V270H76ZM76 278H75.5V280H76H76.5V278H76ZM76 280V280.5H77.9V280V279.5H76V280ZM81.7 280V280.5H85.5V280V279.5H81.7V280ZM89.3 280V280.5H93.1V280V279.5H89.3V280ZM96.9 280V280.5H100.7V280V279.5H96.9V280ZM104.5 280V280.5H108.3V280V279.5H104.5V280ZM112.1 280V280.5H115.9V280V279.5H112.1V280ZM119.7 280V280.5H123.5V280V279.5H119.7V280ZM127.3 280V280.5H131.1V280V279.5H127.3V280ZM134.9 280V280.5H138.7V280V279.5H134.9V280ZM142.5 280V280.5H146.3V280V279.5H142.5V280ZM150.1 280V280.5H152V280V279.5H150.1V280ZM76 280H75V281H76V280ZM76 240H75V242H76H77V240H76ZM76 246H75V250H76H77V246H76ZM76 254H75V258H76H77V254H76ZM76 262H75V266H76H77V262H76ZM76 270H75V274H76H77V270H76ZM76 278H75V280H76H77V278H76ZM76 280V281H77.9V280V279H76V280ZM81.7 280V281H85.5V280V279H81.7V280ZM89.3 280V281H93.1V280V279H89.3V280ZM96.9 280V281H100.7V280V279H96.9V280ZM104.5 280V281H108.3V280V279H104.5V280ZM112.1 280V281H115.9V280V279H112.1V280ZM119.7 280V281H123.5V280V279H119.7V280ZM127.3 280V281H131.1V280V279H127.3V280ZM134.9 280V281H138.7V280V279H134.9V280ZM142.5 280V281H146.3V280V279H142.5V280ZM150.1 280V281H152V280V279H150.1V280Z" fill="#C1DAFF" mask="url(#path-87-inside-44_56_1883)"/>
<mask id="path-89-inside-45_56_1883" fill="white">
<path d="M152 240H228V280H152V240Z"/>
</mask>
<path d="M152 280H151.5V280.5H152V280ZM152 240H151.5V242H152H152.5V240H152ZM152 246H151.5V250H152H152.5V246H152ZM152 254H151.5V258H152H152.5V254H152ZM152 262H151.5V266H152H152.5V262H152ZM152 270H151.5V274H152H152.5V270H152ZM152 278H151.5V280H152H152.5V278H152ZM152 280V280.5H153.9V280V279.5H152V280ZM157.7 280V280.5H161.5V280V279.5H157.7V280ZM165.3 280V280.5H169.1V280V279.5H165.3V280ZM172.9 280V280.5H176.7V280V279.5H172.9V280ZM180.5 280V280.5H184.3V280V279.5H180.5V280ZM188.1 280V280.5H191.9V280V279.5H188.1V280ZM195.7 280V280.5H199.5V280V279.5H195.7V280ZM203.3 280V280.5H207.1V280V279.5H203.3V280ZM210.9 280V280.5H214.7V280V279.5H210.9V280ZM218.5 280V280.5H222.3V280V279.5H218.5V280ZM226.1 280V280.5H228V280V279.5H226.1V280ZM152 280H151V281H152V280ZM152 240H151V242H152H153V240H152ZM152 246H151V250H152H153V246H152ZM152 254H151V258H152H153V254H152ZM152 262H151V266H152H153V262H152ZM152 270H151V274H152H153V270H152ZM152 278H151V280H152H153V278H152ZM152 280V281H153.9V280V279H152V280ZM157.7 280V281H161.5V280V279H157.7V280ZM165.3 280V281H169.1V280V279H165.3V280ZM172.9 280V281H176.7V280V279H172.9V280ZM180.5 280V281H184.3V280V279H180.5V280ZM188.1 280V281H191.9V280V279H188.1V280ZM195.7 280V281H199.5V280V279H195.7V280ZM203.3 280V281H207.1V280V279H203.3V280ZM210.9 280V281H214.7V280V279H210.9V280ZM218.5 280V281H222.3V280V279H218.5V280ZM226.1 280V281H228V280V279H226.1V280Z" fill="#C1DAFF" mask="url(#path-89-inside-45_56_1883)"/>
<mask id="path-91-inside-46_56_1883" fill="white">
<path d="M228 240H304V280H228V240Z"/>
</mask>
<path d="M228 280H227.5V280.5H228V280ZM228 240H227.5V242H228H228.5V240H228ZM228 246H227.5V250H228H228.5V246H228ZM228 254H227.5V258H228H228.5V254H228ZM228 262H227.5V266H228H228.5V262H228ZM228 270H227.5V274H228H228.5V270H228ZM228 278H227.5V280H228H228.5V278H228ZM228 280V280.5H229.9V280V279.5H228V280ZM233.7 280V280.5H237.5V280V279.5H233.7V280ZM241.3 280V280.5H245.1V280V279.5H241.3V280ZM248.9 280V280.5H252.7V280V279.5H248.9V280ZM256.5 280V280.5H260.3V280V279.5H256.5V280ZM264.1 280V280.5H267.9V280V279.5H264.1V280ZM271.7 280V280.5H275.5V280V279.5H271.7V280ZM279.3 280V280.5H283.1V280V279.5H279.3V280ZM286.9 280V280.5H290.7V280V279.5H286.9V280ZM294.5 280V280.5H298.3V280V279.5H294.5V280ZM302.1 280V280.5H304V280V279.5H302.1V280ZM228 280H227V281H228V280ZM228 240H227V242H228H229V240H228ZM228 246H227V250H228H229V246H228ZM228 254H227V258H228H229V254H228ZM228 262H227V266H228H229V262H228ZM228 270H227V274H228H229V270H228ZM228 278H227V280H228H229V278H228ZM228 280V281H229.9V280V279H228V280ZM233.7 280V281H237.5V280V279H233.7V280ZM241.3 280V281H245.1V280V279H241.3V280ZM248.9 280V281H252.7V280V279H248.9V280ZM256.5 280V281H260.3V280V279H256.5V280ZM264.1 280V281H267.9V280V279H264.1V280ZM271.7 280V281H275.5V280V279H271.7V280ZM279.3 280V281H283.1V280V279H279.3V280ZM286.9 280V281H290.7V280V279H286.9V280ZM294.5 280V281H298.3V280V279H294.5V280ZM302.1 280V281H304V280V279H302.1V280Z" fill="#C1DAFF" mask="url(#path-91-inside-46_56_1883)"/>
<mask id="path-93-inside-47_56_1883" fill="white">
<path d="M304 240H380V280H304V240Z"/>
</mask>
<path d="M304 280H303.5V280.5H304V280ZM304 240H303.5V242H304H304.5V240H304ZM304 246H303.5V250H304H304.5V246H304ZM304 254H303.5V258H304H304.5V254H304ZM304 262H303.5V266H304H304.5V262H304ZM304 270H303.5V274H304H304.5V270H304ZM304 278H303.5V280H304H304.5V278H304ZM304 280V280.5H305.9V280V279.5H304V280ZM309.7 280V280.5H313.5V280V279.5H309.7V280ZM317.3 280V280.5H321.1V280V279.5H317.3V280ZM324.9 280V280.5H328.7V280V279.5H324.9V280ZM332.5 280V280.5H336.3V280V279.5H332.5V280ZM340.1 280V280.5H343.9V280V279.5H340.1V280ZM347.7 280V280.5H351.5V280V279.5H347.7V280ZM355.3 280V280.5H359.1V280V279.5H355.3V280ZM362.9 280V280.5H366.7V280V279.5H362.9V280ZM370.5 280V280.5H374.3V280V279.5H370.5V280ZM378.1 280V280.5H380V280V279.5H378.1V280ZM304 280H303V281H304V280ZM304 240H303V242H304H305V240H304ZM304 246H303V250H304H305V246H304ZM304 254H303V258H304H305V254H304ZM304 262H303V266H304H305V262H304ZM304 270H303V274H304H305V270H304ZM304 278H303V280H304H305V278H304ZM304 280V281H305.9V280V279H304V280ZM309.7 280V281H313.5V280V279H309.7V280ZM317.3 280V281H321.1V280V279H317.3V280ZM324.9 280V281H328.7V280V279H324.9V280ZM332.5 280V281H336.3V280V279H332.5V280ZM340.1 280V281H343.9V280V279H340.1V280ZM347.7 280V281H351.5V280V279H347.7V280ZM355.3 280V281H359.1V280V279H355.3V280ZM362.9 280V281H366.7V280V279H362.9V280ZM370.5 280V281H374.3V280V279H370.5V280ZM378.1 280V281H380V280V279H378.1V280Z" fill="#C1DAFF" mask="url(#path-93-inside-47_56_1883)"/>
<mask id="path-95-inside-48_56_1883" fill="white">
<path d="M380 240H456V280H380V240Z"/>
</mask>
<path d="M380 280H379.5V280.5H380V280ZM380 240H379.5V242H380H380.5V240H380ZM380 246H379.5V250H380H380.5V246H380ZM380 254H379.5V258H380H380.5V254H380ZM380 262H379.5V266H380H380.5V262H380ZM380 270H379.5V274H380H380.5V270H380ZM380 278H379.5V280H380H380.5V278H380ZM380 280V280.5H381.9V280V279.5H380V280ZM385.7 280V280.5H389.5V280V279.5H385.7V280ZM393.3 280V280.5H397.1V280V279.5H393.3V280ZM400.9 280V280.5H404.7V280V279.5H400.9V280ZM408.5 280V280.5H412.3V280V279.5H408.5V280ZM416.1 280V280.5H419.9V280V279.5H416.1V280ZM423.7 280V280.5H427.5V280V279.5H423.7V280ZM431.3 280V280.5H435.1V280V279.5H431.3V280ZM438.9 280V280.5H442.7V280V279.5H438.9V280ZM446.5 280V280.5H450.3V280V279.5H446.5V280ZM454.1 280V280.5H456V280V279.5H454.1V280ZM380 280H379V281H380V280ZM380 240H379V242H380H381V240H380ZM380 246H379V250H380H381V246H380ZM380 254H379V258H380H381V254H380ZM380 262H379V266H380H381V262H380ZM380 270H379V274H380H381V270H380ZM380 278H379V280H380H381V278H380ZM380 280V281H381.9V280V279H380V280ZM385.7 280V281H389.5V280V279H385.7V280ZM393.3 280V281H397.1V280V279H393.3V280ZM400.9 280V281H404.7V280V279H400.9V280ZM408.5 280V281H412.3V280V279H408.5V280ZM416.1 280V281H419.9V280V279H416.1V280ZM423.7 280V281H427.5V280V279H423.7V280ZM431.3 280V281H435.1V280V279H431.3V280ZM438.9 280V281H442.7V280V279H438.9V280ZM446.5 280V281H450.3V280V279H446.5V280ZM454.1 280V281H456V280V279H454.1V280Z" fill="#C1DAFF" mask="url(#path-95-inside-48_56_1883)"/>
<mask id="path-97-inside-49_56_1883" fill="white">
<path d="M456 240H532V280H456V240Z"/>
</mask>
<path d="M456 280H455.5V280.5H456V280ZM456 240H455.5V242H456H456.5V240H456ZM456 246H455.5V250H456H456.5V246H456ZM456 254H455.5V258H456H456.5V254H456ZM456 262H455.5V266H456H456.5V262H456ZM456 270H455.5V274H456H456.5V270H456ZM456 278H455.5V280H456H456.5V278H456ZM456 280V280.5H457.9V280V279.5H456V280ZM461.7 280V280.5H465.5V280V279.5H461.7V280ZM469.3 280V280.5H473.1V280V279.5H469.3V280ZM476.9 280V280.5H480.7V280V279.5H476.9V280ZM484.5 280V280.5H488.3V280V279.5H484.5V280ZM492.1 280V280.5H495.9V280V279.5H492.1V280ZM499.7 280V280.5H503.5V280V279.5H499.7V280ZM507.3 280V280.5H511.1V280V279.5H507.3V280ZM514.9 280V280.5H518.7V280V279.5H514.9V280ZM522.5 280V280.5H526.3V280V279.5H522.5V280ZM530.1 280V280.5H532V280V279.5H530.1V280ZM456 280H455V281H456V280ZM456 240H455V242H456H457V240H456ZM456 246H455V250H456H457V246H456ZM456 254H455V258H456H457V254H456ZM456 262H455V266H456H457V262H456ZM456 270H455V274H456H457V270H456ZM456 278H455V280H456H457V278H456ZM456 280V281H457.9V280V279H456V280ZM461.7 280V281H465.5V280V279H461.7V280ZM469.3 280V281H473.1V280V279H469.3V280ZM476.9 280V281H480.7V280V279H476.9V280ZM484.5 280V281H488.3V280V279H484.5V280ZM492.1 280V281H495.9V280V279H492.1V280ZM499.7 280V281H503.5V280V279H499.7V280ZM507.3 280V281H511.1V280V279H507.3V280ZM514.9 280V281H518.7V280V279H514.9V280ZM522.5 280V281H526.3V280V279H522.5V280ZM530.1 280V281H532V280V279H530.1V280Z" fill="#C1DAFF" mask="url(#path-97-inside-49_56_1883)"/>
</svg>
