<svg xmlns="http://www.w3.org/2000/svg" width="60" height="60" fill="none" viewBox="0 0 60 60"><path fill="#D9D9D9" d="M60 30c0 16.569-13.431 30-30 30C13.432 60 0 46.569 0 30 0 13.432 13.432 0 30 0c16.569 0 30 13.432 30 30M6.633 30c0 12.905 10.462 23.367 23.367 23.367S53.367 42.905 53.367 30 42.905 6.633 30 6.633 6.633 17.095 6.633 30"/><path fill="#0561E6" d="M47.153 9.56c1.177-1.403 1.003-3.513-.522-4.528A30 30 0 0 0 .555 35.74c.35 1.797 2.23 2.77 3.979 2.224 1.748-.547 2.697-2.407 2.403-4.215a23.367 23.367 0 0 1 35.4-23.594c1.556.967 3.638.807 4.816-.596"/></svg>