<svg xmlns="http://www.w3.org/2000/svg" width="74" height="20" fill="none" viewBox="0 0 74 20"><mask id="a" width="74" height="20" x="0" y="0" maskUnits="userSpaceOnUse" style="mask-type:luminance"><path fill="#fff" d="M73.65 0H0v20h73.65z"/></mask><g fill="#060809" mask="url(#a)"><path d="M5.49 14.988a5 5 0 0 0 1.557 3.643l.008.007a4.95 4.95 0 0 0 6.245.47l4.896-3.81a4.3 4.3 0 0 0 1.219-1.504 4.3 4.3 0 0 0 .436-1.89V7.306l-7.537 5.864a3.95 3.95 0 0 1-3.177.706 3.9 3.9 0 0 1-1.52-.68 4 4 0 0 1-1.109-1.251 5 5 0 0 0-1.019 3.043m8.874-9.974a5 5 0 0 0-1.558-3.643h-.008A4.946 4.946 0 0 0 6.554.895l-4.9 3.81A4.3 4.3 0 0 0 .436 6.206 4.3 4.3 0 0 0 0 8.097v4.599l7.539-5.864a3.94 3.94 0 0 1 3.177-.706 3.9 3.9 0 0 1 1.52.68c.453.334.83.76 1.108 1.251a5 5 0 0 0 1.019-3.043M24.83 7.083V4.281h2.635V0h3.267v4.28h3.897v2.803h-3.897v7.657q0 1.102.566 1.696.565.593 1.516.596a4.25 4.25 0 0 0 1.815-.365l.22 2.975a7.5 7.5 0 0 1-2.402.358q-2.256 0-3.618-1.27-1.362-1.269-1.364-3.779V7.083zm12.428 8.439q0-2.238 1.722-3.483t5.238-1.614l2.852-.3v-.221q0-1.402-.894-2.207-.896-.804-2.388-.804-1.378 0-2.277.77-.9.769-1.048 2.131L37.52 9.24a5.56 5.56 0 0 1 2.109-3.599q1.742-1.367 4.16-1.367 2.931 0 4.71 1.595 1.78 1.595 1.784 4.41V20h-3.207v-2.54a4.75 4.75 0 0 1-1.95 1.845 5.8 5.8 0 0 1-2.798.695q-2.242 0-3.654-1.263a4.13 4.13 0 0 1-1.414-3.215m3.21-.088a1.84 1.84 0 0 0 .689 1.487q.689.57 1.832.57 1.873 0 2.966-1.177t1.12-3.09v-.635l-2.884.327q-1.833.192-2.778.852t-.946 1.666M52.926 20V0h3.267v20zm5.911-7.853a9 9 0 0 1 .491-2.973 8 8 0 0 1 1.392-2.5 6.4 6.4 0 0 1 2.33-1.742 7.6 7.6 0 0 1 3.17-.65 8.1 8.1 0 0 1 3.201.612 6.4 6.4 0 0 1 2.344 1.64 7.3 7.3 0 0 1 1.392 2.323c.323.869.487 1.789.484 2.717q.006.68-.06 1.358H62.047q.22 1.962 1.4 3.114t2.98 1.151q1.496 0 2.49-.679a3.1 3.1 0 0 0 1.29-1.92l3.092.784a5.77 5.77 0 0 1-2.433 3.41Q69.035 20 66.368 20a7.7 7.7 0 0 1-3.194-.65 6.6 6.6 0 0 1-2.382-1.742 8.1 8.1 0 0 1-1.443-2.5 8.6 8.6 0 0 1-.512-2.96m3.355-1.73h7.985q-.162-1.595-1.187-2.561-1.025-.967-2.768-.973-1.552 0-2.608.916-1.056.914-1.421 2.618"/></g></svg>