<svg width="77" height="86" viewBox="0 0 77 86" fill="none" xmlns="http://www.w3.org/2000/svg">
<path d="M22.6299 49.8557L18.8871 47.7057L2.54297 38.343V60.3542L38.4346 80.9211V58.91L22.6299 49.8557ZM14.278 58.4313L10.1348 56.0541V51.3404L14.278 53.7094V58.4313Z" stroke="#9CA3AF"/>
<path d="M14.2781 54.0016V58.4314L10.1349 56.0542L14.2781 54.0016Z" stroke="#9CA3AF"/>
<path d="M14.2781 53.7094V54.0015L10.1349 56.0542V51.3404L14.2781 53.7094Z" stroke="#9CA3AF"/>
<path d="M22.638 21.5488L18.8871 19.3988L2.54297 10.0361V32.0473L8.42684 35.4224L18.8871 41.418L26.4789 45.7748L30.6221 48.1439L32.9103 49.4582V27.439L22.638 21.5488ZM14.278 30.1244L10.1348 27.7554V23.0335L14.278 25.4107V30.1244Z" stroke="#9CA3AF"/>
<path d="M54.7787 55.7054L57.7533 57.4092L54.7787 63.1614L50.9296 70.6013L48.0612 76.1426L43.9507 84.0852V55.7865L38.4346 52.6224V30.6031L49.2544 36.8098L54.7787 39.982L57.7533 41.6858L56.1597 45.3043L53.9533 50.3264L53.4548 51.4541L52.229 54.245L54.7787 55.7054Z" stroke="#9CA3AF"/>
<path d="M14.2781 25.4107V25.7028L10.1349 27.7554V23.0335L14.2781 25.4107Z" stroke="#9CA3AF"/>
<path d="M14.2781 25.7028V30.1245L10.1349 27.7555L14.2781 25.7028Z" stroke="#9CA3AF"/>
<path d="M43.9507 55.7866V56.176L38.4346 58.9102L22.6298 49.8558L18.8871 47.7058L2.54297 38.3432L8.42684 35.4224L18.8871 41.4181L26.4789 45.7749L30.6221 48.1439L32.9103 49.4583L38.4346 46.716V52.6224L43.9507 55.7866Z" stroke="#9CA3AF"/>
<path d="M74.0974 49.2958L60.2948 75.9721L43.9507 84.0853L48.0612 76.1424L50.9296 70.6011L54.7786 63.1613L57.7533 57.409L60.2948 56.1515L74.0974 49.2958Z" stroke="#9CA3AF"/>
<path d="M74.0973 49.2959L60.2947 56.1516L57.7532 57.4091L54.7786 55.7054L52.2289 54.245L54.7786 52.9793L60.2947 50.2452L68.573 46.1318L74.0973 49.2959Z" stroke="#9CA3AF"/>
<path d="M74.0973 33.5725L68.573 46.1318L60.2947 50.2451L54.7786 52.9793L52.2289 54.245L53.4547 51.454L53.9532 50.3263L56.1596 45.3042L57.7532 41.6857L74.0973 33.5725Z" stroke="#9CA3AF"/>
<path d="M49.2546 19.3257V25.2322L38.4348 30.6031V46.7159L32.9105 49.4582V27.439L49.2546 19.3257Z" stroke="#9CA3AF"/>
<path d="M74.0974 33.5726L57.7533 41.6858L54.7787 39.9821L49.2544 36.8098L38.4346 30.6032L54.7787 22.49L74.0974 33.5726Z" stroke="#9CA3AF"/>
<path d="M43.9507 56.176V78.1872L38.4346 80.9213V58.9102L43.9507 56.176Z" stroke="#9CA3AF"/>
<path d="M49.2544 19.3257L32.9103 27.4389L22.638 21.5487L18.8871 19.3988L2.54297 10.0361L18.8871 1.92291L49.2544 19.3257Z" stroke="#9CA3AF"/>
</svg>
