<svg width="77" height="24" viewBox="0 0 77 24" fill="none" xmlns="http://www.w3.org/2000/svg">
<g clip-path="url(#clip0_754_3174)">
<path d="M16.5448 4.97495C16.5322 4.86245 16.4316 4.81245 16.3561 4.81245C16.2806 4.81245 14.6324 4.68745 14.6324 4.68745C14.6324 4.68745 13.4875 3.54995 13.3491 3.43745C13.2233 3.31245 12.9842 3.34995 12.8835 3.37495C12.871 3.37495 12.6319 3.44995 12.2419 3.57495C11.8518 2.46245 11.185 1.44995 9.98976 1.44995H9.87652C9.5494 1.02495 9.12162 0.824951 8.76933 0.824951C6.00136 0.824951 4.6677 4.26245 4.2525 6.01245C3.17047 6.34995 2.40299 6.57495 2.31492 6.61245C1.711 6.79995 1.69842 6.81245 1.62293 7.37495C1.56002 7.79995 -0.0126953 19.8875 -0.0126953 19.8875L12.2293 22.1624L18.8724 20.7374C18.885 20.7125 16.5574 5.08745 16.5448 4.97495ZM11.5625 3.74995C11.2605 3.83745 10.8956 3.94995 10.5308 4.07495V3.84995C10.5308 3.17495 10.4427 2.62495 10.2791 2.18745C10.9082 2.26245 11.2983 2.94995 11.5625 3.74995ZM9.51165 2.32495C9.67521 2.74995 9.78845 3.34995 9.78845 4.17495V4.29995C9.10904 4.51245 8.39188 4.72495 7.64956 4.96245C8.06476 3.38745 8.8574 2.61245 9.51165 2.32495ZM8.70642 1.54995C8.83224 1.54995 8.95806 1.59995 9.05871 1.67495C8.16541 2.08745 7.22178 3.12495 6.83175 5.22495C6.24041 5.41245 5.67423 5.57495 5.13322 5.74995C5.58616 4.14995 6.71851 1.54995 8.70642 1.54995Z" fill="#95BF47"/>
<path d="M16.3561 4.7874C16.2807 4.7874 14.6324 4.6624 14.6324 4.6624C14.6324 4.6624 13.4875 3.5249 13.3491 3.4124C13.2988 3.3624 13.2359 3.3374 13.1856 3.3374L12.2671 22.1624L18.9102 20.7374C18.9102 20.7374 16.5826 5.0874 16.57 4.9749C16.5197 4.8624 16.4316 4.8124 16.3561 4.7874Z" fill="#5E8E3E"/>
<path d="M9.98999 8.43761L9.18476 10.8501C9.18476 10.8501 8.45502 10.4626 7.58689 10.4626C6.29097 10.4626 6.22806 11.2751 6.22806 11.4751C6.22806 12.5751 9.12185 13.0001 9.12185 15.5876C9.12185 17.6251 7.82594 18.9376 6.07708 18.9376C3.96336 18.9376 2.90649 17.6376 2.90649 17.6376L3.47267 15.7876C3.47267 15.7876 4.57986 16.7376 5.51091 16.7376C6.12741 16.7376 6.37904 16.2626 6.37904 15.9126C6.37904 14.4751 4.01368 14.4126 4.01368 12.0376C4.01368 10.0501 5.448 8.12511 8.35437 8.12511C9.4364 8.11261 9.98999 8.43761 9.98999 8.43761Z" fill="white"/>
<path d="M26.6229 12.9749C25.9561 12.6249 25.6164 12.3124 25.6164 11.8999C25.6164 11.3749 26.0945 11.0374 26.8368 11.0374C27.7049 11.0374 28.4724 11.3875 28.4724 11.3875L29.0764 9.54995C29.0764 9.54995 28.5228 9.12495 26.8871 9.12495C24.6098 9.12495 23.0246 10.425 23.0246 12.25C23.0246 13.2875 23.7669 14.075 24.7482 14.6375C25.5535 15.075 25.8303 15.4 25.8303 15.875C25.8303 16.3625 25.4277 16.7625 24.6853 16.7625C23.5907 16.7625 22.5465 16.2 22.5465 16.2L21.9048 18.0374C21.9048 18.0374 22.861 18.6749 24.4715 18.6749C26.8116 18.6749 28.5102 17.5249 28.5102 15.4624C28.485 14.3374 27.642 13.5624 26.6229 12.9749ZM35.9585 9.09995C34.801 9.09995 33.8951 9.64995 33.2031 10.4749L33.178 10.4624L34.1845 5.26245H31.5801L29.0386 18.5125H31.643L32.5112 13.9874C32.8509 12.2749 33.7442 11.2124 34.5746 11.2124C35.1659 11.2124 35.3924 11.6124 35.3924 12.1749C35.3924 12.5249 35.3672 12.975 35.2791 13.325L34.2978 18.5125H36.9022L37.9213 13.1624C38.0345 12.5999 38.11 11.9249 38.11 11.4624C38.0974 9.97495 37.3299 9.09995 35.9585 9.09995ZM43.9982 9.09995C40.8528 9.09995 38.7768 11.9124 38.7768 15.0499C38.7768 17.0499 40.0224 18.6749 42.3626 18.6749C45.4451 18.6749 47.5211 15.9374 47.5211 12.7249C47.5337 10.8624 46.4517 9.09995 43.9982 9.09995ZM42.7149 16.7C41.8216 16.7 41.4567 15.95 41.4567 15C41.4567 13.5125 42.2242 11.0999 43.646 11.0999C44.5644 11.0999 44.879 11.8999 44.879 12.6624C44.879 14.2499 44.0863 16.7 42.7149 16.7ZM54.202 9.09995C52.4406 9.09995 51.4466 10.6499 51.4466 10.6499H51.4215L51.5724 9.26245H49.2574C49.1442 10.2 48.9303 11.6375 48.729 12.7L46.9298 22.1875H49.5342L50.2639 18.3499H50.3268C50.3268 18.3499 50.8679 18.6875 51.8492 18.6875C54.9192 18.6875 56.9197 15.5624 56.9197 12.4124C56.9071 10.6624 56.1144 9.09995 54.202 9.09995ZM51.7108 16.7249C51.0314 16.7249 50.6288 16.3374 50.6288 16.3374L51.0566 13.9249C51.3585 12.2999 52.2141 11.2374 53.12 11.2374C53.9252 11.2374 54.1643 11.9749 54.1643 12.6624C54.1768 14.3374 53.1703 16.7249 51.7108 16.7249ZM60.6313 5.38745C59.8009 5.38745 59.134 6.04995 59.134 6.88745C59.134 7.64995 59.6247 8.18745 60.367 8.18745H60.3922C61.21 8.18745 61.902 7.63745 61.9146 6.68745C61.9272 5.92495 61.4113 5.38745 60.6313 5.38745ZM56.9826 18.5H59.587L61.3484 9.29995H58.7314M67.9916 9.28745H66.1798L66.2679 8.86245C66.4188 7.97495 66.9473 7.19995 67.828 7.19995C68.2935 7.19995 68.6584 7.33745 68.6584 7.33745L69.1616 5.29995C69.1616 5.29995 68.7213 5.07495 67.7399 5.07495C66.8215 5.07495 65.8904 5.33745 65.1858 5.93745C64.2925 6.68745 63.8773 7.77495 63.676 8.87495L63.6005 9.29995H62.3801L61.9901 11.2625H63.2105L61.8265 18.5125H64.4309L65.8149 11.2625H67.6141L67.9916 9.28745ZM74.2698 9.29995C74.2698 9.29995 72.6342 13.3875 71.917 15.625H71.8919C71.8415 14.9 71.2502 9.29995 71.2502 9.29995H68.5074L70.0801 17.7249C70.1053 17.9124 70.0927 18.0249 70.0172 18.1499C69.7152 18.7374 69.1994 19.2999 68.5955 19.7124C68.1048 20.0624 67.5512 20.3 67.1108 20.45L67.8406 22.6499C68.369 22.5374 69.4762 22.0999 70.3946 21.2374C71.5773 20.1374 72.6845 18.4249 73.8169 16.0999L77 9.28745H74.2698V9.29995Z" fill="black"/>
</g>
<defs>
<clipPath id="clip0_754_3174">
<rect width="77" height="24" fill="white"/>
</clipPath>
</defs>
</svg>
