<svg width="752" height="521" viewBox="0 0 752 521" fill="none" xmlns="http://www.w3.org/2000/svg">
<path d="M635.5 1H693.167M635.5 1V58.6667M635.5 1H577.833M693.167 1V58.6667M693.167 1H750.833V58.6667M693.167 58.6667H635.5M693.167 58.6667H750.833M693.167 58.6667V116.333M635.5 58.6667V116.333M635.5 58.6667H577.833M750.833 58.6667V116.333M693.167 116.333H635.5M693.167 116.333V174M693.167 116.333H750.833M635.5 116.333V174M635.5 116.333H577.833M693.167 174H635.5M693.167 174V231.667M693.167 174H750.833M635.5 174V231.667M635.5 174H577.833M693.167 231.667H635.5M693.167 231.667V289.333M693.167 231.667H750.833M635.5 231.667V289.333M635.5 231.667H577.833M693.167 289.333H635.5M693.167 289.333V347M693.167 289.333H750.833M635.5 289.333V347M635.5 289.333H577.833M693.167 347H635.5M693.167 347V404.667M693.167 347H750.833M635.5 347V404.667M635.5 347H577.833M693.167 404.667H635.5M693.167 404.667V462.333M693.167 404.667H750.833M635.5 404.667V462.333M635.5 404.667H577.833M693.167 462.333H635.5M693.167 462.333V520M693.167 462.333H750.833M635.5 462.333V520M635.5 462.333H577.833M693.167 520H635.5M693.167 520H750.833V462.333M635.5 520H577.833M750.833 116.333V174M750.833 174V231.667M750.833 231.667V289.333M750.833 289.333V347M750.833 347V404.667M750.833 404.667V462.333M58.8334 1H1.16675V58.6667M58.8334 1V58.6667M58.8334 1H116.5M58.8334 58.6667H1.16675M58.8334 58.6667H116.5M58.8334 58.6667V116.333M1.16675 58.6667V116.333M116.5 1V58.6667M116.5 1H174.167M116.5 58.6667H174.167M116.5 58.6667V116.333M174.167 1V58.6667M174.167 1H231.833M174.167 58.6667H231.833M174.167 58.6667V116.333M231.833 1V58.6667M231.833 1H289.5M231.833 58.6667H289.5M231.833 58.6667V116.333M289.5 1V58.6667M289.5 1H347.167M289.5 58.6667H347.167M289.5 58.6667V116.333M347.167 1V58.6667M347.167 1H404.833M347.167 58.6667H404.833M347.167 58.6667V116.333M404.833 1V58.6667M404.833 1H462.5M404.833 58.6667H462.5M404.833 58.6667V116.333M462.5 1V58.6667M462.5 1H520.167M462.5 58.6667H520.167M462.5 58.6667V116.333M520.167 1V58.6667M520.167 1H577.833M520.167 58.6667H577.833M520.167 58.6667V116.333M577.833 1V58.6667M577.833 58.6667V116.333M58.8334 116.333H1.16675M58.8334 116.333V174M58.8334 116.333H116.5M1.16675 116.333V174M58.8334 174H1.16675M58.8334 174V231.667M58.8334 174H116.5M1.16675 174V231.667M58.8334 231.667H1.16675M58.8334 231.667V289.333M58.8334 231.667H116.5M1.16675 231.667V289.333M58.8334 289.333H1.16675M58.8334 289.333V347M58.8334 289.333H116.5M1.16675 289.333V347M58.8334 347H1.16675M58.8334 347V404.667M58.8334 347H116.5M1.16675 347V404.667M58.8334 404.667H1.16675M58.8334 404.667V462.333M58.8334 404.667H116.5M1.16675 404.667V462.333M58.8334 462.333H1.16675M58.8334 462.333V520M58.8334 462.333H116.5M1.16675 462.333V520H58.8334M58.8334 520H116.5M116.5 116.333V174M116.5 116.333H174.167M116.5 174V231.667M116.5 174H174.167M116.5 231.667V289.333M116.5 231.667H174.167M116.5 289.333V347M116.5 289.333H174.167M116.5 347V404.667M116.5 347H174.167M116.5 404.667V462.333M116.5 404.667H174.167M116.5 462.333V520M116.5 462.333H174.167M116.5 520H174.167M174.167 116.333V174M174.167 116.333H231.833M174.167 174V231.667M174.167 174H231.833M174.167 231.667V289.333M174.167 231.667H231.833M174.167 289.333V347M174.167 289.333H231.833M174.167 347V404.667M174.167 347H231.833M174.167 404.667V462.333M174.167 404.667H231.833M174.167 462.333V520M174.167 462.333H231.833M174.167 520H231.833M231.833 116.333V174M231.833 116.333H289.5M231.833 174V231.667M231.833 174H289.5M231.833 231.667V289.333M231.833 231.667H289.5M231.833 289.333V347M231.833 289.333H289.5M231.833 347V404.667M231.833 347H289.5M231.833 404.667V462.333M231.833 404.667H289.5M231.833 462.333V520M231.833 462.333H289.5M231.833 520H289.5M289.5 116.333V174M289.5 116.333H347.167M289.5 174V231.667M289.5 174H347.167M289.5 231.667V289.333M289.5 231.667H347.167M289.5 289.333V347M289.5 289.333H347.167M289.5 347V404.667M289.5 347H347.167M289.5 404.667V462.333M289.5 404.667H347.167M289.5 462.333V520M289.5 462.333H347.167M289.5 520H347.167M347.167 116.333V174M347.167 116.333H404.833M347.167 174V231.667M347.167 174H404.833M347.167 231.667V289.333M347.167 231.667H404.833M347.167 289.333V347M347.167 289.333H404.833M347.167 347V404.667M347.167 347H404.833M347.167 404.667V462.333M347.167 404.667H404.833M347.167 462.333V520M347.167 462.333H404.833M347.167 520H404.833M404.833 116.333V174M404.833 116.333H462.5M404.833 174V231.667M404.833 174H462.5M404.833 231.667V289.333M404.833 231.667H462.5M404.833 289.333V347M404.833 289.333H462.5M404.833 347V404.667M404.833 347H462.5M404.833 404.667V462.333M404.833 404.667H462.5M404.833 462.333V520M404.833 462.333H462.5M404.833 520H462.5M462.5 116.333V174M462.5 116.333H520.167M462.5 174V231.667M462.5 174H520.167M462.5 231.667V289.333M462.5 231.667H520.167M462.5 289.333V347M462.5 289.333H520.167M462.5 347V404.667M462.5 347H520.167M462.5 404.667V462.333M462.5 404.667H520.167M462.5 462.333V520M462.5 462.333H520.167M462.5 520H520.167M520.167 116.333V174M520.167 116.333H577.833M520.167 174V231.667M520.167 174H577.833M520.167 231.667V289.333M520.167 231.667H577.833M520.167 289.333V347M520.167 289.333H577.833M520.167 347V404.667M520.167 347H577.833M520.167 404.667V462.333M520.167 404.667H577.833M520.167 462.333V520M520.167 462.333H577.833M520.167 520H577.833M577.833 116.333V174M577.833 174V231.667M577.833 231.667V289.333M577.833 289.333V347M577.833 347V404.667M577.833 404.667V462.333M577.833 462.333V520" stroke="url(#paint0_radial_754_2628)" stroke-opacity="0.2"/>
<defs>
<radialGradient id="paint0_radial_754_2628" cx="0" cy="0" r="1" gradientUnits="userSpaceOnUse" gradientTransform="translate(376 260.5) rotate(90) scale(259.5 374.833)">
<stop stop-color="#0E031C"/>
<stop offset="1" stop-color="#0E031C" stop-opacity="0"/>
</radialGradient>
</defs>
</svg>
