<svg width="24" height="24" viewBox="0 0 24 24" fill="none" xmlns="http://www.w3.org/2000/svg">
  <path fill-rule="evenodd" clip-rule="evenodd" d="M12 0C5.373 0 0 5.373 0 12s5.373 12 12 12 12-5.373 12-12S18.627 0 12 0Zm0 20.571a8.571 8.571 0 1 1 0-17.142 8.571 8.571 0 0 1 0 17.142Zm4.285-11.142a2.571 2.571 0 1 1-5.142 0 2.571 2.571 0 0 1 5.142 0Zm0 5.142a2.571 2.571 0 1 1-5.142 0 2.571 2.571 0 0 1 5.142 0Zm-5.142-5.142a2.571 2.571 0 1 1-5.143 0 2.571 2.571 0 0 1 5.143 0Zm0 5.142a2.571 2.571 0 1 1-5.143 0 2.571 2.571 0 0 1 5.143 0Z" fill="#F22F46" />
</svg>
